<?xml version="1.0" encoding="utf-8"?>
<!-- Generator: Adobe Illustrator 25.0.1, SVG Export Plug-In . SVG Version: 6.00 Build 0)  -->
<svg version="1.1"
	xmlns="http://www.w3.org/2000/svg"
	xmlns:xlink="http://www.w3.org/1999/xlink"
	x="0px"
	y="0px"
	viewBox="0 0 750 500"
	style="enable-background:new 0 0 750 500;"
	xml:space="preserve">
	<style type="text/css">
	.st0{clip-path:url(#SVGID_3_);fill:url(#SVGID_4_);}
	.st1{clip-path:url(#SVGID_6_);}
	.st2{opacity:0.32;fill:#F5C878;}
	.st3{opacity:0.16;fill:#F5C878;}
	.st4{clip-path:url(#SVGID_6_);fill:#FFC359;}
	.st5{fill:url(#SVGID_7_);}
	.st6{opacity:0.33;fill:#422416;}
	.st7{opacity:0.16;fill:#FFC359;}
	.st8{fill:url(#SVGID_8_);}
	.st9{opacity:7.000000e-02;fill:#FFC359;}
	.st10{opacity:9.000000e-02;fill:#FFC359;}
	.st11{opacity:0.22;fill:#422416;}
	.st12{opacity:0.26;fill:#422416;}
	.st13{fill:url(#SVGID_9_);}
	.st14{fill:url(#SVGID_10_);}
	.st15{opacity:0.11;}
	.st16{clip-path:url(#SVGID_6_);fill:url(#SVGID_11_);}
	.st17{clip-path:url(#SVGID_6_);fill:url(#SVGID_12_);}
	.st18{clip-path:url(#SVGID_6_);fill:url(#SVGID_13_);}
	.st19{opacity:0.56;fill:#422416;}
	.st20{opacity:0.57;clip-path:url(#SVGID_6_);fill:url(#SVGID_14_);}
	</style>
	<g id="BACKGROUND">
		<g>
			<defs>
				<rect id="SVGID_1_"
					width="750"
					height="500" />
			</defs>
			<linearGradient id="SVGID_2_"
				gradientUnits="userSpaceOnUse"
				x1="375"
				y1="352"
				x2="375"
				y2="40.9855">
				<stop offset="0"
					style="stop-color:#F59D00" />
				<stop offset="1"
					style="stop-color:#F57300" />
			</linearGradient>
			<use xlink:href="#SVGID_1_"
				style="overflow:visible;fill:url(#SVGID_2_);" />
			<clipPath id="SVGID_3_">
				<use xlink:href="#SVGID_1_"
					style="overflow:visible;" />
			</clipPath>
			<linearGradient id="SVGID_4_"
				gradientUnits="userSpaceOnUse"
				x1="376.5"
				y1="351.9997"
				x2="376.5"
				y2="40.9851">
				<stop offset="0"
					style="stop-color:#F59D00" />
				<stop offset="1"
					style="stop-color:#F57300" />
			</linearGradient>
			<rect x="-63"
				y="-40"
				class="st0"
				width="879"
				height="585" />
		</g>
	</g>
	<g id="OBJECTS">
		<g>
			<defs>
				<rect id="SVGID_5_"
					width="750"
					height="500" />
			</defs>
			<clipPath id="SVGID_6_">
				<use xlink:href="#SVGID_5_"
					style="overflow:visible;" />
			</clipPath>
			<g class="st1">
				<path class="st2"
					d="M292.7,161.9h264.6c0,0-36.1-3.5-51.1-5.5s-36-4.3-50-4.9c-14-0.6-18.5,6.6-35.5,0c-17-6.6-33-4.9-45.5,0
				C362.7,156.4,298.7,156.9,292.7,161.9z" />
				<path class="st3"
					d="M-5.3,98.6c0,0,20,1.1,50.7,1.1c30.7,0,28-2,67.7,0s49.7,6.6,83,8.3c33.3,1.7,55.6-8.1,111.5-9.2
				c55.9-1.1,58.5,3.1,99.2,4.7c40.7,1.5,35.3,2.2,79.3,0.2s62-6.7,80,0c18,6.7,64.3,12,97.5,13.3s93.2,0,93.2,0v37.5
				c0,0-124-13.3-162-14.7c-38-1.4-68.1,4.7-114.4-2.4c-46.3-7.1-66.3-2.9-109.6-6.3c-43.3-3.4-71.3,1.9-124,3.3
				c-52.7,1.3-65.3,3.3-102.7-2.7c-37.3-6-152-0.6-152-0.6L-5.3,98.6z" />
				<path class="st3"
					d="M-12,52c0,0,60,7,120,7s98-5,156-7s216-23,249-18c0,0-60.3-10-105.7-9s-88,3-147.2,5
				C201,32,98.7,24.9,98.7,24.9L-20,21L-12,52z" />
				<path class="st3"
					d="M-9,35c0,0,53,8,127,10s110.1-1.3,182-10c71.9-8.7,126.3-16,173.7-14S532,14,577,21s72.4,11.9,87.7,10.9
				c15.3-0.9,103,0,103,0V-18H-9V35z" />
				<path class="st2"
					d="M503.5,80c0,0,76.5,0,95,0s92.5,0,92.5,0s-32.5-2.6-46.5-7.3C630.5,68,624,64,615,64.5s-5.5,3.5-22.5,2.5
				s-21.5-6.6-35-2.5C544,68.5,517,77.5,503.5,80z" />
				<path class="st2"
					d="M398.5,71.4H498c0,0-14-6-24-8s-13,1-24.5,0S406.5,66.4,398.5,71.4z" />
			</g>
			<ellipse transform="matrix(0.1647 -0.9863 0.9863 0.1647 -2.0316 419.2132)"
				class="st4"
				cx="246.5"
				cy="210.8"
				rx="47"
				ry="47" />
			<g class="st1">
				<linearGradient id="SVGID_7_"
					gradientUnits="userSpaceOnUse"
					x1="320.8579"
					y1="348.0549"
					x2="320.8579"
					y2="218.0511">
					<stop offset="0"
						style="stop-color:#F59D00" />
					<stop offset="1"
						style="stop-color:#F56600" />
				</linearGradient>
				<path class="st5"
					d="M-5.3,103.7H22l12,9.4l2.7,31.1l12,6.9l20,19.6v21.2h18L127,213l107,8.7l30.7-14l12,3.1l14.7,45.9h16.1
				l20.5-20.9l6.7-18.8l9.3-4l7.3,11.2c0,0,1.3,16.2,4.6,22.2c3.4,6,8.7,10.4,8.7,10.4H375l5-22.8l9.7-38.3l38.9-15.4l3.3,30.6
				l23.1,26.9l80.9,3.8l40-70.9l9.3-32.2l17.8-14l15.5,6.7l13.3,60.7l21.7,54.5l-27.9,106.5H-12L-5.3,103.7z" />
				<polygon class="st6"
					points="45.5,191.2 48.7,151 36.7,144.1 39.6,173.2 			" />
				<polygon class="st7"
					points="344,213 336.7,244 307.5,256.8 328,235.8 334.7,217 			" />
				<polygon class="st7"
					points="375,256.8 403.8,190 389.7,195.6 			" />
			</g>
			<g class="st1">
				<linearGradient id="SVGID_8_"
					gradientUnits="userSpaceOnUse"
					x1="444.7333"
					y1="390.4477"
					x2="388.0665"
					y2="233.1143">
					<stop offset="0"
						style="stop-color:#F58000" />
					<stop offset="1"
						style="stop-color:#B54B00" />
				</linearGradient>
				<path class="st8"
					d="M260.2,263.8l12.5-33.5l25.3-8.7l20.8,3.3c0,0,5.1,18.7,9.1,21.3l9.7,3.7c0,0,5.1,15,10.7,19.7
				c5.6,4.7,35.6,0,35.6,0l19.9-42.7l11.6-65.3L419,137l43.7-17.2l14,7.2l9.3-14c0,0,14.3-5.7,19.3-5s23,4,23,4s14.7,18.7,19.7,23.3
				l2.7,8.8l13.3,7.6l5,48.3l65,131l-418,9.3L260.2,263.8z" />
				<polygon class="st9"
					points="256.9,282.1 282.5,235.8 296,228 318.8,225 298,221.7 272.7,230.3 260.2,263.8 244,291.8 			" />
				<path class="st10"
					d="M343,276h9.3l31.7-6.3c0,0-30,4.7-35.6,0c-5.6-4.7-10.7-19.7-10.7-19.7l-9.7-3.7l6.4,6.6L343,276z" />
				<path class="st9"
					d="M415.4,161.7L403.8,227L384,269.7l-23.7,30.6l27.3,5.9c0,0,16.4-20.2,19.4-27.2s8.7-38,8.7-38l6.7-30
				l-5.3,4.3l-7.3,15.3L413,211l12-34.3l4.3-39.7l33.3-17.2L419,137L415.4,161.7z" />
				<path class="st11"
					d="M462.7,119.8c0,0,0.2,16,0,20.7s-1.2,21.8-1.2,21.8l-3,20.5l2.1,17.2l3.4-22l10.5-43.8l2.2-7.2L462.7,119.8
				z" />
				<path class="st9"
					d="M460.6,200l-2.1,26l-9.5,33l-34.3,49l28,5.7l12.3-52.5l12.6-38.5l1.4-39l13.7-56l6-11.7l15.3-6l24.3,2
				c0,0-18-3.3-23-4c-5-0.7-19.3,5-19.3,5l-9.3,14L464,178L460.6,200z" />
				<polygon class="st12"
					points="516,119.8 498,181 511.3,252.3 506.5,333.8 634,331 569,200 564,151.7 550.7,144.1 558.3,202.3
				541,194 528.3,174.7 531,155 528.3,139 528.3,112 			" />
			</g>
			<g class="st1">
				<linearGradient id="SVGID_9_"
					gradientUnits="userSpaceOnUse"
					x1="248.3268"
					y1="362.4186"
					x2="285.6601"
					y2="177.7519">
					<stop offset="0"
						style="stop-color:#D46500" />
					<stop offset="0.1573"
						style="stop-color:#C55600" />
					<stop offset="0.4606"
						style="stop-color:#AE4000" />
					<stop offset="0.7478"
						style="stop-color:#A13300" />
					<stop offset="1"
						style="stop-color:#9C2E00" />
				</linearGradient>
				<path class="st13"
					d="M437.3,303.3l-0.1-8.5c1.1-1,3.1-2.9,4-3.9c1.2-1.5,2.5-6.1,2.8-8s1.1-5.2,0-5.1s-1.6,6.8-3.2,10.1
				c-1,2-2.5,3.4-3.5,4.2l-0.1-6.5c0,0,1.2-16-1-16c-1.8,0-1.8,10-1.7,17.2c-1.1-1.2-2.5-2.9-3.3-4.5c-1.5-2.9-1.8-6.2-2.8-6.2
				s-0.5,3.1,0,5.1c0.4,1.6,4.5,7,6.1,9.1c0,0.3,0,0.5,0,0.7v12.1c0,1.8-1.5,3.3-3.4,3.3l-11.5-0.2c0,0-37.5-11.8-54.8-11.2
				c-17.4,0.7-86-24.7-86-24.7l-26-58.7l-26-12h-34l-8,11.3v-36c0,0-1.3-14-6.7-17.3c-5.3-3.3-36-24.7-40.7-26
				c-4.7-1.3-17.3,0-17.3,0l-21.3,30v33.9l-20,8.1l-8.7,12l-4,26L52,267c0,0-19.3,16.7-24.7,19.3C22,289-8,299.4-8,299.4v45h490
				l46.3-36l-87.9-1.7C438.7,306.6,437.3,305.1,437.3,303.3z" />
				<polygon class="st12"
					points="184.7,211 188.5,235.8 199.5,244 203.5,282 208,291.5 211,306.2 211,278 207.5,233.9 211,211
				226.7,199.7 192.7,199.7 			" />
				<path class="st12"
					d="M98.7,195.6l14.7,4.1l7.3,10l3.1,54l12.2,63.7l16,9.7c0,0-4.7-24.7-5.7-30.9c-1-6.2-3-30.3-3.3-40.9
				c-0.3-10.6-1.3-47.2-2.7-55.9c-1.3-8.7-13.7-29-15-35.3c-1.3-6.3-2.7-30.3-2.7-30.3l-2.7-12l-21.3,30V195.6z" />
				<path class="st9"
					d="M143.2,163c2.2,4.5,8.8,10.2,8.8,10.2l3,20.5l6,5.9l-2-29.2l-1.8-26.7c-8.8-5.9-17.5-11.4-19.8-12.1
				l3.7,15.8C141,147.5,141,158.5,143.2,163z" />
				<path class="st12"
					d="M70,215.7l-4,26L52,267c0,0-19.3,16.7-24.7,19.3C22,289-8,299.4-8,299.4V324l121-5l-24.7-38.7
				c0,0-4.7-24.7-6-30.3c-1.3-5.7-6.7-28.3-6.7-28.3l3-18L70,215.7z" />
				<path class="st9"
					d="M227.3,200L227.3,200l21.4,13.8l6.8,27.5l20.2,32.5c0,0,13.8,12.8,19.2,16s40.5,10.5,40.5,10.5
				s18-3.5,25.2-3.5c7.2,0,26.8,1.1,26.9,1.1c-8.5-1.8-16.9-3-22.9-2.8c-17.4,0.7-86-24.7-86-24.7l-26-58.7L227.3,200z" />
			</g>
			<g class="st1">
				<linearGradient id="SVGID_10_"
					gradientUnits="userSpaceOnUse"
					x1="535.3104"
					y1="571.5885"
					x2="365.9768"
					y2="268.9217">
					<stop offset="0"
						style="stop-color:#BA4B00" />
					<stop offset="1"
						style="stop-color:#822600" />
				</linearGradient>
				<path class="st14"
					d="M741.3,175l-18-20.7c0,0-6-14-10-24c-3.3-29.3-4-38-4-38L704,85V73.7L675.3,67l-34.7,12.7l-11.3,50.7
				l-8,31.3c0,0-24,8-25.3,18c-0.7,5.1-4.1,23-7.4,39.4c-3.7,18.9-15.7,35-32.7,44.1c-30.7,16.3-79.5,42.4-100.6,55.2
				c-26.9,16.3-99,8-135.3,8.9c1.5-5,4-14.1,2.7-14.4c-1.3-0.3-3.6,9.5-4.6,14.4c-0.1,0-0.2,0-0.3,0c0-4,0-17-1.5-16.8
				c-1,0.1-0.9,5.9-0.6,10.8c-1.1-4.8-2.6-10.3-3.6-10c-1.3,0.4,1.3,9.8,2.7,14.7c-4-3.2-8.9-6.8-9.5-5.9c-0.6,0.9,4,4.5,8.1,7.4
				c-3.9,0.3-7.1,0.7-9.6,1.4c-23.9,6.7-119.2,1.3-149.9,4.7C123.3,337-5.3,357-5.3,357v47.7H764V219L741.3,175z" />
				<path class="st12"
					d="M621.3,161.7c0,0,13.7,4.5,16.2,10s5,32,5,32l9.5,32.2l11.5,70.3h-33l-4.5-60c0,0-0.5-9.5,3-21
				s1.5-19.5,1.5-19.5l-9.2-13.5V161.7z" />
				<path class="st9"
					d="M569.3,267.3l6.5-3.6c6.3-3.5,10.9-9.4,12.6-16.3c2.6-10,6.2-23.9,7.2-28.5c1.7-7.3,3.7-37,3.7-37l3.8-11.4
				c-3.8,2.7-6.7,5.8-7.2,9.1c-0.7,5.1-4.1,23-7.4,39.4c-3.7,18.9-15.7,35-32.7,44.1c-19.1,10.1-45.2,24.1-67.2,36.2L569.3,267.3z" />
				<path class="st9"
					d="M642.5,134.4c-0.2-11,3.6-51.3,3.6-51.3L660,72.7l-19.2,7l-11.3,50.7l-8,31.3l11.1,5.1
				C632.5,166.8,642.7,145.4,642.5,134.4z" />
				<path class="st12"
					d="M762.7,216.5L741.3,175l-18-20.7c0,0-6-14-10-24c-3.3-29.3-4-38-4-38L704,85V73.7L675.3,67v31.2l2.7,11.5
				l3.8,15.2l10.2,30.5l1.5,23.5l-2.5-14.8l-6.5-16.2l-9.2-2.2c0,0-4.3,5.5-5.8,12.5s0,65.5,0,65.5l15,73.5l3,27H732h32V221.7
				L762.7,216.5z" />
				<path class="st9"
					d="M672.9,146.7l-14.4,6.1c-2.9,1.2-5.1,3.7-5.8,6.8l-5.8,23.1l1.6,11.8l6.4-12.7l3.3-24.3L672.9,146.7z" />
				<path class="st15"
					d="M364.7,328.1c0.2,0,46.8,9.6,66.5,15c19.8,5.5,60.3,0,77.3,0s45,7,45,7l25-26c0,0-68,1-94,0
				s-53.3,1.8-53.3,1.8h0C412,329.1,387.5,328.8,364.7,328.1z" />
			</g>
			<linearGradient id="SVGID_11_"
				gradientUnits="userSpaceOnUse"
				x1="384"
				y1="604.0743"
				x2="384"
				y2="324.9122">
				<stop offset="0"
					style="stop-color:#BA4B00" />
				<stop offset="0.998"
					style="stop-color:#631D00" />
			</linearGradient>
			<path class="st16"
				d="M769.3,306.2c0,0-97.3-11.8-120-6.8c-22.7,5-70.8,18.3-70.8,18.3s-13.9,4-27.8,8.7c-1.6,0.5-3.2-0.6-3.2-2.3
			c0-5.3,0-10.4-0.1-13c0-1.1-0.1-2.8-0.1-5c3.2-3.5,11.1-12.3,12.7-17.1c2-6.1,5.2-29.7,5.5-34.9s-4.2-8.5-4.8,0s-5,26-6.8,31.5
			c-1,3.3-4.3,6.9-6.8,9.2c-0.1-11.8-0.1-26.4,0.1-34c0.3-12.3,0-25-7.7-24.8c-4.6,0.1-4.8,12.8-4.2,26.2c-1-0.9-3.3-2.2-5.7-3.9
			c0-7.1-0.2-31.8-2.9-34c-2.8-2.2-1.4,24-1,30.7c-0.2-0.3-0.5-0.5-0.7-0.8c-3.3-3.8-5-18.8-8.3-19s-2.1,8.1-0.9,13.9
			c1.1,5.2,6.1,16.8,19.8,20.1c0.4,6.2,0.8,12.5,1.1,18.1c0.6,15.3,0.3,32.7,0.1,40.4c-0.1,2.4-1.5,4.5-3.7,5.5
			c-3.1,1.3-7.2,3.2-8.5,4.2c-8.9,6.4-24.7,13.1-24.7,13.1s-0.1,5.5-28.4,10.8c-28.3,5.3-48.5,12-48.5,12s-73.1,0-85.4,0
			c-12.3,0-67.6-7.3-69.6-7.3s-55.3-12.3-70-15.5c-7.1-1.5-24.7-9.6-43-17.9c-1.4-0.6-2.3-2-2.3-3.5c0-6.8,0-17.1-0.1-28.4
			c0-2.5,2.2-4.4,4.8-4.1c6.7,0.9,15.3-1,16.1-8c0.2-2.4,0.1-11-0.2-21.1c0,0,10.7-3.5,10.5-18.7c-0.2-15.2-2.2-15.8-4-15
			s1.3,14.8-1.2,18.5c-0.2,0.3-0.5,0.7-0.7,1c-1.7,2.1-5.1,1-5.2-1.7c-0.7-12.4-1.7-23.2-2.8-24.2c-2.5-2.2-4.2,1.5-3.8,10.2
			s1,47.5-2,50c-1.6,1.3-4,0.2-4-1.9c0-8.3-0.3-22.7-2-22.5c-1.7,0.1-1.4,14.8-1.1,22.9c0.1,1.3-1.1,2.4-2.5,2.2l0,0
			c-1-0.2-1.8-1.1-1.8-2.1c0-18.6,0-36.8,0.1-43.8c0.2-16.5-2.5-38-8-37.8s-2.5,31.2-1.8,61c0.1,2.5,0.1,5.1,0.2,7.7
			c0,1.9-1.2,3.6-3,4c-0.7,0.2-1.5,0.3-2.3,0.4c-0.3-9.2-0.4-86.3-2.9-86.2c-2.5,0.1-2.1,76.3-1.6,85.9c-1-0.4-1.8-1-2.4-1.9
			c-3-5.2,1-62.2-4-62.2s-3.8,62.8-1.8,67c1.6,3.4,8.4,3.3,14.3,3c2.2-0.1,4,1.6,4,3.7c0.3,12.9,0.7,25.1,0.9,33.5
			c0.1,3.4-3.4,5.8-6.6,4.4c-13.4-5.9-25.5-10.8-32.6-12.3c-1.5-0.3-3.2-0.6-5-1c3.2-2.3,9.9-7.1,10.3-7.8c0.5-1-4.5,1.5-6.2,2
			s-8.5,4-8.5,3.2s4.8-5,5.5-5.8s6.8-6.2,6.8-7.2s-5.2,2-9.8,5.5s-5.5,3-5.5,3l-1.2-2.4c0,0,3-8.6,4-10.3s4.5-10,4.5-10L91.3,292
			c0,0-5.5,10.8-7.2,9.8c-1.7-1,0.2-12.2-0.1-13s0.2-10.8,0-17.2s-2-13.2-2-13.2s-3.2,12.2-1.9,21.2c1.3,9-1.3,18.3-1.3,18.3
			s-3.2-10-4.5-14.8s-9.8-14.8-9.8-14.8s2.8,13.2,5,18.5s4.2,10.8,4.2,10.8s-9.2-10.8-10.5-13.2c-1.2-2.5-9.8-5.5-9.8-5.5l4.5,4.2
			c0,0,2.5,3.8,4,6.8s7.5,10.5,7.5,10.5l-1.8-1.5c0,0-8.5-4-10-6.5s-8.2-2.2-8.2-2.2l2.8,2c0,0,4.2,5.8,7,8.5
			c1.5,1.5,4.1,3.3,6.2,4.6c-17.9-3.1-34.2-5.7-34.2-5.7l-43.3,6.8v177.8h792L769.3,306.2z" />
			<linearGradient id="SVGID_12_"
				gradientUnits="userSpaceOnUse"
				x1="248.3333"
				y1="516.1125"
				x2="248.3333"
				y2="424.6953">
				<stop offset="0"
					style="stop-color:#BA4B00" />
				<stop offset="0.998"
					style="stop-color:#631D00" />
			</linearGradient>
			<path class="st17"
				d="M525.3,429.7c0,0-56.7-10.7-113-18.7c-56.3-8-77.1-0.2-113-8s-59.1-28.7-99.9-30s-44,28.6-97.1,10.3
			C49.3,365-28.7,357.7-28.7,357.7v120.6H522L525.3,429.7z" />
			<linearGradient id="SVGID_13_"
				gradientUnits="userSpaceOnUse"
				x1="380"
				y1="725.0696"
				x2="380"
				y2="405.4025">
				<stop offset="0"
					style="stop-color:#8C3700" />
				<stop offset="0.9961"
					style="stop-color:#451400" />
			</linearGradient>
			<path class="st18"
				d="M675,410.7c0.5-16.8,1.5-47.6,3-74.3c7.8-2,30.1-8.8,35.7-21.1c6.8-15,9.4-58.6,8.8-67.4
			c-0.6-8.8,1.5-81.8,0.8-89.2c-0.7-7.3,1.8-46.1-4.6-45.7c-6.5,0.3-8.3,26.7-9.9,54.3c-1.5,27.7-3.9,78-5.4,94.6
			c-1.5,16.7-1.6,38-6,43.3c-0.8,1-2,1.9-3.5,2.8c0.1-16.1-0.1-56.4-3.6-56.5c-3.7,0-3.6,46.5-3.5,59.6c-2.7,1-5.3,1.7-7.4,2.3
			c0.3-4.5,0.7-8.6,1-12.1c3.6-35.5-3.4-65.9-0.7-91c2.7-25.2,3-70.5-8-70.6c-15.6-0.1-10.9,57.4-11.5,69.9
			c-0.5,10.7-2.8,62.6-4.4,85.3c-3.7-7.9-8.9-20.7-11.2-33.5c-3.7-20.8,0.9-74.2-7.2-77.1c-6.4-2.4-7.9,21.6-8.3,43.2
			c-3.1-2.7-8.8-9-9.9-19.2c-1.6-14,4.7-50.6,0.4-52.3c-4.3-1.7-8.7,5.6-9.5,21.1c-0.8,15.5-2.6,39.1,1.3,51.8
			c2.9,9.3,12.6,18.2,17.7,22.4c1.4,24.7,10.1,63.4,24.3,76.7c-0.6,10.5-1.3,22.5-2.2,33.6c-5.3-6.2-17.3-21-22.9-33.8
			c-7.4-16.7-13-44.3-21.9-42.6c-8.9,1.7,10.6,54.3,21.7,71.2c7,10.8,15.5,20.2,20.7,25.5c-1.8,12-2.2,22.7-2.2,30.2
			c0,2.2-1.9,3.9-4.1,3.6c0,0,0,0,0,0c-55.6-6.7-78.4-3-143.4,6.7c-13.1,1.9-24.9,3.9-36,5.7c-2.9-0.3-6.2-0.3-8.5,0.3
			c-5.2,1.5-18.9,0-18.9,0l7-3.8c0,0,9.6-6.2,13.9-8.2s9.2-5,9.2-5s-9.5,1.8-17.2,5.2s-18.5,9-18.5,9l6.8-6.2c0,0,13.4-11.8,15.9-14
			s6.5-7.2,6.5-7.2s-18.5,10.2-23.6,14.5c-5.1,4.2-12.5,13-12.5,13s3.4-10.2,4.4-12.5c1-2.2,5.8-16.8,7.5-19.8
			c1.7-3,4.1-11.8,4.1-11.8s-11.1,14.8-19.2,35.5c-1.1,0.8,2.3-37.2,3.2-51.5c-5.7,15.5-6.3,60-6.3,60l-3.1-4.3
			c0,0-1.4-10.2-1.8-15.2c-0.4-5-2-16.8-2-16.8s-0.3,10.5,0,11.8c0.3,1.2-1.1,10,0,16.8c1.1,6.8-1.3,10.8-1.3,10.8l-1.2-6.3
			c0,0-1.6-7.9-2.1-9.2s-0.2-5.5-1.4-11.2c-1.2-5.8-2.7-11.2-2.7-11.2v5.2c0,0,0.4,14.2,1.2,20.2s1.6,15.5,1.6,15.5l-1.6-2.8
			c0,0-6.2-9.5-8-13.2s-7-12.8-7-12.8s3,11.8,5,16.8c1.5,3.8,5.9,10.9,8.4,14.1c-3.2-1.2-8-3.1-12.5-4.8c-7.5-2.8-10.5-3.2-10.5-3.2
			l23.9,11.3c-18.9,1.9-38.2,2.7-61,1.5c-24.4-1.3-58.8-5.7-94.4-10.6c0-0.6,0-1.2,0-1.9c-0.2-6.6,2.8-13,7.9-17.1
			c1.6-1.2,3-2.5,4-3.9c4.2-5.5,8-16.8,8.8-20.5s-1.8-6-5.5-3.2s-2.5,11.2-7,16.8c-2.3,2.9-5.5,4.2-8.1,4.8c0.2-9.1,0-28.4-0.1-44.9
			c0-6.4,3.2-12.4,8.6-15.7c2.5-1.6,4.9-3.3,6.3-5.2c3.8-5.2,5-13.8,4.1-22.1c1.9-0.6,5.2-1.8,9-4.3c6-3.9,6.7-9.4,7-14.4
			c0.3-5-0.2-8,0-11.2c0.2-3.2-4.8-4.9-4.8,0c0,0,0.3,5.8-0.7,10c-1,4.2-1.2,7.2-5.2,10.2c-2.3,1.7-4.6,2.3-6.1,2.6
			c-0.5-9.7,0.7-23.9,0.5-28.4c-0.2-5.2-1.4-6.4-5.3-5.4c-4,1-2.4,18.6-2.9,29s1.2,14.6-2.1,21.5c-1.9,3.9-5.6,6.4-8.5,7.9
			c-0.4-15.6-2.6-30.6-1.1-39.9c1.7-10.3,1.3-24.7,0-31c-1.3-6.3-0.3-14.3-7.7-15.3c-7.3-1-8.3,7-8.4,13c0,6,0,17.7,0,26.7
			c0,9-1,33.5-0.3,40.7c0.5,5.7,0.2,28.6,0.1,43.6c0,3-3.2,4.9-5.9,3.6c-2.3-1.1-4.4-2.8-5.5-5.2c-3.5-7.2-5.7-11.8-6.7-17
			s-2-22.1-1.5-27.7c0.5-5.6,1-19.1-5.5-19.6s-4.5,4-6.2,13.2s-0.5,18.8,0,29.8s0.8,18,4.8,23.5s8.5,12.8,20,16.8l0.1,0
			c3.9,1.3,6.5,5,6.5,9.1v28.8c-32.9-4.7-65.6-9.5-91.7-12.5c2.7-0.8,6-1.8,9.1-2.8c6.6-2.1,11.2-6.5,11.2-6.5l-25.5,6.8
			c0,0,8.5-6,15.3-8.9c6.8-2.9,9.2-9.9,9.2-9.9s-13.3,8.5-16.2,9.5c-2.9,1-9.9,4.4-9.9,4.4s12.5-11.9,16.3-14.5
			c3.8-2.6,8.8-10.5,8.8-10.5s-7.5,3.6-10.2,6.3c-2.8,2.8-12.4,9.9-12.4,9.9l-6.1,4.6c0,0,7.4-10.2,9.3-14.1
			c1.9-3.9,5.5-13.8,5.5-13.8l0.8-5.1c0,0-4.9,4.7-6.8,8.3c-1.9,3.6-8.9,15.5-8.9,15.5l-3.2,5.8c0,0,2.2-11.8,2.4-14.7
			c0.2-2.9,2-16.3,2-16.3l-0.8-11.5c0,0-4.8,16-5.3,22.3c-0.4,6.3-3.3,19.1-3.3,19.1s-3.4-18.8-3.8-28.8c-0.4-10-5.8-34.4-5.8-34.4
			s-3.5,11.6-1.2,20.4c2.3,8.8,6.9,47,6.9,47s-6.4-13.6-9.7-24.4c-3.2-10.8-8.5-22.7-8.5-22.7s2.2,10.5,3.2,17.9
			c1,7.4,10.6,31.5,10.6,31.5s-8.5-8.9-11.8-12.4c-3.3-3.5-14.9-15.2-17.6-17.2c-2.7-2-7-5.4-7-5.4s5.6,8.9,7.9,12.3
			c2.3,3.4,10.2,13,10.2,13l9.1,9.2c0,0-6.7-2.4-11-4.8c-4.2-2.4-10.5-5.3-10.5-5.3l-14.1-3.7c0,0,8.2,5,10.4,6.8
			c2.2,1.8,15,8.2,15,8.2l13.3,6C50.5,409.4-20,429.9-20,429.9v105h800v-95.4c0,0-48.2-9.9-95.8-17.6
			C678.8,421,674.8,416.2,675,410.7z" />
			<g class="st1">
				<path class="st19"
					d="M385.8,113.5c0,0,5.4-4.2,9,0c0,0-4.8-1.2-9,3.9c-4.2-5.1-9-3.9-9-3.9C380.4,109.3,385.8,113.5,385.8,113.5
				z" />
				<path class="st19"
					d="M350.5,104.5c0,0,2.7-2.1,4.5,0c0,0-2.4-0.6-4.5,1.9c-2.1-2.5-4.5-1.9-4.5-1.9
				C347.8,102.4,350.5,104.5,350.5,104.5z" />
				<path class="st19"
					d="M416.1,80.9c0,0,2.7-2.1,4.5,0c0,0-2.4-0.6-4.5,1.9c-2.1-2.5-4.5-1.9-4.5-1.9
				C413.4,78.8,416.1,80.9,416.1,80.9z" />
				<path class="st19"
					d="M445.9,91c0,0,1.9-1.5,3.2,0c0,0-1.7-0.4-3.2,1.4c-1.5-1.8-3.2-1.4-3.2-1.4C444,89.5,445.9,91,445.9,91z" />
				<path class="st19"
					d="M370.5,86.1c0,0,3.8-2.9,6.3,0c0,0-3.4-0.8-6.3,2.7c-2.9-3.6-6.3-2.7-6.3-2.7
				C366.7,83.1,370.5,86.1,370.5,86.1z" />
				<path class="st19"
					d="M388.5,95.8c0,0,2.7-2.1,4.5,0c0,0-2.4-0.6-4.5,1.9c-2.1-2.5-4.5-1.9-4.5-1.9
				C385.8,93.7,388.5,95.8,388.5,95.8z" />
				<path class="st19"
					d="M355,126.4c0,0,1.3-1,2.2,0c0,0-1.2-0.3-2.2,1c-1-1.3-2.2-1-2.2-1C353.7,125.4,355,126.4,355,126.4z" />
				<path class="st19"
					d="M331.2,138.5c0,0,1.3-1,2.2,0c0,0-1.2-0.3-2.2,1c-1-1.3-2.2-1-2.2-1C329.9,137.4,331.2,138.5,331.2,138.5z" />
			</g>
			<radialGradient id="SVGID_14_"
				cx="246.5"
				cy="210.8062"
				r="322.3218"
				gradientUnits="userSpaceOnUse">
				<stop offset="0"
					style="stop-color:#FFFFFF" />
				<stop offset="1"
					style="stop-color:#FFFFFF;stop-opacity:0" />
			</radialGradient>
			<circle class="st20"
				cx="246.5"
				cy="210.8"
				r="322.3" />
		</g>
	</g>
</svg>
