<?xml version="1.0" encoding="utf-8"?>
<!-- Generator: Adobe Illustrator 25.0.1, SVG Export Plug-In . SVG Version: 6.00 Build 0)  -->
<svg version="1.1" xmlns="http://www.w3.org/2000/svg" xmlns:xlink="http://www.w3.org/1999/xlink" x="0px" y="0px"
	 viewBox="0 0 750 500" style="enable-background:new 0 0 750 500;" xml:space="preserve">
<style type="text/css">
	.st0{fill:#34E8FF;}
	.st1{fill:#6FEEFE;}
	.st2{fill:#61E6F9;}
	.st3{fill:#49DAF1;}
	.st4{fill:#44D8EF;}
	.st5{fill:#36D0EA;}
	.st6{opacity:0.15;fill:#FFFFFF;}
	.st7{opacity:0.2;fill:#FFFFFF;}
	.st8{fill:url(#XMLID_60_);}
	.st9{fill:#D7EDF8;}
	.st10{fill:url(#XMLID_61_);}
	.st11{fill:#0B580A;}
	.st12{fill:#39530A;}
	.st13{fill:#5A961C;}
	.st14{fill:#4D801B;}
	.st15{fill:#64A61E;}
	.st16{fill:#51841B;}
	.st17{fill:#72B124;}
	.st18{fill:#9BD135;}
	.st19{fill:#3F710E;}
	.st20{fill:#3F7619;}
	.st21{fill:#467E1A;}
	.st22{fill:#386C10;}
	.st23{fill:#0F5614;}
	.st24{fill:#87BB2B;}
	.st25{fill:#71B122;}
	.st26{fill:#AFEA44;}
	.st27{fill:url(#XMLID_62_);}
	.st28{fill:#9EDB3E;}
	.st29{fill:#5D991D;}
	.st30{fill:url(#XMLID_63_);}
	.st31{fill:url(#XMLID_64_);}
	.st32{fill:#73A92F;}
	.st33{fill:#E6D100;}
	.st34{fill:#D4B000;}
	.st35{fill:#4E8214;}
	.st36{fill:#2D5E03;}
	.st37{fill:#97CE35;}
	.st38{fill:#A7E13F;}
	.st39{fill:#B44C49;}
	.st40{fill:#F7F7F7;}
	.st41{fill:#9C4240;}
	.st42{fill:#E5E5E5;}
	.st43{fill:#C9C9C9;}
	.st44{fill:#B2B2B2;}
	.st45{fill:#6D2E2E;}
	.st46{fill:none;stroke:#6D2E2E;stroke-linecap:round;stroke-linejoin:round;stroke-miterlimit:10;}
	.st47{fill:none;stroke:#6D2E2E;stroke-miterlimit:10;}
	.st48{fill:#FFFFFF;}
	.st49{fill:#F5FBFD;}
	.st50{fill:url(#XMLID_65_);}
	.st51{fill:url(#XMLID_66_);}
	.st52{fill:url(#XMLID_67_);}
	.st53{fill:url(#XMLID_68_);}
</style>
<g id="Background">
</g>
<g id="objects">
	<g id="XMLID_968_">
		<g id="XMLID_140_">
			<rect id="XMLID_159_" class="st0" width="750" height="500"/>
			<path id="XMLID_428_" class="st1" d="M0,263.8v58.5h750v-98.5v-18.6C750,205.2,355.9,200.7,0,263.8z"/>
			<path id="XMLID_401_" class="st2" d="M0,173.5c266.9-26.9,750-25,750-25v9.7c0,0-8.8,42.1-21.8,42.3c-22.3,0.3-324,0.9-346,1.5
				C347.6,203,0,203.3,0,203.3V173.5"/>
			<path id="XMLID_165_" class="st3" d="M0,104.7c178-23,750-21.4,750-21.4v11.4v37.4c-44.6,0.8-335.2,1.7-379.2,3.3
				C301.5,137.9,0,138.6,0,138.6V104.7"/>
			<path id="XMLID_147_" class="st4" d="M0,49c89-15.8,750-14.6,750-14.6v14.1L0,89.4V49"/>
			<path id="XMLID_141_" class="st5" d="M0,0h750v12.6c0,0-263.3,5.9-402,12.8C209.3,32.4,0,34.3,0,34.3V0"/>
		</g>
		<g id="XMLID_421_">
			<polygon id="XMLID_423_" class="st6" points="720.8,0 595.9,316.7 502.9,316.7 669.4,0 			"/>
			<polygon id="XMLID_460_" class="st6" points="613.2,0 468.2,316.7 280.5,316.7 454.7,0 			"/>
			<polygon id="XMLID_435_" class="st7" points="579.5,0 436.3,316.7 379.4,316.7 548.7,0 			"/>
			<polygon id="XMLID_438_" class="st7" points="510.1,0 345.7,316.7 317.4,316.7 494.4,0 			"/>
			<polygon id="XMLID_425_" class="st6" points="370,0 208.3,316.7 159.3,316.7 345.6,0 			"/>
			<polygon id="XMLID_433_" class="st6" points="199.6,0 23.2,316.7 0,316.7 0,216.5 141.4,0 			"/>
		</g>
		<g id="XMLID_951_">
			<g id="XMLID_139_">
				<linearGradient id="XMLID_60_" gradientUnits="userSpaceOnUse" x1="83.9105" y1="140.6292" x2="132.2105" y2="226.4253">
					<stop  offset="0" style="stop-color:#58CEE8"/>
					<stop  offset="1" style="stop-color:#45A4D4"/>
				</linearGradient>
				<path id="XMLID_427_" class="st8" d="M1.1,195.8l1.6-1.8c1.7-2,4.8-2.1,6.6-0.3l0,0c1.8,1.8,4.8,1.7,6.5-0.2L43.5,163
					c1.7-1.8,4.5-2,6.3-0.3l23.3,21c1.2,1.1,2.9,1.4,4.4,0.9l5.5-1.8c1.5-0.5,3.1-0.2,4.3,0.8l13.6,11.1c1.6,1.3,4,1.4,5.7,0
					l10.6-8.5c1.7-1.4,4.1-1.3,5.8,0.1l35,30.5c1.7,1.5,4.3,1.5,6,0l26.9-24.2c1.9-1.7,4.8-1.5,6.4,0.4l17.8,20.5
					c1.4,1.6,3.8,2,5.7,0.9l6.8-3.9c1.6-0.9,3.5-0.8,5,0.3l94.7,71.3H0v-83.6C0,197.6,0.4,196.6,1.1,195.8z"/>
				<path id="XMLID_440_" class="st9" d="M14.7,208.3l-3.8-3.8c0,0,7.2,0.4,8-1.9c0.8-2.3,0-5.7,0-5.7l25.4-6.4l-12.2-3
					c0,0,8-8,9.5-12.5c1.3-3.9,2.1-11.9,4.2-13.3c-0.8,0.2-1.6,0.7-2.2,1.3l-27.7,30.5c-1.7,1.9-4.7,2-6.5,0.2
					c-1.9-1.9-4.9-1.7-6.6,0.3l-1.6,1.8c-0.7,0.8-1.1,1.9-1.1,2.9v19.1l3.3-9.5H14.7z"/>
				<path id="XMLID_443_" class="st9" d="M83.2,189.7c3.3-0.4,0-4.2,0-4.2l4.2-2c-1.2-1-2.8-1.3-4.3-0.8l-5.5,1.8
					c-1.3,0.4-2.7,0.2-3.9-0.5l4.7,3.6v5.4C78.4,193,79.9,190.2,83.2,189.7z"/>
				<g id="XMLID_437_">
					<path id="XMLID_446_" class="st9" d="M121,210.5c0,0-5.1-10-5.5-12.9c-0.4-2.9,5.5,0,5.5,0L119,193c0,0,0.9-9.4,5.7-5.3l0,0
						l-1.6-1.4c-1.6-1.4-4.1-1.5-5.8-0.1l-10.6,8.5c-1.5,1.2-3.6,1.3-5.2,0.3L121,210.5z"/>
					<polygon id="XMLID_448_" class="st9" points="99,193 99,193 99,193 					"/>
				</g>
				<path id="XMLID_452_" class="st9" d="M186.9,238.4l10.2-2.9l-13.9-5.5c0,0,16.7-7.8,20.8-9.5c4.1-1.7-24.1,0-24.1,0
					s8.4-2.7,7.1-4.1c-1.4-1.4-6.9-4-6.9-4l11.6-7c0,0-4.1-2-2-5.5c1.9-3.2,4.5-9.4,7.2-7.4c-1.7-1.4-4.2-1.4-5.9,0.1L164,216.9
					c-1.3,1.1-3,1.4-4.5,0.9L186.9,238.4z"/>
				<path id="XMLID_455_" class="st9" d="M221.4,217.1c0,0-2.7,3.1-2.7,3.6c0,0.5,6.8-1.1,8.6-1.8c1.8-0.7,1-3.6,1.9-4.5
					c0.8-0.9,1.2-5.2,5.5-2l-2-1.5c-1.4-1.1-3.4-1.2-5-0.3l-6.8,3.9c-0.3,0.2-0.6,0.3-1,0.4l0,0c0,0,0,0-0.1,0
					c-0.5,0.1-1,0.2-1.6,0.2c-1.8,0.2-3.8,0.5-3.2,1.2C216,217.2,221.4,217.1,221.4,217.1z"/>
			</g>
			<g id="XMLID_137_">
				<linearGradient id="XMLID_61_" gradientUnits="userSpaceOnUse" x1="595.5662" y1="218.1256" x2="615.7296" y2="268.0035">
					<stop  offset="0" style="stop-color:#58CEE8"/>
					<stop  offset="1" style="stop-color:#45A4D4"/>
				</linearGradient>
				<path id="XMLID_138_" class="st10" d="M748.7,185.9l-15.2-14c-1.5-1.4-3.9-1.4-5.4,0.1l-44.9,44.4c-1.7,1.7-4.4,1.5-5.9-0.4
					l-8.9-11.4c-1.4-1.8-4.1-2-5.8-0.5l0,0c-1.6,1.5-4.2,1.4-5.6-0.3l-8.3-9.4c-1.4-1.6-3.9-1.8-5.5-0.4l-35.8,30.3
					c-1.5,1.3-3.8,1.2-5.2-0.1l-6-5.5c-1.4-1.3-3.5-1.4-5-0.3l-122.5,90.4c-3.1,2.2-1.5,7.1,2.3,7.1h274.9c2.2,0,3.9-1.8,3.9-3.9
					V188.8C750,187.7,749.5,186.7,748.7,185.9z"/>
				<path id="XMLID_152_" class="st9" d="M733.5,171.9c-1.5-1.4-3.9-1.4-5.4,0.1l-44.9,44.4c-0.6,0.6-3.1,3.1-3.1,3.1L664.5,234
					c0,0,20.6-9.2,28.1-11.4c7.1-2.1,22.1-5.6,20.5-6.1c-1.6-0.6-8.1-2.9-8.1-2.9s8-0.8,8.2-2.9c0.1-2.1-4-4.9-4-4.9
					s16.9-2.1,19.5-3.4c2.6-1.3-12.2-3.9-12.5-7c-0.3-3.1,15.9-6.5,14.6-10.9c-1.3-4.4-0.4-7.3,0.1-9.6c0.4-2.3,1.1-4.5,6,0
					L733.5,171.9z"/>
				<path id="XMLID_146_" class="st9" d="M511.5,284.8c0,0,57.4,7.3,58.2,7.6c0.8,0.3,12.5-30.5,12.5-38.2c0-7.7-10.4-2.7-10.4-5.4
					s-5.7,0.2-5.7-1c0-1.1,16.6-5.2,16.6-5.2s-8.1-0.4-9.9,0c-1.8,0.4,2.9-3.5,15.3-8.5c12.4-5,6.7-7.1,6.7-7.1s-4.8,0.5-3.5-1.7
					c1.3-2.1,4.7-7,7.1-4.7v0l-1.9-1.8c-1.4-1.3-3.5-1.4-5-0.3l-81.9,60.4L511.5,284.8z"/>
			</g>
			<path id="XMLID_424_" class="st11" d="M597.1,294.5c-12,1.6-24.2,2.6-36.3,1.9c-5.7-0.3-11.2-1.1-16.8-2.2c-5.2-1-9.7-2.9-14.6-5
				c-5.1-2.1-11.4-2.6-16.7-4.2c-11-3.2-21.7-7.5-31.2-14c-2.6-1.8-6.2-4.4-7.1-7.7c-0.8-2.9,2.4-5.9,5-6.9c3.4-1.3,8,0.4,8.8,4
				c0.7-1.7,3.8-1.4,4.2,0.4c1-0.7,2.6,0.2,2.5,1.4c0.1-1.4,2.1-2.1,3.1-1.1c-1.2-1.2-1.4-3.3-0.4-4.6c1-1.3,3.1-1.8,4.5-1
				c0.9-2.2,3.1-3.8,5.5-4c2.4-0.1,4.8,1.3,5.9,3.5c-0.8-1.1-0.5-2.8,0.6-3.6s2.8-0.5,3.5,0.7c-0.4-1.7,0.7-3.7,2.4-4.3
				c1.7-0.6,3.7,0.3,4.5,2c0.5-3.1,1.1-6.5,3.5-8.6c2.4-2.1,7.1-1.3,7.6,1.8c0.7-1.2,1.9-2.3,3.4-2.2c1.4,0,2.7,1.5,2.2,2.8
				c1.3-1.1,3.5-1,4.6,0.2c1.2,1.2,1.2,3.4,0,4.6c1.2-0.5,2.7-0.1,3.4,1c0.7,1,0.6,2.6-0.3,3.5c0.3-0.9,1.3-1.4,2.1-1.2
				c0.9,0.2,1.4,1.2,1.2,2.1c0.5-1.9,2.7-3.3,4.7-2.8c2,0.4,3.4,2.6,3,4.6c0.1-1.2,1.2-2.1,2.4-2.2c1.2,0,2.3,0.9,2.4,2.1
				c-0.2-1.9,1.6-3.8,3.5-3.8c2,0,3.7,1.9,3.5,3.9c1.1-1.2,3.5-0.6,3.9,1c0.4-3.1,3.5-5.7,6.7-5.4c3.2,0.3,5.8,3.3,5.6,6.5
				c1.6-1.5,4.8,0.1,4.5,2.3c0.4-2.1,2.8-3.5,4.8-2.9c2,0.7,3.1,3.3,2.2,5.2c1.3-0.7,3.1,0.4,3.2,1.8c0.8-2,4.5-1,4.3,1.1
				c0.2-1.7,1.7-3.1,3.4-3.1c1.7,0,3.3,1.3,3.5,3c0.3-2,1.8-3.8,3.8-4.3c2-0.5,4.2,0.2,5.4,1.8c-0.6-0.6,0.3-1.5,1.1-1.8
				c3.7-1.1,7.9,1,9.8,4.4c1.9,3.4,1.6,7.7,0,11.2c-1.6,3.5-4.5,6.3-7.7,8.6C617.8,291.1,607.3,293.1,597.1,294.5z"/>
			<path id="XMLID_420_" class="st12" d="M272.6,281.4c3.3-1.8,6.8-4.4,7.1-8.1c0.2-2.4-1.1-4.8-3.1-5.9c-2.1-1.1-4.8-0.9-6.7,0.5
				c-1-2.5-5-3.1-6.7-0.9c1-2.6-0.8-6-3.6-6.5c-2.8-0.6-5.8,1.8-5.9,4.6c-0.3-1.7-1.8-3.1-3.5-3.3c-1.7-0.1-3.4,1-4,2.7
				c-0.3-1.5-0.6-3.1-1.8-4.1c-1.1-1-3.3-1-3.9,0.4c0.2-1.6-0.6-3.3-2-4.1c-1.4-0.8-3.3-0.5-4.5,0.6c2.5-2.9,0.2-8.3-3.7-8.4
				c-3.8-0.1-6.5,5.2-4.1,8.2c-1.1-1.7-4-1.9-5.3-0.3c0,0.6,0.1,1.2,0.1,1.8c-0.6-1.4-2.6-1.9-3.8-1c-1.2,0.9-1.3,2.9-0.2,3.9
				c-0.8-2.1-3.8-3.1-5.7-1.8c0.6-1.6,0.7-3.6-0.3-5c-1-1.4-3.5-1.8-4.5-0.4c0.4-0.9-0.7-1.8-1.7-1.7c-1,0.1-1.7,0.8-2.4,1.5
				c0.7-1.7-1.5-3.5-3.2-2.8c-1.7,0.7-2.3,2.9-1.6,4.6c-1.4-1.5-4.2-1.5-5.5,0.2c0.3-1.6-2.1-2.8-3.5-1.9c-1.4,0.9-1.7,2.9-1.3,4.5
				c-1.8-1.5-4.6-1.7-6.5-0.4c-1.9,1.3-2.8,4-2,6.2c1.2,3.4,5.3,3.7,8.5,5.2c9.1,4.4,18.4,8.5,27.8,12c9.4,3.6,18.1,8.7,28.5,8.5
				C253.8,290.1,263.7,286.4,272.6,281.4z"/>
			<path id="XMLID_426_" class="st11" d="M56.3,265.7c-1-2.9-2.4-5.8-2.1-8.9c0.2-1.9,1-3.7,1.1-5.6c0.1-2-0.7-3.7-2.4-4.7
				c-0.8-0.4-1.6-0.7-2.5-0.8c-0.2,0-2.4,0-2.4,0.4c0-0.8-0.6-1.6-1.3-2c-0.7-0.4-1.6-0.5-2.4-0.4c-1.4,0.1-2.7,0.7-3.7,1.6
				c-0.2-0.8-1-1.2-1.8-1.1s-1.5,0.5-2.1,1c0.5-0.9-0.3-2.2-1.3-2.4c-1-0.2-2.1,0.3-2.8,1.1c0.2-1.3-0.1-2.7-0.8-3.7
				c-0.9-1.3-2.1-1.4-3.6-1.4c-1.4,0-2.7,0.2-3.9,0.8c-1.2,0.7-2.1,1.9-2,3.3c0.1-1.3-1.4-2.3-2.7-2.2c-1.3,0.2-2.4,1.1-3.4,2
				c0.4-1.3-0.8-2.7-2.1-3.1s-2.7,0-4.1,0.4c0.4-1.1,0.9-2.3,0.9-3.5c0-1.2-0.6-2.5-1.7-3c1.8-0.7,2.7-3.1,1.8-4.8
				c-0.8-1.5-3.1-2.3-4.8-1.8c-1.6,0.5-2.1,1.8-3,3.1c-0.8,1.2-3,0-3,0v85.9l3.9-1.6c19.6-4,38.7-10.5,57-18.4
				C58.3,286,59.6,275.3,56.3,265.7z"/>
			<g id="XMLID_251_">
				<path id="XMLID_386_" class="st13" d="M0,293.3c42,3.4,196.6-2.3,248.4-13.8c51.8-11.5,102.3-30.8,164.9-27.8
					c66.6,3.2,211.2,53.3,235.8,65.7H0V293.3z"/>
				<path id="XMLID_240_" class="st14" d="M287.6,262.2C287.7,262.2,287.7,262.2,287.6,262.2c-0.4,0.1-0.9,0.2-1.2,0.6
					c-0.4,0.5-0.1,1.3,0.5,1.5c-0.5,0-0.9,0.4-0.9,0.9c0,0.5,0.5,0.9,1,0.8c-0.4-0.1-0.8,0.2-0.9,0.7c0,0.4,0.4,0.8,0.8,0.8
					c-0.6-0.1-1.3,0.1-1.8,0.5c-0.5,0.4-0.8,1.1-0.6,1.7c0.2,0.7,0.9,0.9,1.5,0.9c-0.3,0.6-0.4,1.3-0.1,1.9c0.3,0.6,1.1,0.9,1.6,0.5
					c-0.4,0.3-0.4,1-0.1,1.4c0.3,0.4,0.9,0.5,1.4,0.2c0.3-0.2,0.5-0.4,0.8-0.5c0.4-0.1,0.8,0.2,1.3,0.4c1.1,0.4,2.4-0.1,2.8-1.2
					c0.7,1,2.5,1,3.1,0c0.7-1-0.3-2.7-1.5-2.5c0.3-0.5,0.9-1.3,0.6-2c-0.3-0.4-0.9-0.6-1.3-0.3c0.2-0.5,0-1.2-0.5-1.4
					c0.4-0.1,0.8-0.4,0.9-0.8c0.1-0.4-0.2-0.9-0.7-0.9c0.5-0.4,1.1-1,1-1.7c-0.1-0.5-0.5-0.9-1-1c-0.5-0.1-1-0.1-1.5,0.1
					c0.2-0.7-0.2-1.5-0.8-1.7c0.4-0.3,0.9-0.8,0.7-1.2c-0.1-0.3-0.6-0.5-0.9-0.5c0.4-0.2,0.5-0.7,0.4-1.1c-0.2-0.4-0.6-0.6-1-0.5
					c0.3-0.7-0.4-2.4-1.4-1.9c-0.3,0.1-0.4,0.5-0.4,0.9c0,0.4,0,0.8,0.2,1.2c-0.3-0.3-0.7-0.2-1,0c-0.3,0.3-0.3,0.7-0.1,1
					c0.2,0.3,0.5,0.5,0.9,0.6c-0.4,0.2-0.9,0.2-1.4,0.4c-0.4,0.2-1,0.7-1,1.2C286.8,261.4,287.2,261.9,287.6,262.2z"/>
				<path id="XMLID_398_" class="st15" d="M312.6,279.5c15.8,6.8,57.7-1.3,71.6-3.9c14-2.6-4.9,6.4,1.2,10.3
					c6,3.9,43.5-12.1,67.3-15.1c23.7-3,54.2-1.2,54.5-1.1c-35.2-9.5-69.7-16.8-93.9-17.9c-28.1-1.3-53.7,1.8-78.1,6.7
					C312.5,267.1,296.8,272.7,312.6,279.5z"/>
				<path id="XMLID_396_" class="st16" d="M542.8,279.8c-43.5,13.4-87.5,27.2-138.3,27.2c-50.1,0-112.7-9.7-146.6-29.7l0,0
					c-3.2,0.8-6.3,1.5-9.5,2.2C196.6,291,42,296.7,0,293.3v24h649.1C636.5,311,592,294.6,542.8,279.8z"/>
			</g>
			<g id="XMLID_252_">
				<path id="XMLID_383_" class="st15" d="M0,261.5c0,0,41.8-18.5,88-18.4c46.3,0.1,88.6,11.7,124.5,28
					c35.9,16.3,93.7,41.7,112.4,44.8H0V261.5z"/>
				<path id="XMLID_136_" class="st17" d="M84.8,243.1c-0.6,0-1.1,0-1.7,0c-0.3,0-0.6,0-0.9,0c-0.6,0-1.2,0-1.7,0.1
					c-0.3,0-0.5,0-0.8,0c-0.8,0-1.6,0.1-2.4,0.1c-0.1,0-0.1,0-0.2,0c-0.8,0-1.5,0.1-2.3,0.1c-0.3,0-0.5,0-0.8,0.1
					c-0.6,0-1.1,0.1-1.7,0.1c-0.3,0-0.6,0-0.8,0.1c-0.6,0-1.1,0.1-1.7,0.2c-0.2,0-0.5,0-0.7,0.1c-0.8,0.1-1.6,0.2-2.4,0.2
					c-0.1,0-0.2,0-0.3,0c-0.7,0.1-1.4,0.2-2.1,0.2c-0.3,0-0.5,0.1-0.8,0.1c-0.5,0.1-1.1,0.1-1.6,0.2c-0.3,0-0.5,0.1-0.8,0.1
					c-0.6,0.1-1.1,0.2-1.6,0.2c-0.2,0-0.4,0.1-0.7,0.1c-0.8,0.1-1.5,0.2-2.3,0.3c-0.1,0-0.3,0-0.4,0.1c-0.6,0.1-1.3,0.2-1.9,0.3
					c-0.3,0-0.5,0.1-0.8,0.1c-0.5,0.1-1,0.2-1.5,0.3c-0.3,0-0.5,0.1-0.8,0.1c-0.5,0.1-1.1,0.2-1.6,0.3c-0.2,0-0.4,0.1-0.6,0.1
					c-0.7,0.1-1.4,0.3-2.1,0.4c-0.1,0-0.3,0.1-0.4,0.1c-0.6,0.1-1.2,0.2-1.7,0.4c-0.2,0-0.5,0.1-0.7,0.1c-0.5,0.1-1,0.2-1.4,0.3
					c-0.2,0.1-0.5,0.1-0.7,0.2c-0.5,0.1-1,0.2-1.6,0.3c-0.2,0-0.3,0.1-0.5,0.1c-0.7,0.2-1.4,0.3-2,0.5c-0.1,0-0.2,0.1-0.3,0.1
					c-0.5,0.1-1.1,0.3-1.6,0.4c-0.2,0.1-0.4,0.1-0.6,0.2c-0.5,0.1-0.9,0.2-1.4,0.3c-0.2,0-0.4,0.1-0.6,0.1c-0.5,0.1-1,0.3-1.5,0.4
					c-0.1,0-0.2,0.1-0.4,0.1c-0.6,0.2-1.3,0.3-1.9,0.5c-0.1,0-0.2,0-0.2,0.1c-0.5,0.1-1.1,0.3-1.6,0.4c-0.2,0-0.3,0.1-0.5,0.1
					c-0.5,0.1-0.9,0.3-1.3,0.4c-0.2,0-0.3,0.1-0.5,0.1c-0.5,0.2-1,0.3-1.6,0.5c-0.1,0-0.1,0-0.2,0c-0.6,0.2-1.2,0.3-1.7,0.5
					c-0.1,0-0.1,0-0.2,0.1c-0.5,0.2-1,0.3-1.5,0.5c-0.1,0-0.2,0.1-0.3,0.1c-0.4,0.1-0.9,0.3-1.3,0.4c-0.1,0-0.2,0.1-0.3,0.1
					c-1.1,0.3-2.1,0.7-3.1,1c0,0,0,0,0,0c-1.2,3.1,1.9,6,11.2,8.6c32,9,78.5-8.9,97.9-5.7c-2.6-0.3-21.6,6.3-7.3,8.3
					c13.2,1.8,74.7,0.7,153.6,29.8c-20.1-8.4-41.6-18-58.4-25.6c-35.9-16.3-78.2-27.8-124.5-28c-0.8,0-1.7,0-2.5,0
					C85.3,243.1,85,243.1,84.8,243.1z"/>
				<path id="XMLID_198_" class="st13" d="M0,275.5c30.4,13.2,116.3,18.5,142.2,15.3c21.5-2.7-20.9,12.7-20.9,12.7
					s87.3,12.3,203.6,12.3H0V275.5z"/>
				<path id="XMLID_393_" class="st18" d="M165.9,257.4c25.1,7.3,81.7,29.3,82.5,29.6c-12.8-5.6-25.3-11.2-35.9-16
					c-35.9-16.3-78.2-27.8-124.5-28C41.8,243,0,261.5,0,261.5v4.6c0,0,32-12,66.4-17.3C100.9,243.5,140.6,250.1,165.9,257.4z"/>
				<path id="XMLID_384_" class="st19" d="M70.4,256.2c-0.1,0-2-0.4-1.7-0.7c-1.1,1.2-3.2,1.1-4.2-0.2c-0.1-0.1-0.2-0.3-0.3-0.3
					c-0.2-0.1-0.5,0-0.7,0.1c-1,0.3-2-0.8-1.8-1.7c-0.7,0.3-1.6-0.2-1.7-0.9c-0.2-0.7,0.4-1.5,1.2-1.6c-0.5-0.4-0.5-1.2-0.2-1.8
					c0.3-0.6,0.9-0.9,1.5-1.3c-0.6-0.7-1.1-1.7-0.7-2.5c0.5-0.9,1.8-0.9,2.8-0.8c-0.2-0.5-0.3-1.1-0.3-1.6c0.2-0.1,0.3-0.2,0.5-0.3
					c-0.5-0.1-0.8-0.7-0.7-1.2c0.1-0.5,0.7-0.9,1.2-0.7c-0.4-0.4-0.9-0.9-0.9-1.4c-0.2-1.2,1.1-1,1.5-1.8c0.3-0.7-0.2-1.8,0.3-2.4
					c0.3-0.3,0.7-0.5,1.1-0.3c-0.2-0.4-0.5-0.9-0.5-1.3c0-0.5,0.3-1,0.7-1.1c0.5-0.1,0.9,0.4,1.1,0.8c0.2,0.5,0.1,1,0.2,1.5
					c0.4,0,0.9,0,1.3,0c0,0.6-0.2,1.3,0.3,1.7c0.5,0.4,1.3,0.3,1.8,0.8c0.5,0.5,0.7,1.4,0.2,1.9c-0.2,0.2-0.4,0.3-0.5,0.5
					c-0.3,0.6,0.7,1.2,0.7,1.9c0.1,0.6-0.5,1.2-0.2,1.7c0.1,0.2,0.3,0.3,0.5,0.4c0.5,0.2,1,0.5,1.5,0.7c0.4,0.2,0.8,0.4,0.8,0.8
					c0.1,0.9-1.4,1-1.6,1.8c0.5,0.1,1,0.2,1.4,0.5c0.4,0.3,0.7,0.9,0.5,1.3c-0.1,0.2-0.3,0.4-0.2,0.6c0.1,0.3,0.4,0.3,0.6,0.5
					c0.3,0.4-0.1,0.9-0.6,1.1c-0.4,0.2-1,0.4-1.1,0.8c0.5,0.2,1,0.4,1.3,0.7c0.4,0.3,0.6,0.8,0.6,1.3c-0.1,0.7-0.7,0.8-1.2,1.2
					c-0.4,0.4-0.6,1-1.1,1.4C72.8,256.8,71.4,256.2,70.4,256.2z"/>
				<path id="XMLID_385_" class="st18" d="M88.5,259.7C88.5,259.8,88.6,259.8,88.5,259.7c-0.4,0.1-0.9,0.2-1.2,0.6
					c-0.4,0.5-0.1,1.3,0.5,1.5c-0.5,0-0.9,0.4-0.9,0.9c0,0.5,0.5,0.9,1,0.8c-0.4-0.1-0.8,0.2-0.9,0.7c0,0.4,0.4,0.8,0.8,0.8
					c-0.6-0.1-1.3,0.1-1.8,0.5c-0.5,0.4-0.8,1.1-0.6,1.7c0.2,0.7,0.9,0.9,1.5,0.9c-0.3,0.6-0.4,1.3-0.1,1.9c0.3,0.6,1.1,0.9,1.6,0.5
					c-0.4,0.3-0.4,1-0.1,1.4c0.3,0.4,0.9,0.5,1.4,0.2c0.3-0.2,0.5-0.4,0.8-0.5c0.4-0.1,0.8,0.2,1.3,0.4c1.1,0.4,2.4-0.1,2.8-1.2
					c0.7,1,2.5,1,3.1,0c0.7-1-0.3-2.7-1.5-2.5c0.3-0.5,0.9-1.3,0.6-2c-0.3-0.4-0.9-0.6-1.3-0.3c0.2-0.5,0-1.2-0.5-1.4
					c0.4-0.1,0.8-0.4,0.9-0.8c0.1-0.4-0.2-0.9-0.7-0.9c0.5-0.4,1.1-1,1-1.7c-0.1-0.5-0.5-0.9-1-1c-0.5-0.1-1-0.1-1.5,0.1
					c0.2-0.7-0.2-1.5-0.8-1.7c0.4-0.3,0.9-0.8,0.7-1.2c-0.1-0.3-0.6-0.5-0.9-0.5c0.4-0.2,0.5-0.7,0.4-1.1c-0.2-0.4-0.6-0.6-1-0.5
					c0.3-0.7-0.4-2.4-1.4-1.9c-0.3,0.1-0.4,0.5-0.4,0.9c0,0.4,0,0.8,0.2,1.2c-0.3-0.3-0.7-0.2-1,0c-0.3,0.3-0.3,0.7-0.1,1
					c0.2,0.3,0.5,0.5,0.9,0.6c-0.4,0.2-0.9,0.2-1.4,0.4c-0.4,0.2-1,0.7-1,1.2C87.6,259,88.1,259.4,88.5,259.7z"/>
			</g>
			<g id="XMLID_250_">
				<path id="XMLID_388_" class="st20" d="M750,315.9v-77.4c-37-4.4-69.6,5.9-109.5,23c-55.2,23.7-104.1,54.4-152.7,54.4H750z"/>
				<path id="XMLID_133_" class="st21" d="M640.5,261.5c-21,9-41.1,19-60.6,28l0,0c0,0,10.4-4.2,30.9-7.2c20.5-3,41.9-5.6,38.3-10
					c-3.6-4.4,7.2-3.5,29.3-1.9c18.9,1.4,52.9-5.9,71.6-17.4v-14.5C713,234.1,680.4,244.3,640.5,261.5z"/>
				<path id="XMLID_327_" class="st22" d="M750,268.2c-48.7,17.4-108.3,13.6-103.6,19.1s30.8,13.2,21.4,17.1
					c-9.4,3.9-40.4,11.5-79.8,11.5H750V268.2z"/>
				<path id="XMLID_394_" class="st15" d="M640.5,261.5c-0.9,0.4-1.8,0.8-2.7,1.2c1-0.4,33.3-11.2,51.5-15.8
					c18.5-4.7,46.7-6.6,60.7-3.7v-4.7C713,234.1,680.4,244.3,640.5,261.5z"/>
				<g id="XMLID_199_">
					<path id="XMLID_243_" class="st23" d="M650,268.3c-0.1,0-2-0.4-1.7-0.7c-1.1,1.2-3.2,1.1-4.2-0.2c-0.1-0.1-0.2-0.3-0.3-0.3
						c-0.2-0.1-0.5,0-0.7,0.1c-1,0.3-2-0.8-1.8-1.7c-0.7,0.3-1.6-0.2-1.7-0.9c-0.2-0.7,0.4-1.5,1.2-1.6c-0.5-0.4-0.5-1.2-0.2-1.8
						c0.3-0.6,0.9-0.9,1.5-1.3c-0.6-0.7-1.1-1.7-0.7-2.5c0.5-0.9,1.8-0.9,2.8-0.8c-0.2-0.5-0.3-1.1-0.3-1.6c0.2-0.1,0.3-0.2,0.5-0.3
						c-0.5-0.1-0.8-0.7-0.7-1.2c0.1-0.5,0.7-0.9,1.2-0.7c-0.4-0.4-0.9-0.9-0.9-1.4c-0.2-1.2,1.1-1,1.5-1.8c0.3-0.7-0.2-1.8,0.3-2.4
						c0.3-0.3,0.7-0.5,1.1-0.3c-0.2-0.4-0.5-0.9-0.5-1.3c0-0.5,0.3-1,0.7-1.1c0.5-0.1,0.9,0.4,1.1,0.8c0.2,0.5,0.1,1,0.2,1.5
						c0.4,0,0.9,0,1.3,0c0,0.6-0.2,1.3,0.3,1.7c0.5,0.4,1.3,0.3,1.8,0.8c0.5,0.5,0.7,1.4,0.2,1.9c-0.2,0.2-0.4,0.3-0.5,0.5
						c-0.3,0.6,0.7,1.2,0.7,1.9c0.1,0.6-0.5,1.2-0.2,1.7c0.1,0.2,0.3,0.3,0.5,0.4c0.5,0.2,1,0.5,1.5,0.7c0.4,0.2,0.8,0.4,0.8,0.8
						c0.1,0.9-1.4,1-1.6,1.8c0.5,0.1,1,0.2,1.4,0.5c0.4,0.3,0.7,0.9,0.5,1.3c-0.1,0.2-0.3,0.4-0.2,0.6c0.1,0.3,0.4,0.3,0.6,0.5
						c0.3,0.4-0.1,0.9-0.6,1.1c-0.4,0.2-1,0.4-1.1,0.8c0.5,0.2,1,0.4,1.3,0.7c0.4,0.3,0.6,0.8,0.6,1.3c-0.1,0.7-0.7,0.8-1.2,1.2
						c-0.4,0.4-0.6,1-1.1,1.4C652.5,269,651.1,268.4,650,268.3z"/>
					<path id="XMLID_242_" class="st15" d="M624.5,270.3C624.6,270.3,624.6,270.3,624.5,270.3c-0.4,0.1-0.9,0.2-1.2,0.6
						c-0.4,0.5-0.1,1.3,0.5,1.5c-0.5,0-0.9,0.4-0.9,0.9c0,0.5,0.5,0.9,1,0.8c-0.4-0.1-0.8,0.2-0.9,0.7c0,0.4,0.4,0.8,0.8,0.8
						c-0.6-0.1-1.3,0.1-1.8,0.5c-0.5,0.4-0.8,1.1-0.6,1.7c0.2,0.7,0.9,0.9,1.5,0.9c-0.3,0.6-0.4,1.3-0.1,1.9
						c0.3,0.6,1.1,0.9,1.6,0.5c-0.4,0.3-0.4,1-0.1,1.4c0.3,0.4,0.9,0.5,1.4,0.2c0.3-0.2,0.5-0.4,0.8-0.5c0.4-0.1,0.8,0.2,1.3,0.4
						c1.1,0.4,2.4-0.1,2.8-1.2c0.7,1,2.5,1,3.1,0c0.7-1-0.3-2.7-1.5-2.5c0.3-0.5,0.9-1.3,0.6-2c-0.3-0.4-0.9-0.6-1.3-0.3
						c0.2-0.5,0-1.2-0.5-1.4c0.4-0.1,0.8-0.4,0.9-0.8c0.1-0.4-0.2-0.9-0.7-0.9c0.5-0.4,1.1-1,1-1.7c-0.1-0.5-0.5-0.9-1-1
						c-0.5-0.1-1-0.1-1.5,0.1c0.2-0.7-0.2-1.5-0.8-1.7c0.4-0.3,0.9-0.8,0.7-1.2c-0.1-0.3-0.6-0.5-0.9-0.5c0.4-0.2,0.5-0.7,0.4-1.1
						c-0.2-0.4-0.6-0.6-1-0.5c0.3-0.7-0.4-2.4-1.4-1.9c-0.3,0.1-0.4,0.5-0.4,0.9c0,0.4,0,0.8,0.2,1.2c-0.3-0.3-0.7-0.2-1,0
						c-0.3,0.3-0.3,0.7-0.1,1c0.2,0.3,0.5,0.5,0.9,0.6c-0.4,0.2-0.9,0.2-1.4,0.4c-0.4,0.2-1,0.7-1,1.2
						C623.7,269.5,624.1,270,624.5,270.3z"/>
				</g>
			</g>
			<g id="XMLID_158_">
				<rect id="XMLID_132_" y="315.9" class="st24" width="750" height="184.1"/>
				<path id="XMLID_131_" class="st25" d="M750,338.7c0,0-270-17.5-483.6,161.3H750V338.7z"/>
				<path id="XMLID_130_" class="st25" d="M0,338.7c0,0,611.4,9.4,735.6,161.3H0V338.7z"/>
				<rect id="XMLID_129_" y="315.9" class="st26" width="750" height="6.2"/>
				<linearGradient id="XMLID_62_" gradientUnits="userSpaceOnUse" x1="375" y1="319.3826" x2="375" y2="412.5376">
					<stop  offset="0" style="stop-color:#87BB2B;stop-opacity:0"/>
					<stop  offset="1" style="stop-color:#4D801B;stop-opacity:0.3"/>
				</linearGradient>
				<rect id="XMLID_239_" y="315.9" class="st27" width="750" height="184.1"/>
			</g>
			<g id="XMLID_119_">
				<path id="XMLID_128_" class="st15" d="M750,424.5c0,0-161.1-52.9-251.9-61.3c-90.8-8.4-191.5,16.8-265.9,36.4
					C157.7,419.3,0,407.1,0,407.1V500h750V424.5z"/>
				<path id="XMLID_151_" class="st28" d="M498.1,363.1c-90.8-8.4-191.5,16.8-265.9,36.4C157.7,419.3,0,407.1,0,407.1v5
					c151.3,6.2,209.4,0.8,264.8-15.8c25.3-7.6,51.4-12.7,78.9-18.7c31.3-6.9,62-10.4,99.7-12.8c75.7-5,153,16.2,212.4,31.5l0,0
					C604.6,382.2,542.8,367.3,498.1,363.1z"/>
				<path id="XMLID_184_" class="st29" d="M750,424.5c0,0-63.2-15.7-134.7-15.2c-71.5,0.5-94.6,5.6-94.1,0s32.9-14.1,10.8-14.5
					c-22.1-0.4-81.4-6.3-153.2,13C307.1,427.1,261.7,469.4,0,472.5V500h750V424.5z"/>
				<linearGradient id="XMLID_63_" gradientUnits="userSpaceOnUse" x1="375" y1="497.1359" x2="375" y2="387.1704">
					<stop  offset="0" style="stop-color:#4D801B;stop-opacity:0.3"/>
					<stop  offset="9.592998e-02" style="stop-color:#52881C;stop-opacity:0.2712"/>
					<stop  offset="0.3546" style="stop-color:#5C991D;stop-opacity:0.1936"/>
					<stop  offset="0.6397" style="stop-color:#62A31E;stop-opacity:0.1081"/>
					<stop  offset="1" style="stop-color:#64A61E;stop-opacity:0"/>
				</linearGradient>
				<path id="XMLID_190_" class="st30" d="M750,424.5c0,0-161.1-52.9-251.9-61.3c-90.8-8.4-191.5,16.8-265.9,36.4
					C157.7,419.3,0,407.1,0,407.1V500h750V424.5z"/>
				<g id="XMLID_179_">
					<g>
						<g id="XMLID_266_">
							<path class="st18" d="M591.7,460.1c-1.5-1.1-3.4-9.5-2-10S593.8,457.7,591.7,460.1z"/>
						</g>
						<path id="XMLID_265_" class="st18" d="M588.1,461.2c0,0,0-2.6-1.6-4.2c-1.6-1.5-3.5-2.1-3.8-1.5c-0.4,0.6,0.6,1.6,1.9,2.7
							C585.8,459.3,588.1,461.2,588.1,461.2z"/>
						<path id="XMLID_264_" class="st18" d="M595.2,460.1c0,0-0.2-2.2,0.8-3.8c1-1.6,2.7-2,2.8-1.2
							C598.9,455.9,596.4,458.4,595.2,460.1z"/>
						<path id="XMLID_263_" class="st18" d="M584.1,461.2c-1.8-1.7-5.4-2.2-6.1-1.1C577.4,461.2,584.1,461.2,584.1,461.2z"/>
					</g>
				</g>
				<g id="XMLID_176_">
					<g>
						<path id="XMLID_230_" class="st18" d="M216.9,404.4c-1.6-1.4-1.7-4.1-1.5-6.1c0.2-2,1.5-4.3,2.4-3.4c0.9,0.9,0.9,3.8,0.7,5.4
							C218.3,401.9,216.9,404.4,216.9,404.4z"/>
						<path id="XMLID_229_" class="st18" d="M215.3,404.4c0,0-0.5-2.2-2.1-3.5c-1.6-1.4-3.8-1.1-3.4,0
							C210.3,402,214.1,403.2,215.3,404.4z"/>
					</g>
				</g>
				<g id="XMLID_323_">
					<g>
						<path id="XMLID_227_" class="st18" d="M411.7,448c-1.6-1.4-1.7-4.1-1.5-6.1c0.2-2,1.5-4.3,2.4-3.4c0.9,0.9,0.9,3.8,0.7,5.4
							C413,445.5,411.7,448,411.7,448z"/>
						<path id="XMLID_226_" class="st18" d="M410.1,448c0,0-0.5-2.2-2.1-3.5c-1.6-1.4-3.8-1.1-3.4,0
							C405.1,445.6,408.9,446.9,410.1,448z"/>
					</g>
				</g>
				<g id="XMLID_124_">
					<g>
						<path id="XMLID_254_" class="st18" d="M441.7,390c0,0-1.9-2.1-2.4-4.7s0.6-5.1,1.2-5.1c0.5,0,1.7,2.3,1.8,4.9
							C442.5,387.7,441.7,390,441.7,390z"/>
						<path id="XMLID_253_" class="st18" d="M440.8,390c0,0-0.5-1.6-2.7-2.9c-2.2-1.3-4.1-1.3-4.1-0.4
							C434,387.6,440.8,390,440.8,390z"/>
						<path id="XMLID_249_" class="st18" d="M445.3,389.2c0,0-0.5-1.9,0-3.5c0.5-1.6,1.8-2.3,2-1.4c0.2,0.9-0.1,2-0.7,3
							C445.9,388.2,445.3,389.2,445.3,389.2z"/>
						<path id="XMLID_248_" class="st18" d="M447.3,390.4c0,0,0.9-1.3,2.2-2.2c1.3-0.9,2.5-0.8,3-0.4c0.5,0.5-0.1,1.6-1.7,2.2
							S447.3,390.4,447.3,390.4z"/>
					</g>
				</g>
				<g id="XMLID_120_">
					<g>
						<path id="XMLID_224_" class="st18" d="M576.9,376.8c0,0-0.1-2-1.2-3.7c-1.1-1.7-2.4-1.7-2.8-1.1S576.9,376.8,576.9,376.8z"/>
						<path id="XMLID_223_" class="st18" d="M578.2,376.8c0,0-0.6-3.3,0-6s2.5-4.2,3.3-3.6c0.8,0.6,0.4,3.1-0.5,4.8
							C580,373.6,578.2,376.8,578.2,376.8z"/>
					</g>
				</g>
				<g id="XMLID_340_">
					<g>
						<path id="XMLID_221_" class="st18" d="M309.5,401.2c0,0-0.1-2-1.2-3.7c-1.1-1.7-2.4-1.7-2.8-1.1
							C305.1,396.9,309.5,401.2,309.5,401.2z"/>
						<path id="XMLID_220_" class="st18" d="M310.9,401.2c0,0-0.6-3.3,0-6c0.6-2.7,2.5-4.2,3.3-3.6c0.8,0.6,0.4,3.1-0.5,4.8
							C312.7,398,310.9,401.2,310.9,401.2z"/>
					</g>
				</g>
				<g id="XMLID_339_">
					<g>
						<path id="XMLID_219_" class="st18" d="M417.1,449.3c0,0,1.2-1.6,1.4-3.6c0.2-2-0.8-2.8-1.5-2.6
							C416.2,443.2,417.1,449.3,417.1,449.3z"/>
						<path id="XMLID_218_" class="st18" d="M418.1,450.2c0,0,1.6-3,3.7-4.7c2.2-1.7,4.5-1.8,4.8-0.8s-1.6,2.6-3.4,3.4
							C421.5,448.8,418.1,450.2,418.1,450.2z"/>
					</g>
				</g>
			</g>
			<g id="XMLID_21_">
				<path id="XMLID_54_" class="st14" d="M0,376.8c19,0,70.7,14.8,110.3,30.4c39.6,15.6,123,21.2,183.1,33.9
					c60.1,12.7,200.1,58.9,200.1,58.9H0V376.8z"/>
				<path id="XMLID_53_" class="st19" d="M0,441.5c0,0,40.5,1.2,88.3,7.4c47.8,6.2,116.1,16.5,126.4,25.3s-33.8,12.3-33.8,12.3
					l96.9,13.5H0V441.5z"/>
				<path id="XMLID_51_" class="st18" d="M271.9,440.7c44.9,9,159.5,40.9,221.6,59.3c0,0-140-46.1-200.1-58.9
					c-60.1-12.7-143.5-18.4-183.1-33.9C70.7,391.6,19,376.8,0,376.8v6.3c10.8,0,74.6,17.7,110.7,30.7
					C146,426.4,227,431.7,271.9,440.7z"/>
				<linearGradient id="XMLID_64_" gradientUnits="userSpaceOnUse" x1="200.8203" y1="556.1533" x2="238.9062" y2="458.5146">
					<stop  offset="0" style="stop-color:#3F710E;stop-opacity:0.3"/>
					<stop  offset="5.581397e-02" style="stop-color:#417310;stop-opacity:0.2833"/>
					<stop  offset="0.4727" style="stop-color:#4A7D18;stop-opacity:0.1582"/>
					<stop  offset="1" style="stop-color:#4D801B;stop-opacity:0"/>
				</linearGradient>
				<path id="XMLID_210_" class="st31" d="M0,376.8c19,0,70.7,14.8,110.3,30.4c39.6,15.6,123,21.2,183.1,33.9
					c60.1,12.7,200.1,58.9,200.1,58.9H0V376.8z"/>
				<g id="XMLID_22_">
					<g id="XMLID_42_">
						<path id="XMLID_48_" class="st32" d="M46.7,416c-2.5-1.9-5.6-15.5-3.3-16.3C45.7,398.8,50.3,412,46.7,416z"/>
						<path id="XMLID_49_" class="st32" d="M40.9,417.8c0,0,0-4.3-2.7-6.8c-2.7-2.5-5.6-3.4-6.2-2.4c-0.6,1,1,2.7,3.1,4.4
							C37.1,414.7,40.9,417.8,40.9,417.8z"/>
						<path id="XMLID_59_" class="st32" d="M52.4,416c0,0-0.3-3.5,1.3-6.2c1.6-2.7,4.5-3.4,4.6-2C58.5,409.2,54.5,413.2,52.4,416z"
							/>
						<path id="XMLID_52_" class="st32" d="M34.3,417.8c-3-2.8-8.9-3.6-10-1.8C23.3,417.8,34.3,417.8,34.3,417.8z"/>
					</g>
					<g id="XMLID_156_">
						<path id="XMLID_205_" class="st32" d="M357,489.8c2.5-1.9,5.6-15.5,3.3-16.3C358,472.7,353.5,485.9,357,489.8z"/>
						<path id="XMLID_202_" class="st32" d="M362.9,491.6c0,0,0-4.3,2.7-6.8c2.7-2.5,5.6-3.4,6.2-2.4c0.6,1-1,2.7-3.1,4.4
							C366.6,488.5,362.9,491.6,362.9,491.6z"/>
						<path id="XMLID_201_" class="st32" d="M351.3,489.8c0,0,0.3-3.5-1.3-6.2c-1.6-2.7-4.5-3.4-4.6-2S349.2,487.1,351.3,489.8z"/>
						<path id="XMLID_200_" class="st32" d="M369.4,491.6c3-2.8,8.9-3.6,10-1.8C380.4,491.6,369.4,491.6,369.4,491.6z"/>
					</g>
					<g id="XMLID_32_">
						<path id="XMLID_37_" class="st32" d="M66.4,469.2c-2.7-2.2-2.8-6.7-2.5-10c0.3-3.3,2.4-7,3.9-5.5c1.5,1.5,1.5,6.2,1.2,8.8
							C68.7,465.1,66.4,469.2,66.4,469.2z"/>
						<path id="XMLID_33_" class="st32" d="M63.8,469.2c0,0-0.8-3.6-3.5-5.8c-2.7-2.2-6.2-1.8-5.5,0
							C55.6,465.2,61.9,467.3,63.8,469.2z"/>
					</g>
					<g id="XMLID_26_">
						<path id="XMLID_31_" class="st32" d="M167.4,464.9c0,0-3.1-3.4-3.9-7.7c-0.7-4.3,1-8.3,1.9-8.3c0.9,0,2.8,3.7,3,8
							C168.6,461.2,167.4,464.9,167.4,464.9z"/>
						<path id="XMLID_30_" class="st32" d="M165.9,464.9c0,0-0.9-2.7-4.5-4.8c-3.6-2.1-6.7-2.1-6.7-0.6
							C154.7,461,165.9,464.9,165.9,464.9z"/>
						<path id="XMLID_29_" class="st32" d="M173.2,463.7c0,0-0.7-3.1,0-5.8c0.7-2.7,3-3.7,3.3-2.3c0.3,1.4-0.1,3.2-1.2,4.8
							C174.2,462.1,173.2,463.7,173.2,463.7z"/>
						<path id="XMLID_28_" class="st32" d="M176.5,465.6c0,0,1.5-2.2,3.6-3.7c2.1-1.5,4.2-1.4,4.9-0.6c0.7,0.8-0.1,2.7-2.8,3.6
							C179.6,465.8,176.5,465.6,176.5,465.6z"/>
					</g>
					<g id="XMLID_23_">
						<path id="XMLID_25_" class="st32" d="M276.1,469.2c0,0-0.1-3.3-1.9-6c-1.8-2.7-3.9-2.8-4.6-1.9
							C268.8,462.2,276.1,469.2,276.1,469.2z"/>
						<path id="XMLID_24_" class="st32" d="M278.3,469.2c0,0-1-5.5,0-9.9c1-4.4,4-6.9,5.4-5.9c1.3,0.9,0.6,5-0.9,7.8
							C281.3,464,278.3,469.2,278.3,469.2z"/>
					</g>
				</g>
			</g>
			<g id="XMLID_12_">
				<g id="XMLID_20_">
					<path id="XMLID_34_" class="st19" d="M679,500c-5.7-5.5-8.2-14.6-10.6-29.1c-2.4-14.5-1.2-27.7-12.7-38
						c-11.5-10.2-33.2-21.7-33.2-21.7s34.2,8.7,45,19.5c10.9,10.9,21.3,39.5,22.5,49.2c1.2,9.6,0,20,0,20H679z"/>
					<path id="XMLID_27_" class="st15" d="M653.6,426.4c6.2,4.3,16,10.9,19.5,25.4c3.2,13.1,8.6,41,11.9,48.2h2.8
						c0,0-4.9-17.8-8.6-32.9C675.4,452,674.6,435.8,653.6,426.4z"/>
				</g>
				<g id="XMLID_15_">
					<path id="XMLID_40_" class="st33" d="M669.6,407.9c0.5-1.3-0.5-2.9-1.9-3c0.9-0.2,1.8-0.4,2.5-1c0.7-0.6,0.8-1.8,0.1-2.4
						c-0.3-0.3-0.8-0.3-1.2-0.3c-1,0-2,0.2-2.8,0.6c0.4-0.5,0.9-0.8,1.3-1.2c0.4-0.4,0.7-1.2,0.3-1.6c-0.2-0.2-0.4-0.3-0.6-0.4
						c-0.7-0.3-1.5-0.3-2.2-0.2c0.8-0.5,1.6-1.3,1.4-2.2c-0.2-0.8-1.2-1.2-2.1-1.1c-0.9,0.1-1.7,0.5-2.5,0.6c1.1-0.6,1.5-2,1.1-3.1
						c-0.4-1.1-1.5-1.9-2.7-2.1s-2.4,0.3-3.3,1.1c-0.3,0.3-0.6,0.6-0.9,0.9c0.8-0.6,0.3-1.9-0.6-2.3c-0.9-0.4-1.9-0.1-2.8,0.2
						c1.2-0.5,1.3-2.3,0.4-3.1c-0.9-0.8-2.5-0.7-3.4,0.2c0.8-0.8,0.9-2.3,0.2-3.3c-0.7-1-2-1.4-3.2-1c-1.1,0.4-2,1.4-2.1,2.6
						c-0.2-0.7-0.9-1.2-1.6-1.2c-0.7,0-1.4,0.4-1.7,1.1c0.3-0.6,0.1-1.5-0.5-1.8c-0.6-0.4-1.4-0.2-1.9,0.3c0.3-0.6-0.3-1.4-0.9-1.6
						c-0.7-0.2-1.4,0.1-2,0.4c0.5-0.2,0.5-1,0.1-1.4c-0.4-0.4-1-0.4-1.6-0.3c0.6-0.1,0.7-1,0.3-1.4c-0.4-0.4-1.1-0.5-1.6-0.2
						c-0.5,0.3-0.9,0.8-1.1,1.3c-0.4-0.9-1.7-1.9-2.7-1.9c-1,0-2,0.6-1.8,1.4c0.4,0.7,0.9,1.5,1.6,2c2.5,1.4,5,2.8,7.6,4.2
						c2,1.1,4,2.3,6,3.6c2.5,1.7,4.8,3.7,7.1,5.6c3,2.6,6,5.1,9,7.7c1.5,1.3,3,2.6,4.5,3.9C664.7,408.7,668.7,410.6,669.6,407.9z"/>
					<path id="XMLID_39_" class="st34" d="M664.3,406.7c0.7,0.7,1.9,1.8,1.4,2.5c-0.2,0.3-0.4,0.4-0.7,0.5c-0.4,0.2-0.4,0.1-0.6,0.6
						c-0.2,0.6-0.5,1.2-1.1,1.6c-0.7,0.4-1.9,0-1.9-0.8c-0.9,0.1-1.7-0.6-1.8-1.4c-0.1-0.9,0.5-1.7,1.4-1.9
						c-0.8-0.4-1.3-1.2-1.4-2.1c0,0.2-0.6,0.5-0.7,0.5c-0.4,0.1-0.7,0.1-1-0.2c-0.3-0.3-0.5-0.6-0.6-1c0.2,0.6-1.3,1.1-1.7,1.2
						c-1,0.1-1.9-0.4-2.4-1.3c-0.3,0.5-1,0.8-1.5,0.6c-0.2-0.1-1-1.2-0.8-1.2c-0.5,0.1-1-0.1-1.2-0.5c-0.5-1.1,1.3-3.1,2-3.7
						c-0.7,0.6-2.8,1.8-3.6,0.7c-0.2-0.3-0.1-0.9,0.3-1c-0.4-0.1-0.7-0.2-1-0.4c-0.3-0.2-0.6-0.5-0.6-0.9c0-0.3,0.3-0.6,0.6-0.8
						c0.3-0.1,0.7-0.1,1-0.1c-0.6-0.2-1-1-0.7-1.6c-0.4,0.3-0.9,0.4-1.3,0.2c-0.4-0.2-0.8-0.6-0.9-1c0,0.5,0,1.1,0,1.6
						c0,0.2-0.1,0.5-0.2,0.7c-0.3,0.5-1.8-0.1-1.7-0.3c-0.7,1.1-3,1.6-3.3-0.1c-0.1-0.5,0.2-1,0.6-1.2c-0.3,0.2-0.7,0.1-1-0.1
						s-0.4-0.6-0.4-1c0.1-0.5,0.5-0.8,1-1.1c-0.7,0.2-1.5-0.5-1.5-1.2c0-0.5,0.3-1,0.7-1.3c0.4-0.3,0.8-0.5,1.3-0.7
						c-0.6,0-1.1,0-1.6-0.3c-0.5-0.3-0.9-0.9-0.7-1.4c-0.4,0.6-1.3,1.5-2.1,1.3c-0.5-0.1-0.8-0.9-0.4-1.2c-0.6,0-1.1,0.3-1.5-0.3
						c-0.3-0.3-0.3-2.1,0.2-2.3c-0.9,0.5-2.1-0.1-2.4-1.1c-1,1.1-3,0.7-3.6-0.6c-0.2,0.2-1,0.2-1.2-0.1c-0.1-0.1-0.1-0.3-0.1-0.4
						c0-0.3,0.1-0.7,0.3-1c0.2-0.3,0.6-0.4,0.9-0.5c-0.4,0-0.7-0.2-1-0.4c-0.6-0.5-0.4-1.4,0-1.6c0,0,2.6,1.4,2.8,1.5
						c12.4,6.4,24.1,14.3,33.7,24.4C664.1,406.5,664.2,406.6,664.3,406.7z"/>
					<g id="XMLID_216_">
						<path class="st35" d="M627.5,380.5c0.1-0.1,0.6,0,1.5,0.4c0.9,0.4,2.3,1.1,4,2c3.4,1.7,8.3,4.4,13.8,8.1
							c2.7,1.8,5.6,4,8.6,6.4c1.5,1.2,2.9,2.5,4.4,3.8c0.8,0.7,1.4,1.4,2.2,2.1c0.4,0.4,0.7,0.7,1.1,1.1c0.4,0.4,0.7,0.8,1,1.2
							c2.8,3.1,5.3,6.6,7.5,10.4c2.2,3.8,4.2,7.8,5.7,11.9c1.6,4.2,2.8,8.4,3.8,12.7c1,4.2,1.7,8.5,2.3,12.6c0.1,1,0.3,2,0.4,3.1
							c0.1,1,0.2,2,0.3,3c0.2,2,0.3,3.9,0.5,5.8c0.2,3.8,0.3,7.4,0.4,10.7c0,3.3,0,6.3-0.1,9c-0.1,2.7-0.2,5-0.3,7
							c-0.4,3.8-1.4,6-1.4,6s-0.7-2.3-0.5-6.1c0.1-1.9,0.2-4.2,0.3-6.9c0.1-2.7,0.2-5.7,0.1-9c0-3.3-0.1-6.8-0.3-10.6
							c-0.2-3.7-0.6-7.7-1.1-11.8c-0.5-4.1-1.2-8.2-2.1-12.4c-0.9-4.2-2.1-8.4-3.6-12.5c-1.5-4.1-3.3-8.1-5.4-11.8
							c-2.1-3.7-4.5-7.2-7.2-10.3c-0.3-0.4-0.6-0.8-1-1.1c-0.4-0.4-0.7-0.7-1.1-1.1c-0.7-0.7-1.4-1.5-2.1-2.1
							c-1.4-1.4-2.9-2.6-4.3-3.8c-2.9-2.4-5.7-4.6-8.4-6.4c-5.4-3.7-10.2-6.4-13.6-8.2c-1.7-0.9-3-1.6-4-2
							C627.9,381,627.4,380.7,627.5,380.5L627.5,380.5z"/>
					</g>
				</g>
				<g id="XMLID_10_">
					<path id="XMLID_47_" class="st33" d="M696.7,418.2c0.8-1.6,0.2-3.9-1.5-4.6c0.7,0.3,1.6,0.5,2.3,0.1c0.7-0.4,1-1.5,0.3-1.9
						c0.6,0.4,1.2,0.7,1.8,0.8c0.7,0.1,1.4-0.1,1.7-0.7c0.6-1.1-0.6-2.2-1.6-2.8c1.1,0.2,2.3-0.7,2.5-1.9c0.2-1.1-0.5-2.3-1.5-2.9
						s-2.3-0.6-3.4-0.3c1.1-0.2,2.3-0.8,2.7-1.9c0.4-1.1-0.4-2.5-1.5-2.4c1.9,0.3,3.8-1.5,3.8-3.4c0-1.9-1.6-3.6-3.5-4.1
						c1.1-0.1,1.9-1.3,1.6-2.4c-0.3-1-1.6-1.7-2.6-1.3c1.1-0.9,0.5-2.9-0.8-3.2c2,0.1,4.4-0.7,4.9-2.7c0.3-1.7-1.3-3.4-3-3.1
						c1.1-0.6,1.2-2.3,0.4-3.2c-0.8-0.9-2.3-1.1-3.4-0.6c1.3-0.3,1.5-2.5,0.3-3.1c1.1,0.6,2.7-0.1,2.9-1.4c0.2-1.2-1-2.5-2.3-2.3
						c1.1,0,1.9-1.3,1.7-2.4c-0.2-1.1-1.2-1.9-2.2-2.3c0.8-0.1,1.4-0.8,1.4-1.5c0-0.8-0.6-1.5-1.3-1.6c0.5,0,1,0,1.6,0
						c0.2-0.5,0.2-1.1,0.1-1.6c1.3,0.5,3-0.3,3.3-1.7c0.2-1.4-1.4-2.8-2.7-2.2c0.8-0.7,0.7-2.2-0.2-2.8c0.8-0.1,1.4-0.9,1.3-1.7
						c-0.1-0.8-0.8-1.4-1.6-1.4c-0.7,2.1-1.7,4.4-2.4,6.5c-0.7,2.2-1.5,4.3-2,6.5c-0.9,3.8-1.1,7.8-1.6,11.7
						c-0.6,4.4-1.6,8.7-2.4,13c-1,5.5-1.5,11.1-1.6,16.7c0,2.6-0.3,5.1-0.1,7.7c0.1,2.1,0,5.2,1.3,7
						C691.1,421.6,695.4,420.8,696.7,418.2z"/>
					<path id="XMLID_41_" class="st34" d="M686.5,417.6c-0.6-0.7-0.8-1.7-0.4-2.6c-1.2,0.7-2.9-0.5-2.9-1.9c0-1.4,1.4-2.6,2.8-2.6
						c-0.9,0.2-1.7,0.3-2.6,0.2c-0.9-0.1-1.7-0.6-2-1.4c-0.5-1.4,0.5-2.8,1.5-3.8c-0.9,0.4-2-0.5-2-1.5c0-1,0.8-1.9,1.7-2.2
						c-1.2-0.2-2.1-1.5-2-2.7c0.1-1.2,1.1-2.3,2.3-2.7c1.2-0.4,2.5-0.2,3.6,0.3c-1.1-0.7-0.7-2.8,0.6-3.1c-0.6,0.5-1.6,0.1-1.8-0.7
						c-0.2-0.7,0-1.5,0.5-2.1c-1.4-0.1-2.9-0.5-4-1.4c-1.1-0.9-1.8-2.4-1.6-3.8c0.3-1.4,1.6-2.6,3.1-2.4c1,0.1,1.8,0.9,2.6,1.6
						c-0.9-0.8-0.2-2.7,1-2.6c-1.1-0.2-2-1.3-1.7-2.4c0.3-1.1,1.8-1.6,2.5-0.8c-1.2-0.9-1.8-2.7-1.2-4.1c0.7-1.4,2.7-1.9,3.9-0.9
						c-0.5-0.5-0.8-1.2-0.7-1.9c0.1-0.7,0.9-1.2,1.5-0.9c-1.4-0.4-2.4-2-2.1-3.4c0.2-1.4,1.7-2.6,3.1-2.5c-0.8,0-1.6-0.6-1.8-1.4
						c-0.2-0.8,0.2-1.7,0.9-2.1c-1.6-0.3-2.4-2.4-1.6-3.8c0.8-1.4,2.7-1.9,4.3-1.4c-0.4-0.3-0.3-1,0.1-1.3c0.4-0.3,0.9-0.4,1.4-0.4
						c-1-0.2-1.6-1.4-1.3-2.4c0.4-0.9,1.6-1.4,2.5-0.9c-0.1-0.5-0.2-1-0.1-1.5c0.1-0.5,0.5-1,1-1c0.5,0,1,0.6,0.7,1
						c-1,1.6-1.3,4.2-1.8,6c-0.6,2.3-1.1,4.6-1.5,6.9c-0.9,4.6-1.6,9.3-2.3,13.9c-0.2,1.7-0.5,3.4-0.7,5c-0.4,3-0.9,6-1.3,9
						c-0.4,2.9-0.4,5.7-0.5,8.6c-0.1,4-0.3,8-0.5,12c-0.1,1.9,0,4-0.4,5.9C689.2,418.5,687.5,418.7,686.5,417.6z"/>
					<g id="XMLID_36_">
						<path class="st35" d="M698.9,348.9c0.1,0,0,0.6-0.3,1.7c-0.4,1-0.9,2.5-1.4,4.5c-0.5,2-1.2,4.4-1.7,7.1
							c-0.6,2.8-1.1,5.9-1.6,9.4c-0.5,3.5-0.9,7.2-1.4,11.2c-0.4,4-0.9,8.2-1.3,12.5c-0.8,8.7-1.4,18-1.7,27.3
							c-0.4,9.3-0.5,18.6-0.4,27.4c0,8.7,0.2,16.9,0.5,23.9c0.1,3.5,0.3,6.7,0.4,9.5c0.2,2.8,0.3,5.3,0.4,7.3
							c0.1,4.1-0.5,6.5-0.5,6.5s-1-2.3-1.4-6.3c-0.2-2-0.3-4.5-0.5-7.4c-0.1-2.8-0.3-6.1-0.4-9.6c-0.3-7-0.5-15.2-0.4-23.9
							c0-8.8,0.3-18.1,0.7-27.4c0.5-9.3,1.2-18.6,2.1-27.4c0.5-4.4,1-8.6,1.5-12.5c0.5-4,1-7.7,1.5-11.2c0.5-3.5,1.1-6.6,1.7-9.4
							c0.6-2.8,1.3-5.2,1.8-7.2c0.6-2,1.1-3.5,1.5-4.5C698.5,349.4,698.8,348.9,698.9,348.9L698.9,348.9z"/>
					</g>
				</g>
				<g id="XMLID_8_">
					<path id="XMLID_35_" class="st14" d="M682.9,500c0,0-0.8-14.4,6-34.8c6.9-20.4,27-37,38.1-38.8c0,0-7.9,2.9-13.9,14.4
						s-8.7,19.8-9.1,30c-0.4,10.3-4,20.2-12.5,29.1H682.9z"/>
					<path id="XMLID_38_" class="st15" d="M707.6,441.5c-3.5,3.9-21,26.2-21.6,58.5h2.8c0,0,0.3-9.5,3.7-25
						C696,459.5,701.4,450.2,707.6,441.5z"/>
				</g>
				<g id="XMLID_57_">
					<path id="XMLID_290_" class="st14" d="M642.8,464.9c6.4,8,9.7,14,11.5,22c1.1,4.7,3.1,9.1,6.1,13.1h13.2
						c-1.4-4.7-3.9-11.7-8.4-19.8c-8.4-14.8-26.5-24.7-35.4-24.4C629.8,455.9,636.4,456.9,642.8,464.9z"/>
					<path id="XMLID_281_" class="st15" d="M663.8,488.4c2,4.6,3.5,8.5,4.5,11.6h2.5c-6.6-20.9-20.7-33.1-23.7-35.4
						C653.3,470.5,658.8,476.9,663.8,488.4z"/>
				</g>
				<g id="XMLID_118_">
					<path id="XMLID_273_" class="st19" d="M715.7,464.9c-9.5,6-21.7,24.7-24.2,31.4c-0.4,1.2-0.8,2.5-1.2,3.7h15.1
						c1.1-2,2.1-4.2,3.1-6.6c4.1-9.9,5.4-19.6,15.3-25c9.9-5.4,27.2-10,27.2-10S725.2,459,715.7,464.9z"/>
					<path id="XMLID_269_" class="st15" d="M698.2,500c3.6-7.2,7.5-15.8,10.1-21c4.9-9.7,13-12.8,18.1-14.9
						c-16.5,3.2-19.8,14.6-24.9,24.8c-1.9,3.7-3.9,7.6-5.7,11.1H698.2z"/>
				</g>
			</g>
			<g id="XMLID_44_">
				<g id="XMLID_283_">
					<path id="XMLID_287_" class="st23" d="M74.1,500c0,0-0.8-14.4,6.1-34.8c6.9-20.4,27-37,38.1-38.8c0,0-7.9,2.9-13.9,14.4
						c-6.1,11.5-8.7,19.8-9.1,30c-0.4,10.3-4,20.2-12.5,29.1H74.1z"/>
					<path id="XMLID_284_" class="st14" d="M98.8,441.5c-3.5,3.9-21,26.2-21.6,58.5H80c0,0,0.3-9.5,3.7-25
						C87.2,459.5,92.6,450.2,98.8,441.5z"/>
				</g>
				<g id="XMLID_271_">
					<path id="XMLID_279_" class="st23" d="M34,464.9c6.4,8,9.7,14,11.5,22c1.1,4.7,3.1,9.1,6.1,13.1h13.2
						c-1.4-4.7-3.9-11.7-8.4-19.8C48,465.5,29.9,455.6,21,455.9C21,455.9,27.6,456.9,34,464.9z"/>
					<path id="XMLID_276_" class="st14" d="M55,488.4c2,4.6,3.5,8.5,4.5,11.6h2.5c-6.6-20.9-20.7-33.1-23.7-35.4
						C44.5,470.5,50,476.9,55,488.4z"/>
				</g>
				<g id="XMLID_58_">
					<path id="XMLID_155_" class="st36" d="M106.9,464.9c-9.5,6-21.7,24.7-24.2,31.4c-0.4,1.2-0.8,2.5-1.2,3.7h15.1
						c1.1-2,2.1-4.2,3.1-6.6c4.1-9.9,5.4-19.6,15.3-25c9.9-5.4,27.2-10,27.2-10S116.4,459,106.9,464.9z"/>
					<path id="XMLID_7_" class="st15" d="M89.4,500c3.6-7.2,7.5-15.8,10.1-21c4.9-9.7,13-12.8,18.1-14.9
						c-16.5,3.2-19.8,14.6-24.9,24.8c-1.9,3.7-3.9,7.6-5.7,11.1H89.4z"/>
				</g>
			</g>
			<g id="XMLID_192_">
				<path id="XMLID_277_" class="st37" d="M248.7,363.7c1.3,0,3.5-0.4,2.1-1.9c-1.1-1.1-6.5-0.6-7.7-0.1c0.1-0.7-0.5-1.4-1.2-1.6
					c-0.7-0.1-1.5,0.4-1.6,1.1c-0.4-0.3-0.8-0.5-1.2-0.8c-0.3,0.3-0.6,0.5-0.9,0.8c-1.4-2.4-5.4-2.7-7.1-0.4
					c-0.4-1.1-1.9-1.2-3.1-1.2c-1.4,0-2.8,0-4.1,0.1c-0.5-1.1-1.4-2.1-2.6-2.2c-1.2-0.1-2.4,1.3-1.8,2.3c-1-1.1-2.2-2.2-3.6-2.4
					c-1.5-0.2-3.2,1-2.9,2.4c-1.1-0.7-2.3-1.4-3.6-1.7c-1.3-0.2-2.8,0.1-3.6,1.2c0-2.4-3.2-4-5.1-2.6c-0.3-3-3.7-5.2-6.5-4.2
					s-4.2,4.8-2.7,7.3c-0.4-0.6-1.3-0.8-2-0.4s-0.9,1.2-0.7,1.9c-0.3-1.3-1.5-2.5-2.9-2.5c-1.4,0-2.6,1.5-2.1,2.8
					c-0.8-0.8-1.8-1.7-2.9-1.9c-1.2-0.2-2.6,0.7-2.5,1.8c-0.5-0.6-1-1.3-1.8-1.4c-0.8-0.2-1.7,0.5-1.5,1.2c-0.6-0.4-1.3-0.9-2.1-1
					s-1.7,0.4-1.8,1.2c-1.8-2.3-6.1-1.8-7.3,0.8c-0.6,1.3,8.8,1.4,9.9,1.4c3.4,0,6.7,0,10.1,0c8.7,0,17.4,0,26.1,0
					c12.8,0,25.6,0,38.4,0C248.6,363.7,248.6,363.7,248.7,363.7z"/>
				<path id="XMLID_280_" class="st38" d="M650,348.1c1.3,0,3.5-0.4,2.1-1.9c-1.1-1.1-6.5-0.6-7.7-0.1c0.1-0.7-0.5-1.4-1.2-1.6
					c-0.7-0.1-1.5,0.4-1.6,1.1c-0.4-0.3-0.8-0.5-1.2-0.8c-0.3,0.3-0.6,0.5-0.9,0.8c-1.4-2.4-5.4-2.7-7.1-0.4
					c-0.4-1.1-1.9-1.2-3.1-1.2c-1.4,0-2.8,0-4.1,0.1c-0.5-1.1-1.4-2.1-2.6-2.2c-1.2-0.1-2.4,1.3-1.8,2.3c-1-1.1-2.2-2.2-3.6-2.4
					c-1.5-0.2-3.2,1-2.9,2.4c-1.1-0.7-2.3-1.4-3.6-1.7c-1.3-0.2-2.8,0.1-3.6,1.2c0-2.4-3.2-4-5.1-2.6c-0.3-3-3.7-5.2-6.5-4.2
					c-2.8,0.9-4.2,4.8-2.7,7.3c-0.4-0.6-1.3-0.8-2-0.4c-0.6,0.4-0.9,1.2-0.7,1.9c-0.3-1.3-1.5-2.5-2.9-2.5c-1.4,0-2.6,1.5-2.1,2.8
					c-0.8-0.8-1.8-1.7-2.9-1.9c-1.2-0.2-2.6,0.7-2.5,1.8c-0.5-0.6-1-1.3-1.8-1.4c-0.8-0.2-1.7,0.5-1.5,1.2c-0.6-0.4-1.3-0.9-2.1-1
					c-0.8-0.1-1.7,0.4-1.8,1.2c-1.8-2.3-6.1-1.8-7.3,0.8c-0.6,1.3,8.8,1.4,9.9,1.4c3.4,0,6.7,0,10.1,0c8.7,0,17.4,0,26.1,0
					c12.8,0,25.6,0,38.4,0C649.8,348.1,649.9,348.1,650,348.1z"/>
				<path id="XMLID_278_" class="st37" d="M132.6,347.8c0.5,0,1.5-1.9,1.4-2.3c-0.6-2-3.9-0.1-4.4,0.9c0-1.6-2.5-2.4-3.5-1.2
					c-0.8-0.3-1.6-0.6-2.4-1c-0.4,0.3-0.9,0.7-1.3,1c-0.5-1.3-1.5-2.7-2.9-3c-1.4-0.3-3.1,0.8-2.9,2.2c-0.5-1.1-1.7-1.8-2.9-1.8
					c-1.2,0-2.3,0.9-2.7,2c-0.6-0.8-1.7-1.8-2.6-1.3c-0.4,0.2-0.7,0.8-1.2,0.9c-0.9,0.3-1.5-0.8-2.1-1.5c-1.7-2.1-5.7-1.1-6.2,1.5
					c-0.8-0.6-1.7-1.2-2.7-1.3c-1-0.1-2.2,0.5-2.3,1.5c-0.8-1.4-1.6-3-3.1-3.5c-1.5-0.6-3.6,0.6-3.3,2.2c-0.7-0.6-1.4-1.2-2.3-1.3
					c-0.9-0.2-1.9,0.2-2.1,1.1c-1.3-0.8-3.2,1-2.5,2.3c-0.7-0.8-2.1-0.8-2.8,0.1c-0.4-1.3-0.9-2.7-2.1-3.5c-1.2-0.7-3.1-0.2-3.2,1.2
					c-1.1-1.4-2.8-2.4-4.6-2.2c-1.8,0.1-3.5,1.6-3.4,3.4c-0.6-1.5-3.1-1.7-3.9-0.3c0.4-2-2.3-3.9-4-2.8c0.1-1.2-0.8-2.4-2-2.6
					c-1.2-0.2-2.5,0.5-2.9,1.7c-0.8-1.1-1.7-2.2-2.9-2.8c-1.2-0.6-2.9-0.5-3.7,0.6c-0.8,1.1,0.1,3.1,1.4,2.9c-0.7,0-1.3,0.6-1.3,1.3
					c0,0.7,0.7,1.3,1.4,1.2c-0.2,0.7-0.2,1.4,0,2.1c-1-0.9-2-1.9-3.3-2.2c-1.3-0.3-3,0.4-3.2,1.7c-0.8-0.1-1.5-0.5-2.2-0.9
					c-0.7-0.4-1.6-0.6-2.3-0.3c-0.7,0.3-1.1,1.5-0.4,2c-1.7-1.3-4.1-1.4-5.9-0.4c-2-0.7-4.4,0.2-5.5,2c0-0.1,10.1,0.5,11.3,0.5
					c3.9,0,7.7,0,11.6,0c9.3,0,18.7,0,28,0c16.7,0,33.4,0,50.1,0C127.3,347.8,130,347.8,132.6,347.8z"/>
			</g>
			<g id="XMLID_188_">
				<path id="XMLID_318_" class="st11" d="M493.3,297.3c-5.5-0.5-3.9,4.3-3.9,4.3s-1-0.1-1.3,1c0,0-1.4-1.5-2.7,0
					c-1.3,1.5-0.8,3.6,0.6,4.3c0,0-1.8-0.3-2.7,1.6c0,0-2.3-0.9-3.1,0.4c-0.9,1.3,0.8,2.4,0.8,2.4s-2.1,0.7-1.8,1.9s1,1.1,1,1.1
					s-0.8,1.7,0.7,2.2c0,0-0.7,0.5-0.2,1.4c0,0-0.9-0.5-1.5,0c-0.6,0.5,0,1.9,0,1.9s-1.2,0-1.3,0.9c0,0-0.7-1.8-1.8-1.4
					c-1.1,0.4-1,1.4-1,1.4s-2-3.6-4.7-2.4c0,0-0.8-2.3-3.3-1.5c-2.6,0.8-1.8,2.4-1.8,2.4s-1.4,0.6-1.4,1.5c0,0.9,1,1.4,1,1.4
					s-1.6,0.2-1.9,1.4c0,0-1.2-1.1-2-0.4c-0.8,0.7-0.6,1.8-0.6,1.8s-1.1-0.8-2.7,0c-1.6,0.8-1.5,2.2-1.5,2.2s-1.4-1.1-2.6-0.6
					c-1.2,0.5-1,1.6-1,1.6s-2.8-0.6-2.7,1.8h44.1v-30.9L493.3,297.3z"/>
				<path id="XMLID_316_" class="st23" d="M643.1,308.5c2-2.1,4.5-2.7,6.3-2.2c1.8,0.5,2.3,2.4,2.1,3.5c0,0,1.8-2,3.3-1.3
					c1.4,0.7,1.1,2.5,1.1,2.5s2.5-2.9,5.8-1.2c3.3,1.7,1.8,7,0.7,8.1c0,0,1.9-0.6,2.9,0.7c1,1.3,0,4,0,4s1.6-0.5,2.9-0.1
					c1.3,0.3,1.3,1.9,1.3,1.9s2.4-2.8,4.2-2.8s2.4,1.3,2.4,1.3s1.2-1.8,2.5-1.1c1.3,0.7,1.5,1.5,1.5,1.5s1.5-1.3,4.7,0.8
					c1.8,1.2,1.9,3.9,1.9,3.9s2.1-1.1,3.8-0.5c1.7,0.6,2.2,2.2,2.2,2.2h-49.5V308.5z"/>
				<g id="XMLID_314_">
					<polygon id="XMLID_196_" class="st39" points="537.2,329.7 494.3,329.7 494.3,300.2 501.7,285.3 515.7,272.3 529.8,285.3 
						537.2,300.2 					"/>
					<polygon id="XMLID_322_" class="st40" points="514,272.3 514,273.8 527,285.7 534.7,300.2 537.2,300.2 529.8,285.3 
						515.7,272.3 					"/>
					<rect id="XMLID_215_" x="537.2" y="300.2" class="st41" width="61.2" height="29.5"/>
					<polygon id="XMLID_231_" class="st42" points="602.3,300.2 594.9,285.3 580.9,272.3 515.7,272.3 529.8,285.3 537.2,300.2 					
						"/>
					<polygon id="XMLID_217_" class="st43" points="594.9,285.3 529.8,285.3 537.2,300.2 602.3,300.2 					"/>
					<polygon id="XMLID_234_" class="st44" points="491,300.2 498.4,285.3 512.5,272.3 515.7,272.3 501.7,285.3 494.3,300.2 					
						"/>
					<path id="XMLID_232_" class="st45" d="M515.7,305L515.7,305c-4.7,0-8.5,3.8-8.5,8.5v16.2h17.1v-16.2
						C524.3,308.8,520.4,305,515.7,305z"/>
					<rect id="XMLID_315_" x="537.2" y="300.2" class="st45" width="61.2" height="3.3"/>
					<rect id="XMLID_312_" x="598.4" y="315.5" class="st39" width="45.6" height="14.2"/>
					<rect id="XMLID_308_" x="598.4" y="315.5" class="st41" width="45.6" height="2.4"/>
					<path id="XMLID_313_" class="st42" d="M598.4,315.5h47.8v-5.7c0-3.1-2.5-5.7-5.7-5.7h-42.1V315.5z"/>
					<rect id="XMLID_214_" x="598.4" y="304.1" class="st44" width="4.7" height="25.6"/>
				</g>
			</g>
			<g id="XMLID_381_">
				<polyline id="XMLID_352_" class="st46" points="342.6,327 353.6,248.8 360.6,248.8 371.6,327 				"/>
				<line id="XMLID_353_" class="st46" x1="357.1" y1="248.8" x2="357.1" y2="328.1"/>
				<g id="XMLID_356_">
					<polyline id="XMLID_354_" class="st46" points="343.7,319 357.1,304.6 347.9,289.3 357.1,274.7 351.6,262.9 357.1,251.2 					
						"/>
					<polyline id="XMLID_355_" class="st46" points="353.2,251.7 357.1,262.1 349.6,276.7 357.1,289.7 345.8,304 357.1,319 					"/>
				</g>
				<g id="XMLID_358_">
					<polyline id="XMLID_363_" class="st46" points="370.5,319 357.1,304.6 366.2,289.3 357.1,274.7 362.6,262.9 357.1,251.2 					
						"/>
					<polyline id="XMLID_359_" class="st46" points="360.9,251.2 357.1,262.1 364.5,276.7 357.1,289.7 368.4,304 357.1,319 					"/>
				</g>
				<path id="XMLID_360_" class="st45" d="M351.9,246.8h10.4c0.5,0,1,0.4,1,1l0,0c0,0.5-0.4,1-1,1h-10.4c-0.5,0-1-0.4-1-1l0,0
					C350.9,247.3,351.3,246.8,351.9,246.8z"/>
				<rect id="XMLID_321_" x="355.9" y="238.4" class="st47" width="2.4" height="9.4"/>
				<g id="XMLID_357_">
					<path id="XMLID_361_" class="st45" d="M370.1,225.3v-1.2c0-0.3-0.3-0.5-0.6-0.5l-7.3,1.2v0.9l7.3,1.2c0.3,0.1,0.6-0.2,0.6-0.5
						V225.3z"/>
					<path id="XMLID_367_" class="st45" d="M367.6,217.6l-0.7-1c-0.2-0.2-0.5-0.3-0.7,0l-5.2,5.3l0.5,0.7l6.6-3.3
						c0.3-0.1,0.4-0.5,0.2-0.7L367.6,217.6z"/>
					<path id="XMLID_368_" class="st45" d="M361.1,212.9l-1.1-0.4c-0.3-0.1-0.6,0.1-0.6,0.4l-1.1,7.3l0.9,0.3l3.4-6.6
						c0.1-0.3,0-0.6-0.3-0.7L361.1,212.9z"/>
					<path id="XMLID_369_" class="st45" d="M353.1,212.9l-1.1,0.4c-0.3,0.1-0.4,0.4-0.3,0.7l3.4,6.6l0.9-0.3l-1.1-7.3
						c0-0.3-0.3-0.5-0.6-0.4L353.1,212.9z"/>
					<path id="XMLID_373_" class="st45" d="M346.6,217.6l-0.7,1c-0.2,0.2-0.1,0.6,0.2,0.7l6.6,3.3l0.5-0.7l-5.2-5.3
						c-0.2-0.2-0.6-0.2-0.7,0L346.6,217.6z"/>
					<path id="XMLID_376_" class="st45" d="M344.1,225.3v1.2c0,0.3,0.3,0.5,0.6,0.5l7.3-1.2v-0.9l-7.3-1.2c-0.3-0.1-0.6,0.2-0.6,0.5
						V225.3z"/>
					<path id="XMLID_377_" class="st45" d="M346.6,232.9l0.7,1c0.2,0.2,0.5,0.3,0.7,0l5.2-5.3l-0.5-0.7l-6.6,3.3
						c-0.3,0.1-0.4,0.5-0.2,0.7L346.6,232.9z"/>
					<path id="XMLID_378_" class="st45" d="M353.1,237.6l1.1,0.4c0.3,0.1,0.6-0.1,0.6-0.4l1.1-7.3l-0.9-0.3l-3.4,6.6
						c-0.1,0.3,0,0.6,0.3,0.7L353.1,237.6z"/>
					<path id="XMLID_379_" class="st45" d="M361.1,237.6l1.1-0.4c0.3-0.1,0.4-0.4,0.3-0.7l-3.4-6.6l-0.9,0.3l1.1,7.3
						c0,0.3,0.3,0.5,0.6,0.4L361.1,237.6z"/>
					<path id="XMLID_380_" class="st45" d="M367.6,232.9l0.7-1c0.2-0.2,0.1-0.6-0.2-0.7l-6.6-3.3l-0.5,0.7l5.2,5.3
						c0.2,0.2,0.6,0.2,0.7,0L367.6,232.9z"/>
				</g>
				<path id="XMLID_364_" class="st45" d="M355.7,225.3c0-0.7,0.6-1.3,1.3-1.3s1.3,0.6,1.3,1.3c0,0.7-0.6,1.3-1.3,1.3
					S355.7,226,355.7,225.3z"/>
			</g>
			<g id="XMLID_55_">
				<path id="XMLID_382_" class="st14" d="M0,315.9v-42.6c0,0,4-4.3,9.1-1.6c2.9,1.5,4.5,7.5,1.4,10.4c0,0,4.8,0,3.9,3.9
					c0,0,2.7-2.3,4.8-0.2c2,2-0.9,4.3-0.9,4.3s3,1,1.6,3.5c0,0,1.1-1.9,3.1-1.2c0,0-0.6-5,3.4-5c4.1,0,7.2,3.9,5.4,7.5
					c0,0,3.9,1.8,2,4.1c0,0,0.7-2.3,3.9-1.6c0,0-0.7-4.5,4.3-5.9c0,0-0.2-6.4,5.2-8.6c5.4-2.3,7.7-0.2,7.7-0.2s1.4-2.7,4.3-2
					c2.9,0.7,2.3,4.1,2.3,4.1s2.7-0.7,4.3,1.1c1.6,1.8,0,5.9,0,5.9s2.3-0.5,3.4,1.9c0,0,1.6-3.2,5.2-2.3c3.6,0.9,2.9,5,2.9,5
					s0.9-0.7,2.9,0.2c2,0.9,1.4,3.6,1.4,3.6s3.2-2,5-0.9c1.8,1.1,2.3,3.6,2.3,3.6s2.7-2.1,5.7-1.7c2.9,0.4,3.9,3.3,3.9,3.3
					s1.6-2,2.9-1.1c1.4,0.9,2.7,5.2,2.7,5.2s3.2-0.2,5,1.6c1.8,1.8,1.8,3.6,1.8,3.6s6.4,0,6.4,2.3H0z"/>
				<path id="XMLID_389_" class="st19" d="M88.4,315.1c-2.3-1.8-5.7-2.4-8.1-0.9c-0.9-2.3-3.2-4.1-5.7-4.3c-2.5-0.2-5.1,1.1-6.4,3.2
					c-0.7-2-3.6-2.7-5.1-1.3c0-1.2-0.9-2.4-2.1-2.7c-1.2-0.3-2.6,0.4-3.1,1.5c0.7-2.9-0.7-6.1-3.2-7.6c-2.6-1.5-6.1-1.1-8.2,1
					c-1.7,1.6-2.4,4.2-1.9,6.5c-0.4-0.6-1-1.1-1.8-1.4c-1.3-0.4-2.8,0-3.7,1.1c-0.9-1.5-2.6-2.5-4.4-2.5c-1.8,0-3.5,1-4.4,2.5
					c-0.1-2.8-2.3-5.5-5-6.2c-2.8-0.7-5.9,0.6-7.4,3.1c0.5-2.1-0.6-4.4-2.5-5.4c-1.9-1-4.4-0.5-5.8,1c0.6-1.7,0.7-3.6,0.3-5.4
					c-0.3-1.1-0.8-2.3-1.7-2.9c-0.9-0.7-2.3-0.8-3.2,0c2.7-2.4,2.9-7.1,0.5-9.8C4.1,283,2,282.2,0,282.3v33.6h89.3
					C89,315.6,88.7,315.3,88.4,315.1z"/>
			</g>
			<g id="XMLID_174_">
				<path id="XMLID_43_" class="st48" d="M510.3,151.5c-0.7-2.8-2.8-5.1-5.3-6.4c-1.2-0.6-2.7-1.1-4.1-1.1c-0.5,0-4,0.8-3.9,0.9
					c-1.6-2.9-1.6-5.9-3.6-8.7c-1.7-2.3-3.9-4.3-6.4-5.6c-1.9-1-4.1-1.6-6.2-1.3c-3.3,0.5-5.9,3.1-7.5,6c-3.4,5.9-4,13.3-1.5,19.6
					c-1.6,0.1-2.5,2.5-1.4,3.7c-1.4-1.8-4.7-1.5-5.8,0.6c-1.4-2.5-3.9-4.6-6.7-4.5c-2.8,0.1-5.3,3.5-3.8,5.9
					c-1.2-2.3-5.4-1.5-5.6,1.1c0.1-3.5-3.9-5.6-7.3-5.8c-2.7-0.2-5.7,0.4-7.5,2.4c-1.8,2-1.6,5.8,0.9,6.9c-1.2-1-3.2-1.1-4.4-0.1
					c-1.3,1-1.7,2.9-1,4.3c-1.2-1.3-3.2-2-4.7-1.1c-1.4,1-1,3.8,0.7,3.8c-2.5,0-3.3,0.5-5.3,1.6c-1.8,1-4,1.3-6,0.6
					c-0.9-0.3-1.9-0.7-2.8-0.4c-0.1,0.4-0.2,0.7-0.3,1.1c-1.1,0-2.3,0-3.4,0c-0.4,0-0.8,0-1.1,0.2c-0.3,0.2-0.6,0.6-0.5,0.9
					c0.1,0.6,0.9,0.7,1.4,0.7c7.2,0.2,13.6,1.4,20.7,0c4.7,7,15.2,7.8,21.1,1.8c0.3-0.3,0.6-0.6,1-0.6c0.2,0,0.5,0.1,0.7,0.2
					c2.1,0.8,4.7-0.3,5.6-2.3c0.2,1.4,1.7,2.4,3.1,2.4c1.4,0,2.7-1,3.6-2.1c2.6,2.4,6.2,3.8,9.7,3.8c2.5,0,5-0.7,7.1-2
					c0.4-0.2,4.7-3.5,4.6-3.7c1.5,1.5,4.4,1.1,5.5-0.7c1.1,1.7,3,2.8,5,3c0.5,0,5.6,0,5-1.4c2.1,4.3,8,6.2,12.2,3.8
					c2.2,3.2,6.3,5,10.2,4.4c3.8-0.6,7.3-3.4,8.5-7.1c4.1,2.4,9.5,2.5,13.7,0.2c-0.4,2.3,2.8,4.4,4.7,3.1c1.4,2.5,6.2,1.4,6.3-1.5
					c1.6,2.1,5.6,1.2,6.2-1.4c0.7,1.5,2.8,1.9,4.4,1.5c1.6-0.4,3.1-1.3,4.8-1.5c3.5-0.5,7.7,2,10.3-0.3c3.6,0.1,7.2,0.3,10.8,0.4
					c5.5,0.2,11,0.5,16.6,0.7c1.9,0.1,3.8,0,5.7-0.1c0.1,0,0.2,0,0.3-0.1c0.3-0.1,0.3-0.5,0.1-0.8c-0.2-0.2-0.5-0.3-0.7-0.4
					c-0.7-0.2-1.5-0.2-2.2-0.2c-0.5,0-1,0.1-1.4-0.2c-0.4-0.4-0.3-1-0.6-1.3c-0.3-0.4-1-0.4-1.5-0.3c-1.3,0.2-2.7,0.3-4,0.5
					c-0.2,0-0.5,0.1-0.7,0c-0.2-0.1-0.4-0.3-0.5-0.5c-1.2-1.6-2.8-1.3-4.5-1.6c-3.4-0.7-6.9-1.4-10.3-0.7c-1.3,0.2-2.6,0.7-3.9,0.3
					c-1.1-0.3-1.9-1.2-2.9-1.8c-2.3-1.4-5.2-1.4-7.8-1.4c-3,0.1-6.7,0.6-7.8,3.3c-2.6-1.7-6.5-1.2-8.5,1.2c-0.7-2.5-3.2-4.3-5.8-4.1
					c0.4-2.4-2.2-4.6-4.7-4.6c-2.5-0.1-4.8,1.3-6.9,2.6c1.1-0.5,0.9-2.2,0.1-3.1c-0.8-0.9-2-1.5-2.6-2.6c-0.4-0.7-0.4-1.6-0.6-2.4
					c-0.9-3.5-6.2-4.8-8.6-2.1c0.6-3-0.1-6.5-2.5-8.3c-2.4-1.8-6.7-1-7.6,1.9C516,148.2,511.7,148.8,510.3,151.5z"/>
				<path id="XMLID_191_" class="st49" d="M580.3,174c-2.6-2.3-7-2.2-9.4,0.3c-1.5-1-3.7-0.7-5,0.6c-3.7-1.6-8.4-0.5-10.9,2.6
					c-0.4-2.1-4-2.6-4.9-0.6c-0.4-1.9-0.8-3.8-1.2-5.8c-1.5-0.8-3.7,0.5-3.7,2.2c-1.6-2.3-5.7,1.6-7.9-0.2c-0.7-0.5-0.9-1.4-1.4-2.1
					c-1.7-2-4.9-0.4-7,1.2c1.4-3.6-3.8-7-7.3-5.3c-3.5,1.7-4.7,6.1-4.4,9.9c-1.5-1.3-3.8-1.4-5.4-0.2c-1.4-4.2-7.2-6.3-10.9-3.9
					c2.4-2.8-0.5-7.6-4.2-8.1c-3.7-0.5-7.1,1.9-9.8,4.5c-1.5-1.5-4.2-1.7-5.9-0.5c1.2-1.3-0.2-3.7-1.9-3.9c-1.8-0.1-3.3,1.4-3.8,3.2
					c-0.5,1.7-0.2,3.6,0.1,5.3c-1.7,1.3-4-0.5-5.5-2c-1.5-1.5-4.1-3-5.5-1.4c-0.3-2-2.7-3.2-4.7-3c-2,0.3-3.8,1.6-5.4,2.8
					c-1.3-2.3-4.9-2.6-7.1-1.2c-2.2,1.5-3.3,4.2-3.7,6.9c-2.1-2.1-5.9-2-7.8,0.2c-1.9-2.8-6.1-1.6-9.4-0.8c-3.1,0.8-7,1.1-10.2,0.3
					c-0.7-0.2-1.4-0.5-2.1-0.8c0,0-0.1,0-0.1,0c-0.9-0.3-1.9-0.7-2.8-0.4c-0.1,0.4-0.2,0.7-0.3,1.1c-1.1,0-2.3,0-3.4,0
					c-0.4,0-0.8,0-1.1,0.2c-0.3,0.2-0.6,0.6-0.5,0.9c0.1,0.6,0.9,0.7,1.4,0.7c7.2,0.2,13.6,1.4,20.7,0c4.7,7,15.2,7.8,21.1,1.8
					c0.3-0.3,0.6-0.6,1-0.6c0.2,0,0.5,0.1,0.7,0.2c2.1,0.8,4.7-0.3,5.6-2.3c0.2,1.4,1.7,2.4,3.1,2.4c1.4,0,2.7-1,3.6-2.1
					c2.6,2.4,6.2,3.8,9.7,3.8c2.5,0,5-0.7,7.1-2c0.4-0.2,4.7-3.5,4.6-3.7c1.5,1.5,4.4,1.1,5.5-0.7c1.1,1.7,3,2.8,5,3
					c0.5,0,5.6,0,5-1.4c2.1,4.3,8,6.2,12.2,3.8c2.2,3.2,6.3,5,10.2,4.4c3.8-0.6,7.3-3.4,8.5-7.1c4.1,2.4,9.5,2.5,13.7,0.2
					c-0.4,2.3,2.8,4.4,4.7,3.1c1.4,2.5,6.2,1.4,6.3-1.5c1.6,2.1,5.6,1.2,6.2-1.4c0.7,1.5,2.8,1.9,4.4,1.5c1.6-0.4,3.1-1.3,4.8-1.5
					c3.5-0.5,7.7,2,10.3-0.3c3.6,0.1,7.2,0.3,10.8,0.4c5.5,0.2,11,0.5,16.6,0.7c1.9,0.1,3.8,0,5.7-0.1c0.1,0,0.2,0,0.3-0.1
					C603.6,174,591.8,172.9,580.3,174z"/>
			</g>
			<g id="XMLID_172_">
				<path id="XMLID_45_" class="st48" d="M177.8,141.4c-2.2-2.7-6.1-3.8-9.4-2.8c-3.3,1.1-5.8,4.2-6.1,7.7c-1.4-1.1-3.7,0.9-2.9,2.4
					c-0.9-1.9-4.3-1.6-4.8,0.4c-0.6-1.1-2-1.7-3.2-1.3c-1.2,0.4-1.9,1.7-1.7,3c-1.9-0.5-2.6,0.8-4.3,1c-1.2,0.2-2.3-0.8-3.4-0.4
					c-0.2,0.1-0.4,0.3-0.3,0.5c0,0.1,0.2,0.2,0.3,0.3c2.7,1,5.8,1.2,8.6,0.5c2.5,1.7,6.1,1.5,8.4-0.6c1.3,2,4.1,2.7,6.4,2.3
					c2.4-0.4,4.5-1.7,6.5-2.9c0.9,2.4,3.7,3.6,6.3,3.5c2.6-0.1,5-1.2,7.3-2.4c2.4,3.9,8.8,1.4,11.5-0.7c0.4,1.1,1.6,1.7,2.7,1.5
					c1.1-0.2,2-1,2.5-2c-0.4,0.8,9.1,4.5,8,0.2c1.5,2.3,5.6,2.1,6.9-0.4c1.1,1.7,3.4,2.3,5.4,1.9c2-0.4,3.7-1.5,5.4-2.6
					c2.8,2.9,8,3.1,11,0.4c1.1,1.2,3.3,0.9,4.1-0.5c0.4,1.9,3.8,2,4.3,0.2c0.1,0.9,1,1.6,1.9,1.7c0.9,0,1.8-0.7,1.9-1.6
					c1.4,1.1,3.5,1.2,5,0.1c2.7,1.5,6.4,1,8.6-1.1c-1.4-0.6-3.2-0.4-4.4,0.6c-0.3-1.3-2-1.8-3.4-1.6c-1.2,0.1-2.8,0.8-4,0.3
					c-1.2-0.5-1.8-1.5-3.3-1.7c-1.3-0.1-2.7,0.3-3.7,1.1c-0.2-0.2-0.3-0.5-0.3-0.8c-0.2-0.7-1-1.2-1.8-1.3c-0.8-0.1-2.7,0-3.3,0.7
					c-1.9-1.7-3.8-3.5-6.4-4.1c-2.5-0.6-5.6,0.3-6.7,2.6c-1.1-2.1-4.3-2.6-5.9-1c-0.7-2.2-2.3-4.1-4.4-4.8c-2.2-0.7-4.9,0.3-5.7,2.4
					c-0.5-1-2.3-0.7-2.5,0.4c-0.5-2.1-3.4-3.2-5.3-2c0.8-0.5,1.1-1.7,0.6-2.6c-0.5-0.8-1.7-1.1-2.6-0.6c1.4-0.7,1.1-3-0.2-3.8
					c-1.3-0.8-3.1-0.4-4.4,0.3c1.7-2.1-0.1-5.9-2.7-5.9c1-0.7,1.2-2,0.8-3.1c-0.4-1.1-1.4-1.9-2.5-2.3c-2.2-0.9-4.8-0.4-6.6,1.2
					c-1.7,1.6-2.4,4.2-1.7,6.5c-1.3,0.1-2.6,0.2-3.6,1c-1,0.8-1.4,2.5-0.4,3.3c0,0,0,2.2,0.2,2.6c0.4,0.8,1.1,1.4,1.8,2
					c-0.5-0.2-1-0.4-1.5-0.5C180.1,138.7,176.9,140.3,177.8,141.4z"/>
				<path id="XMLID_206_" class="st49" d="M248.4,150c-0.6-1.1-2.2-0.3-3.1,0.5c0-0.8-0.8-1.6-1.6-1.6c-0.8-0.1-1.7,0.6-1.8,1.4
					c-0.2-1.5-2.6-2.1-3.5-0.9c-1.9-1-4.3-1-6.2,0c-0.1-1-1-1.9-2-2c-1-0.1-2,0.6-2.3,1.5c-0.2-1.1-1.7-1.3-2.6-0.7
					c-0.9,0.6-1.3,1.7-1.6,2.7c-0.2-0.5-1-0.8-1.5-0.6c0.6-0.8-0.2-2-1.2-2.1c-1-0.1-1.9,0.4-2.7,0.9c-1-0.2-0.8-1.7-1.2-2.7
					c-0.6-1.4-2.7-1.3-3.9-0.4c-1.2,0.9-2.1,2.2-3.4,2.9c-0.6-1.7-3.3-1.9-4.3-0.5c-0.2-1.1-1.3-1.9-2.3-1.9c-1.1,0-2.1,0.8-2.3,1.9
					c-0.5-1.5-2.4-2.1-3.9-1.8c-1.5,0.4-2.7,1.5-3.8,2.7c-0.7-1.2-2.2-1.9-3.5-1.6c1.1-1.8-0.4-4.3-2.4-4.7c-2-0.4-4.1,0.9-5.3,2.6
					c-0.6,0.9-1.1,2-1.5,3.1c-0.2,0.6-1,2.1-0.9,2.6c-0.3-1.3-1.2-2.3-2.5-2.7c-1.2-0.4-2.6,0-3.5,0.9c0-0.4,0-0.8-0.1-1.2
					c-0.2-0.8-1-1.3-1.8-1.3c-0.8,0-1.5,0.6-1.8,1.3c0-2.3-1.5-3.1-3.6-2.3c-2,0.7-3.3,2.8-3.3,4.9c-3.2-1.3-6.9-0.9-9.8,1
					c-1.6-1.6-4.3,0.4-6.5,0c-0.3-0.1-0.6-0.2-0.9-0.3c-0.1,0-0.2,0-0.3,0.1c-1.2,0.2-2.3-0.8-3.4-0.4c-0.2,0.1-0.4,0.3-0.3,0.5
					c0,0.1,0.2,0.2,0.3,0.3c2.7,1,5.8,1.2,8.6,0.5c2.5,1.7,6.1,1.5,8.4-0.6c1.3,2,4.1,2.7,6.4,2.3c2.4-0.4,4.5-1.7,6.5-2.9
					c0.9,2.4,3.7,3.6,6.3,3.5c2.6-0.1,5-1.2,7.3-2.4c2.4,3.9,8.8,1.4,11.5-0.7c0.4,1.1,1.6,1.7,2.7,1.5c1.1-0.2,2-1,2.5-2
					c-0.4,0.8,9.1,4.5,8,0.2c1.5,2.3,5.6,2.1,6.9-0.4c1.1,1.7,3.4,2.3,5.4,1.9c2-0.4,3.7-1.5,5.4-2.6c2.8,2.9,8,3.1,11,0.4
					c1.1,1.2,3.3,0.9,4.1-0.5c0.4,1.9,3.8,2,4.3,0.2c0.1,0.9,1,1.6,1.9,1.7c0.9,0,1.8-0.7,1.9-1.6c1.4,1.1,3.5,1.2,5,0.1
					c1.5,0.8,3.2,1,4.8,0.7c-1.9-0.8-4-1.2-6.1-1.6C252.7,149.7,250.4,149.3,248.4,150z"/>
			</g>
		</g>
		<g id="XMLID_967_">
			<linearGradient id="XMLID_65_" gradientUnits="userSpaceOnUse" x1="360.8024" y1="316.1209" x2="360.8024" y2="333.1485">
				<stop  offset="0" style="stop-color:#0B580A"/>
				<stop  offset="1" style="stop-color:#0B470C"/>
			</linearGradient>
			<path id="XMLID_2_" class="st50" d="M353.3,317.6c-0.2-0.1-0.7,0.1-0.8-0.2c-0.1-0.1,0-0.2,0-0.3c-0.1-0.2-0.7-0.3-0.9-0.3
				c-0.1,0-0.2,0-0.3-0.1c0,0,0-0.1,0-0.1c0-0.2,0-0.4,0.1-0.5c-0.2,0-0.4,0.2-0.4,0.4c-0.1,0-0.1-0.2-0.1-0.3c0-0.2,0-0.4,0.1-0.6
				c-0.1-0.1-0.2,0-0.3,0c-0.1,0.1-0.1,0.2-0.2,0.3c-0.1,0.4,0.1,0.7,0.1,1c0.1,0.4-0.2,0.7-0.5,1c-0.7,0.7-1.4,1.5-2,2.4
				c-0.1,0.1-0.2,0.2-0.2,0.4c-0.1,0.4,0.2,0.8,0.5,1c0.4,0.2,0.8,0.1,1.2,0.1c0,0,0.1-0.1,0.1-0.1c0.4,0,0.7,0.3,1,0.5
				c0.4,0.2,0.9,0.2,1.4,0.3c0.5,0.1,1,0.3,1.2,0.7c0.1,0.2,0.1,0.3,0.2,0.5c0.1,0.1,0.2,0.3,0.3,0.4c0.1,0.2,0.1,0.4,0.1,0.6
				c0.1,0.5,0.3,0.9,0.6,1.4c0.2,0.4,0.4,0.8,0.8,1c0.2,0.2,0.5,0.3,0.8,0.3c0.3,0.1,0.6,0,0.6,0.4c0,0.3,0,0.6-0.1,0.9
				c0,0.1,0,0.3,0,0.4c0,0.1,0.1,0.2,0.2,0.3c0.1,0.3,0.1,0.7,0,1c-0.2,0.6-0.4,1.2-0.8,1.7c-0.1,0.1-0.1,0.2,0,0.3c0,0,0.1,0,0.1,0
				c0.3,0,0.7,0,1,0c0-0.2,0-0.3,0.1-0.4c0.1,0,0.2-0.1,0.2-0.1c0.1-0.1,0.1-0.2,0.1-0.3c-0.1-0.7,0.2-1.5,0.5-2.2
				c0-0.1,0.1-0.2,0.2-0.1c0,0,0.1,0.1,0.1,0.1c0.1,0.5,0.3,1,0.1,1.4c-0.1,0.4-0.5,0.6-0.6,1c0.4,0.1,0.8,0.1,1.1,0.1
				c0-0.2,0-0.4,0.2-0.5c0,0,0.1,0,0.1,0c0.1-0.1,0.1-0.3,0-0.4c-0.2-0.4-0.1-0.9-0.1-1.4c0-0.4,0-0.9,0.1-1.3
				c0-0.2-0.1-0.8,0.1-0.9c0.1-0.1,0.2-0.1,0.3-0.1c1.8,0.1,3.5,1.1,5.2,0.9c0.8-0.1,1.6-0.5,2.4-0.8c0.4-0.2,0.7-0.3,1.1-0.2
				c0.2,0.1,0.4,0.3,0.4,0.5c0,0.1,0,0.2,0.1,0.3c0.1,0.1,0.2,0.1,0.3,0c0-0.1,0-0.1,0-0.2c0-0.2,0.3-0.3,0.4-0.2
				c-0.1,0.1,0,0.3,0.1,0.4c0.1,0,0-0.3,0.1-0.3c0,0,0.1,0,0.1,0c0.2,0,0.4-0.2,0.5-0.3c0.1-0.1,0-0.4,0.3-0.4
				c0.1,0,0.2,0.2,0.3,0.3c0.2,0.4,0.3,0.8,0.7,1c-0.1,0.1-0.1,0.2-0.1,0.3c0,0.1,0.1,0.2,0.2,0.3c0.1,0.1,0.1,0.2,0.1,0.3
				c0.2,0.6,0.3,1.2,0.3,1.8c0,0.4,0,0.9-0.3,1.1c-0.1,0.1-0.3,0.2-0.4,0.4c0.4,0.1,0.8,0.1,1.2,0.1c0.1,0,0.2,0,0.2-0.1
				c0-0.1,0-0.2,0-0.2c0.1-0.2,0.4-0.1,0.5-0.3c0.1-0.1,0-0.3-0.1-0.5c0-0.2,0.1-0.4,0.1-0.6c0.1-0.3,0-0.6,0-0.9
				c0.1-0.6,0.5-1.2,0.4-1.7c0-0.2-0.1-0.4-0.1-0.6c0-0.1,0-0.2,0.1-0.3c0.1-0.4,0.1-0.8-0.1-1.2c0-0.1-0.1-0.2-0.1-0.3
				c0-0.1,0.1-0.1,0.1-0.2c0.1-0.2,0-0.3,0-0.5c-0.1-0.3-0.2-0.6-0.2-0.9c-0.1-0.3,0-0.5,0-0.8c0-0.7-0.1-1.3-0.2-2
				c0-0.4-0.1-0.7-0.2-1.1c-0.2-0.6-0.7-1.1-1.3-1.4c-1.3-0.7-2.6-0.3-3.9,0c-1,0.2-2,0.3-2.9,0.4c-0.7,0.1-1.5,0.1-2.2,0.1
				c-0.9,0-1.7-0.2-2.6-0.3c-1.9-0.3-3.7-0.6-5.6-0.8c-0.2,0-0.5-0.1-0.7-0.2C353.5,317.8,353.4,317.7,353.3,317.6z"/>
			<linearGradient id="XMLID_66_" gradientUnits="userSpaceOnUse" x1="392.7116" y1="319.7626" x2="392.7116" y2="336.5941">
				<stop  offset="0" style="stop-color:#0B580A"/>
				<stop  offset="1" style="stop-color:#0B470C"/>
			</linearGradient>
			<path id="XMLID_175_" class="st51" d="M404,328.1c0-0.5,0.2-0.9,0.3-1.4c0.2-0.7,0.2-1.4,0.2-2.1c0-0.7,0-1.4-0.2-2.1
				c-0.2-0.7-0.6-1.3-1.2-1.7c-1-0.6-2.3-0.4-3.5-0.3c-1.7,0.2-3.3,0-5-0.1c-1.6-0.1-3.1,0-4.6,0.2c-0.6,0-1.2,0-1.8,0.1
				c-0.6,0.1-1.1,0.3-1.6,0.6c-0.6,0.4-1.2,1-1.5,1.7c-0.3,0.8-0.4,1.6-0.9,2.4c-0.1,0.2-0.3,0.4-0.4,0.6c-0.4,0.6-0.4,1.3-0.5,2
				c-0.1,0.7-0.3,1.4-0.9,1.8c-0.1,0-0.1,0.1-0.2,0c0,0-0.1,0-0.1-0.1c-0.1-0.2-0.2-0.5-0.5-0.4c0,0,0,0-0.1,0
				c-0.2,0.1-0.2,0.4-0.2,0.6c0,0.2,0.2,0.4,0.3,0.6c0.1,0.1,0.1,0.1,0.1,0.2c0,0.1,0,0.1-0.1,0.2c-0.1,0.2-0.3,0.4-0.4,0.6
				c-0.1,0.2-0.2,0.5,0,0.7c0.1,0.2,0.3,0.3,0.3,0.5c0.1,0.2,0,0.4,0,0.7c-0.1,0.3-0.2,0.6-0.3,1c-0.1,0.3-0.5,0.8-0.4,1
				c0,0.1,0.1,0.1,0.1,0.2c0,0,0,0.1,0,0.1c0.2,0.5,0.8,0.2,1.1,0.1c0.1,0,0.2,0,0.3-0.1c0.3-0.1,0.4-0.3,0.6-0.5
				c0.2-0.2,0.3-0.3,0.5-0.5c0.1-0.1,0.3-0.2,0.3-0.4c0-0.1,0.1-0.2,0.1-0.2c0.1-0.1,0.2-0.2,0.4-0.3c0.3-0.2,0.3-0.6,0.3-1
				c0-0.4,0-0.8,0.1-1.3c0,0.1,0.1,0.1,0.2,0c0.1,0,0.1-0.1,0.2-0.1c0.1,0,0.3,0,0.4,0.1c0.5,0.2,1.1-0.1,1.5-0.5
				c0,0.3,0.3,0.5,0.5,0.6c0.1,0,0.2,0,0.2,0.1c0.1,0.1,0.1,0.2,0.1,0.3c0.2,1,0.1,2.2-0.4,3.1c-0.1,0.3-0.3,0.6-0.5,0.8
				c0.3,0.2,0.7,0.2,1.1,0.1c0.1,0,0.1,0,0.2-0.1c0.1-0.1,0-0.3,0.1-0.3c0,0,0.1,0,0.1,0c0.2-0.1,0.2-0.3,0.2-0.5
				c0-0.4,0-0.7,0.1-1.1c0-0.5,0.1-1.1,0.5-1.5c0.2,0.3,0.3,0.6,0.4,1c0.1,0.5,0.2,1-0.1,1.5c-0.1,0.2-0.2,0.3-0.2,0.5
				c0.4,0.1,0.8,0.1,1.2,0.1c-0.1-0.2,0.3-0.2,0.3-0.4c0,0,0-0.1,0-0.1c-0.2-0.6-0.3-1.1-0.4-1.7c0-0.2-0.1-0.4,0-0.6
				c0-0.2,0.1-0.4,0.1-0.6c0-0.3-0.1-0.5-0.2-0.7c0-0.2,0-0.4,0-0.6c0-0.1-0.1-0.3-0.1-0.4c0-0.1,0.1-0.1,0.1-0.1
				c0.2-0.1,0.4-0.3,0.6-0.4c0.1-0.1,0.1-0.1,0.2-0.1c0.1,0,0.2,0,0.3,0c1.1,0,2.2,0.4,3.3,0.8c0.1,0,0.3,0.1,0.4,0.1
				c0.3,0.1,0.7,0.2,1.1,0.2c0.3,0,0.6-0.1,0.9-0.2c0.7-0.1,1.5,0,2.1,0.3c0,0.3,0,0.6,0.2,0.8c0-0.1,0.1-0.1,0.1-0.2
				c0.1,0,0.1,0.1,0.2,0.1c0-0.2,0-0.3,0-0.5c0.1-0.1,0.3,0,0.3,0.1c0.1,0.1,0.1,0.2,0.1,0.4c0.2,1.2,0.2,2.4-0.2,3.5
				c-0.2,0.5-0.4,0.7-0.7,1.1c0,0-0.1,0.1-0.1,0.1c0,0.1,0.2,0.2,0.3,0.2c0.3,0,0.6,0,0.8-0.2c0,0,0.1-0.1,0.1-0.1
				c0.1-0.1,0.3-0.1,0.5-0.1c0,0,0,0,0.1,0c0.1,0,0-0.1,0-0.2c-0.1-0.3,0-0.7,0.1-1c0.1-0.3,0.8-3,0.8-2.9c0.1,0,0.1,0.1,0.2,0.3
				c0,0.2,0.2,0.4,0.3,0.6c0.2,0.4,0.3,0.9,0.3,1.3c0,0.2,0,0.3,0,0.5c0,0.2,0.1,0.5,0.1,0.7c0,0.3-0.1,0.5-0.2,0.8
				c-0.1,0.1-0.3,0.4-0.2,0.5c0.2,0.2,0.9,0,1.1-0.2c0.1-0.1,0.1-0.2,0.3-0.3c0,0,0.1,0,0.1,0c0.1,0,0.1-0.1,0.1-0.2
				c0-0.1-0.1-0.1-0.1-0.2c-0.1-0.2-0.1-0.5-0.1-0.8c0-0.5,0-1.1,0.1-1.6c0-0.2,0-0.5,0.1-0.7c0.1-0.2,0.2-0.4,0.2-0.7
				c0-0.1,0-0.2,0-0.2c0-0.1,0.1-0.2,0.1-0.2c0.2-0.5,0.3-1,0.2-1.6C404.2,329.3,404,328.7,404,328.1z M403.8,327.1
				c-0.2,1-0.3,2-0.5,3c-0.2-0.2-0.3-0.5-0.3-0.7c-0.1-0.9,0.2-1.8,0.2-2.6c0-0.4,0.2-0.9,0.4-1.3c0.1-0.5,0.2-0.9,0.3-1.4
				c0.1,0.1,0.1,0.3,0.1,0.4C404,325.3,404,326.2,403.8,327.1z"/>
			<linearGradient id="XMLID_67_" gradientUnits="userSpaceOnUse" x1="426.7213" y1="312.798" x2="426.7213" y2="329.4165">
				<stop  offset="0" style="stop-color:#0B580A"/>
				<stop  offset="1" style="stop-color:#0B470C"/>
			</linearGradient>
			<path id="XMLID_1_" class="st52" d="M435.2,311.4c-0.3,0.2-0.5,0.3-0.9,0.4c-0.3,0.1-0.6,0-0.9-0.1c-0.6-0.2-0.7-1.1-0.8-1.6
				c0,0,0-0.1,0-0.1c0,0-0.1,0-0.1,0c0,0,0,0.1-0.1,0.1c-0.1,0.4,0,1,0.1,1.4c0.1,0.3,0.4,0.5,0.7,0.6c0.3,0.1,0.7,0.3,1,0.2
				c0,0.2-0.2,0.3-0.3,0.3c-0.3,0.1-0.6-0.1-0.9-0.1c-0.4,0-0.8,0.1-1.2,0.1c-0.3,0-0.7,0-1,0c-0.4,0-0.9,0.1-1.3,0.1
				c-0.2,0-0.4,0-0.5,0c-0.2,0-0.4,0.1-0.6,0.2c-0.6,0.1-1.2,0.1-1.8,0.1c-0.3,0-0.5-0.1-0.8,0c-0.3,0-0.6,0-0.9,0
				c-0.7,0-1.3,0-2-0.1c-0.2,0-0.4-0.1-0.7-0.1c-0.6,0-1.2,0.1-1.7-0.1c-0.3-0.1-0.6-0.1-0.9-0.2c-0.4-0.1-0.7-0.1-1.1-0.2
				c-0.3-0.1-0.5-0.1-0.7-0.2c-0.4-0.2-0.8-0.2-1.3-0.2c-0.4,0-0.8-0.3-1.3-0.2c-0.2,0-0.5,0.1-0.7,0.3c-0.1,0.2-0.2,0.4-0.4,0.6
				c-0.4,0.4-0.9,0.8-1.2,1.3c-0.2,0.5-0.2,1.1-0.2,1.6c0,0.8,0.1,1.5,0.2,2.3c0.1,0.8,0.1,1.8-0.1,2.6c-0.1,0.3-0.2,0.7-0.3,1
				c-0.1,0.6,0,1.1,0,1.7c0,0.3,0,1.1,0.4,1.2c0.1,0,0.2-0.7,0.2-0.8c0.1-0.3,0.2-0.5,0.2-0.9c0-1.1,0-2.1,0-3.3
				c0.8,1.2,1,2.9,0.4,4.2c-0.1,0.2-0.2,0.5-0.1,0.7c0,0.1,0.1,0.1,0.2,0.2c0.3,0.4,0.3,0.9,0.3,1.4c0.1,0.6,0.3,1.2,0.4,1.8
				c0.1,0.6,0.1,1.3-0.2,1.8c0.2,0.1,0.4,0.1,0.5,0.1c0.1,0.2,0.1,0.4,0.1,0.6c0.4,0,0.9,0.1,1.3,0c0.1,0,0.1,0,0.2,0
				c0.2-0.1,0.1-0.4,0-0.6c0.2,0,0.3,0,0.5-0.1c0,0,0.1,0,0.1,0c0,0,0-0.1,0-0.1c0-0.3-0.2-0.5-0.4-0.8c-0.5-0.7-0.8-1.6-0.7-2.5
				c0-0.3,0.1-0.6,0.2-0.9c0.1-0.2,0.2-0.5,0.2-0.7c0-0.3,0.1-0.5,0.2-0.8c0-0.1,0.4-0.6,0.4-0.7c0,0.1,0.1,0.2,0.1,0.3
				c0,0.1,0.1,0.1,0.1,0.1c0,0,0.1,0,0.1,0c0.3-0.2,0.2-0.7,0.3-0.9c0.1-0.2,0.4-0.3,0.4-0.5c0,0,0-0.1,0-0.1c0-0.1,0.1-0.1,0.1-0.1
				c0.1-0.1,0.2-0.1,0.4-0.2c0,0,0.1,0,0.1,0c0,0,0.1,0,0.1,0c0.3,0.2,0.5,0.4,0.8,0.6c0.5,0.3,0.9,0.5,1.5,0.6
				c0.5,0.1,1,0.2,1.5,0.2c1.1,0,2.3,0,3.4-0.2c0.5-0.1,1.1-0.2,1.6,0c0.5,0.3,0.8,0.9,0.9,1.5c0.1,0.6,0,1.2,0.2,1.8
				c0.1,0.2,0.2,0.4,0.2,0.7c0.1,0.4,0.2,0.9,0.2,1.4c0,0.3,0,0.7-0.1,0.9c-0.1,0.1-0.2,0.2-0.2,0.3c-0.1,0.3,0.1,0.6,0.3,0.9
				c0.1,0.1,0.1,0.2,0.2,0.2c0.1,0,0.1,0,0.2,0c0.2,0,0.4,0,0.6,0c0.2,0,0.6-0.1,0.6-0.3c0-0.1-0.1-0.3,0.1-0.2
				c0.2,0.1,0.4,0.1,0.6,0c0.1,0,0.1,0,0.2-0.1c0.1,0,0.1-0.1,0.1-0.2c0-0.2-0.2-0.4-0.3-0.6c-0.4-0.4-0.5-0.9-0.6-1.5
				c0-0.3-0.1-0.6,0-0.9c0.1-0.3,0.4-0.6,0.5-0.8c0.3-0.5,0.1-1.1,0.3-1.5c0.2,0.1,0.5,0.1,0.7,0.1c0.2,0,0.3-0.1,0.5-0.2
				c0.2-0.1,0.6-0.1,0.7-0.3c0.1-0.1,0.1-0.2,0.2-0.2c0.3-0.5,0.8-0.7,1-1.2c0.2-0.5,0.2-1.1,0.3-1.6c0.1-0.7,0.5-1.4,0.7-2
				c0,0,0-0.1,0.1-0.1c0.1,0,0.2,0.1,0.3,0.1c0.2,0.1,0.4-0.1,0.5-0.1c0.2,0,0.5,0.2,0.7,0.1c0.2-0.1,0.2-0.3,0.3-0.4
				c0.1,0,0.2,0,0.3,0c0.1,0,0.1-0.1,0.2-0.2c0.2-0.5-0.2-1-0.3-1.5c0-0.2,0-0.4,0-0.6c0.1-0.5,0.1-0.9,0-1.4c0-0.1,0-0.2,0-0.2
				c0.1-0.1,0.2-0.3,0.1-0.4c0.2,0,0.4,0.2,0.6,0.2c0.2,0.1,0.5,0.2,0.8,0.1c0.1,0,0.3-0.1,0.4-0.2c0.3-0.2,0.6-0.2,0.9-0.4
				c0,0,0.1-0.1,0.1-0.1c0-0.1,0-0.2-0.1-0.3c-0.1-0.1-0.1-0.2-0.2-0.3c0,0-0.1-0.1-0.2-0.1c-0.1-0.1-0.3-0.2-0.4-0.2
				c-0.1-0.1-0.2-0.1-0.3-0.1c-0.2-0.1-0.5,0-0.7,0.1c-0.2,0-0.3,0.1-0.5,0.1c-0.2,0-0.6-0.2-0.6-0.5c0.4,0,0.9-0.1,1.3-0.2
				c0.1-0.1,0.3-0.1,0.4-0.2c0.1-0.1,0.2-0.2,0.3-0.3c0.4-0.5,0.7-1,0.7-1.6c0,0,0-0.1,0-0.1c0,0,0,0-0.1,0
				c-0.2,0.3-0.4,0.6-0.6,0.9c-0.2,0.3-0.5,0.6-0.8,0.7c-0.4,0.2-0.9,0.2-1.3,0.1c-0.1,0-0.2,0-0.3-0.1
				C436.9,311.1,435.9,311,435.2,311.4z"/>
			<linearGradient id="XMLID_68_" gradientUnits="userSpaceOnUse" x1="317.37" y1="306.2786" x2="317.37" y2="326.5576">
				<stop  offset="0" style="stop-color:#0B580A"/>
				<stop  offset="1" style="stop-color:#0B470C"/>
			</linearGradient>
			<path id="XMLID_123_" class="st53" d="M330.3,320.8c0,0.1,0.1,0.3,0.1,0.4c0,0.1,0,0.3,0,0.4c0,0.3,0,0.6,0,0.8
				c0,0.6,0,1.1-0.2,1.6c0,0.1-0.1,0.2-0.1,0.2c0,0.1-0.1,0.1-0.1,0.2c-0.1,0.2,0,0.3-0.1,0.5c-0.1,0.3-0.3,0.5-0.3,0.8
				c0.3,0,0.6,0.1,0.8,0.1c0.3,0,0.6,0,0.7-0.2c0.1-0.2,0.1-0.5,0.3-0.6c0.1-0.1,0.3-0.1,0.4-0.2c0.1-0.1,0.1-0.3,0-0.4
				c-0.1-0.1-0.2-0.2-0.3-0.3c-0.2-0.3-0.1-0.6-0.1-0.9c0.1-0.7,0.3-1.5,0.3-2.2c0-0.4,0-0.9,0.2-1.2c0.1-0.1,0.1-0.2,0.1-0.3
				c0-0.2,0-0.4-0.1-0.5c-0.2-0.5-0.5-1-0.7-1.5c-0.3-1,0.2-2.1,0.5-3.1c0.3-0.8,0.8-1.7,0.7-2.6c0.2,0.8,0.2,1.5,0.1,2.3
				c0,0.9,0.1,1.8,0,2.7c-0.1,0.4-0.3,0.8-0.3,1.1c0,0.4,0.4,0.8,0.3,1.2c0,0.1-0.1,0.2-0.1,0.3c-0.2,0.4-0.2,0.8-0.1,1.2
				c0.1,0.4,0,0.7-0.1,1.1c0,0,0,0,0,0.1c0,0,0,0,0.1,0c0.1-0.1,0.3-0.3,0.3-0.3c0.1,0,0.1,0.2,0.2,0.1c0,0,0-0.1,0-0.1
				c0.1-0.3,0.1-0.5,0.1-0.7c0-0.3,0.1-0.7,0.2-1c0-0.4-0.1-0.8,0-1.2c0-0.1,0.1-0.3,0.1-0.4c0.1-0.5-0.1-1-0.3-1.4
				c-0.1-0.4-0.1-0.9-0.1-1.3c0-1.1,0.1-2.1,0.1-3.2c0-0.8,0-1.5,0-2.3c0-0.3-0.1-0.7-0.2-1c-0.1-0.4-0.3-0.6-0.5-0.9
				c-0.2-0.2-0.4-0.4-0.6-0.6c-0.7-0.6-1.8-0.3-2.6-0.3c-0.7,0-1.5-0.2-2.2-0.2c-0.8,0-1.5,0.2-2.2,0.4c-1.6,0.3-3.1,0.6-4.7,0.8
				c-1.2,0.1-2.3,0.2-3.5,0.2c-0.6,0-1.2-0.1-1.8-0.1c-0.5,0-1-0.2-1.6-0.2c-0.7,0-1.4,0.2-2,0.1c-0.4,0-0.8-0.2-1.3-0.2
				c-0.4,0-0.7,0.1-1.1,0.1c-0.7,0-1-0.5-1.5-0.9c-0.4-0.3-1.1-0.2-1.4,0.2c-0.1,0.1-0.2,0.3-0.3,0.4c-0.2,0.1-0.4,0.1-0.5,0.2
				c-0.2,0.1-0.3,0.5-0.6,0.6c-0.2,0.1-0.4,0-0.6-0.1c-0.5-0.2-1-0.1-1.5,0.1c0,0-0.1,0.1-0.1,0.1c0,0,0,0.1,0,0.1
				c0.3,0.8,1.2,1.2,2,1.1c0.1,0,0.3-0.1,0.4,0.1c0,0,0,0.1,0,0.1c0.2,0.8,0.4,1.7,0.6,2.5c0,0.1,0,0.2,0,0.3c0,0.1-0.1,0.2-0.1,0.4
				c-0.1,0.2-0.2,0.5-0.2,0.7c0.1,0.3,0.3,0.5,0.6,0.6c0.3,0.1,0.6,0.1,0.9,0.1c0.1,0,0.3,0,0.4,0c0.2-0.1,0.4-0.3,0.6-0.3
				c0.3-0.1,0.6,0.1,0.7,0.3c0.1,0.2,0.2,0.5,0.2,0.8c0.1,0.1,0,0,0,0.1c-0.1,0-0.1,0.1-0.2,0.1c-0.4,0-0.8,0-1.2,0
				c-0.3,0-0.6-0.2-0.9-0.2c-0.3,0-0.6,0.1-0.7,0.3c-0.1-0.1-0.2-0.1-0.4-0.2c-0.2-0.1-0.4-0.2-0.6-0.3c-0.4-0.1-0.8,0-1.1,0.3
				c0,0-0.1,0.1-0.1,0.1c0,0-0.1,0-0.1,0c-0.3,0-0.5-0.1-0.8-0.2c-0.3-0.1-0.5-0.1-0.8,0c-0.1,0.1-0.2,0.2-0.2,0.3
				c0,0.1,0,0.1,0.1,0.2c0.3,0.4,0.9,0.7,1.5,0.7c0.1,0,0.1,0,0.2,0c0,0,0,0.1,0,0.1c0.1,0.4,0.3,0.7,0.3,1c0,0.4-0.1,0.8,0.2,1
				c0.2,0.2,0.5,0.2,0.7,0.1c0.1,0,0.1,0,0.2,0c0.2,0,0.3,0.3,0.3,0.5c0.1,0.4,0.5,0.6,0.8,0.9c0.2,0.1,0.4,0.3,0.6,0.5
				c0.2,0.2,0.3,0.3,0.5,0.4c0,0,0.1,0,0.1,0.1c0,0,0,0.1,0.1,0.1c0,0.2,0.1,0.5,0.1,0.7c0,0.1,0,0.2,0,0.3c0,0.2-0.1,0.5-0.1,0.7
				c0,0.2,0.1,0.5,0.2,0.7c0.1,0.5,0.2,0.9,0.2,1.4c0,0.1,0,0.2-0.1,0.3c0,0.1-0.1,0.2-0.2,0.3c-0.1,0.1-0.4,0.4-0.4,0.6
				c0,0.3,0.6,0.2,0.8,0.2c0.1,0,0.2,0,0.2,0c0.1-0.1,0.1-0.2,0.2-0.3c0.2-0.2,0.3-0.2,0.2-0.5c-0.2-0.5-0.2-1-0.2-1.6
				c0-0.1,0-0.3,0.1-0.4c0-0.1,0.1-0.2,0.2-0.3c0.2-0.4,0.1-0.9,0.3-1.3c0.1-0.2,0.2-0.4,0.3-0.6c0.1-0.2,0.1-0.4,0.1-0.6
				c0.1-0.2,0.3-0.2,0.4-0.3c0.1,0,0.2-0.1,0.3-0.1c0.1,0,0.3,0,0.4,0c0.3,0.1,0.7,0,1,0c0.1,0,0.2-0.1,0.3,0c0.1,0,0.1,0.1,0.2,0.2
				c0.1,0.1,0.4,0.1,0.6,0c0.3-0.1,0.5-0.3,0.8-0.4c0.1,0.2,0,0.5-0.1,0.7c0,0.2,0.1,0.4,0.2,0.6c0.2,0.5,0.2,1.1,0.2,1.7
				c0,0.1,0,0.2,0,0.2c0,0.1-0.1,0.1-0.2,0.1c-0.4,0.3-0.7,0.7-0.7,1.2c0.2,0,0.5,0,0.7,0c0.2,0,0.5,0,0.5-0.2c0-0.1,0-0.1,0-0.2
				c0-0.1,0.2-0.2,0.3-0.2c0.1-0.1,0.2-0.2,0.2-0.4c0-0.2,0-0.3,0-0.5c-0.1-0.7,0-1.5,0.3-2.2c0.3,0.1,0.5,0.4,0.6,0.6
				c0.2,0.3,0.3,0.6,0.5,0.8c0,0,0.1,0.1,0.1,0.2c0,0.1,0,0.1-0.1,0.1c-0.2,0.2-0.4,0.4-0.5,0.7c-0.2,0.2-0.3,0.5-0.3,0.8
				c0.3,0.1,0.6,0.1,1,0c0,0,0.1,0,0.1,0c0,0,0,0,0,0.1c0.1,0.3,0.1,0.8-0.1,1.1c-0.1,0.1-0.2,0.2-0.3,0.4c-0.1,0.1-0.1,0.3-0.1,0.4
				c0.4,0,0.8,0,1.2,0c0,0,0.1,0,0.1,0c0.1-0.1,0-0.3,0.2-0.4c0.1-0.1,0.2-0.1,0.2-0.1c0.1-0.1,0.1-0.2,0-0.4
				c-0.2-0.4,0.1-0.8,0-1.2c0-0.1-0.1-0.2-0.2-0.4c-0.3-0.6-0.1-1.3,0-2c0-0.1,0-0.2,0-0.3c-0.1-0.2-0.2-0.3-0.3-0.4
				c-0.1-0.3,0-0.6,0-0.8c0.1-0.6,0.1-1.2,0-1.8c1.4-0.1,2.7,0.2,4.1,0.2c1.6,0.1,3.2-0.1,4.7-0.7c0.1,0,0.1,0,0.2,0
				c0.1,0,0.1,0.1,0.2,0.1c0.2,0.2,0.4,0.3,0.4,0.6c0,0.1,0,0.2-0.1,0.3c-0.1,0.2-0.2,0.4-0.2,0.6c0,0.1,0,0.2,0,0.3
				c0,0.1,0.1,0.2,0.2,0.2c0.1,0,0.2-0.1,0.3-0.2c0.2-0.3,0.4-0.5,0.6-0.8c0,0,0.1-0.1,0.1-0.1c0,0,0.1,0,0.1,0
				c0.3,0.2,0.5,0.3,0.8,0.5c0,0.3-0.1,0.7-0.1,1c0,0.1,0,0.1,0,0.2c0,0.1,0.2,0.1,0.3,0.1c0.1-0.1,0.2-0.2,0.2-0.3
				c0.1-0.2,0.3-0.5,0.4-0.7c0.1,0.1,0.1,0.3,0.2,0.4c0.1,0.8-0.1,1.6-0.3,2.4c-0.1,0.3-0.1,0.6-0.3,0.8c-0.1,0.2-0.4,0.4-0.5,0.7
				c-0.2,0.3-0.1,0.7-0.3,1c-0.1,0.1-0.2,0.2-0.4,0.3c-0.1,0.1-0.2,0.2-0.3,0.4c-0.1,0.5,1.3,0.3,1.5,0.3c0.1,0,0.1,0,0.2,0
				c0.1-0.1,0.1-0.2,0.2-0.4c0.1-0.2,0.2-0.5,0.5-0.5c0.1,0,0.1,0,0.2-0.1c0.1-0.1,0.2-0.2,0.2-0.4s-0.1-0.3,0-0.4
				c0-0.1,0-0.2,0.1-0.4c0.1-0.3,0.2-0.7,0.4-1C329.8,322.2,330,321.5,330.3,320.8z"/>
		</g>
	</g>
</g>
</svg>
