<?xml version="1.0" encoding="utf-8"?>
<!-- Generator: Adobe Illustrator 25.0.1, SVG Export Plug-In . SVG Version: 6.00 Build 0)  -->
<svg version="1.1" id="BACKGROUND" xmlns="http://www.w3.org/2000/svg" xmlns:xlink="http://www.w3.org/1999/xlink" x="0px" y="0px"
	 viewBox="0 0 750 500" style="enable-background:new 0 0 750 500;" xml:space="preserve">
<style type="text/css">
	.st0{fill:url(#SVGID_1_);}
	.st1{fill:url(#SVGID_2_);}
	.st2{fill:url(#SVGID_3_);}
	.st3{fill:#D2E2CA;}
	.st4{fill:url(#SVGID_4_);}
	.st5{fill:url(#SVGID_5_);}
	.st6{fill:url(#SVGID_6_);}
	.st7{fill:url(#SVGID_7_);}
	.st8{fill:#1A6357;}
	.st9{fill:url(#SVGID_8_);}
	.st10{fill:url(#SVGID_9_);}
	.st11{fill:url(#SVGID_10_);}
	.st12{fill:url(#SVGID_11_);}
	.st13{fill:#021E22;}
	.st14{fill:url(#SVGID_12_);}
</style>
<g>
	<linearGradient id="SVGID_1_" gradientUnits="userSpaceOnUse" x1="375.0002" y1="-1.4337" x2="375.0002" y2="257.8188">
		<stop  offset="0" style="stop-color:#5BAB9C"/>
		<stop  offset="0.1602" style="stop-color:#7DB9A4"/>
		<stop  offset="0.3668" style="stop-color:#A3C9AD"/>
		<stop  offset="0.533" style="stop-color:#BAD3B2"/>
		<stop  offset="0.6368" style="stop-color:#C3D7B4"/>
		<stop  offset="0.9975" style="stop-color:#E8EFE2"/>
	</linearGradient>
	<rect x="0" y="0" class="st0" width="750" height="500"/>
	<linearGradient id="SVGID_2_" gradientUnits="userSpaceOnUse" x1="375.0002" y1="-1.4337" x2="375.0002" y2="257.8188">
		<stop  offset="0" style="stop-color:#5BAB9C"/>
		<stop  offset="0.1602" style="stop-color:#7DB9A4"/>
		<stop  offset="0.3668" style="stop-color:#A3C9AD"/>
		<stop  offset="0.533" style="stop-color:#BAD3B2"/>
		<stop  offset="0.6368" style="stop-color:#C3D7B4"/>
		<stop  offset="0.9975" style="stop-color:#E8EFE2"/>
	</linearGradient>
	<rect x="0" y="0" class="st1" width="750" height="500"/>
	<linearGradient id="SVGID_3_" gradientUnits="userSpaceOnUse" x1="373.4624" y1="105.7117" x2="375.9131" y2="202.513">
		<stop  offset="0" style="stop-color:#FFFFFF"/>
		<stop  offset="1" style="stop-color:#FFFFFF;stop-opacity:0"/>
	</linearGradient>
	<circle class="st2" cx="375" cy="166.4" r="58"/>
	<path class="st3" d="M278.6,281.7c-0.3-2-2.8-4.3-3.7-5.4c-1.4-1.6-2.9-3.5-4.1-5.4c-1.3-1.9-2.2-3.9-3.2-6
		c-0.2-0.5-0.5-0.9-0.8-1.2c-0.6-0.5-1.3-0.4-2-0.6c-2-0.7-2.8-3.4-4.1-5.4c-1.1-1.8-2.4-1.2-3.6-0.4c-1.4,1-2.8,2.1-4,3.6
		c-0.9,1.1-1.7,2.7-2.9,2.5c-1.8-0.3-2.9-3.6-4.7-3.9c-1.3-0.2-2.4,1.3-3.4,2.3c-0.7,0.6-1.3,1.4-2,2c-2.8,2.4-4.6,6.7-7.4,9.2
		c-2.9,2.5-8.8,6.3-11,1.8c-0.2-0.5-0.5-1.9-0.7-2.1c-0.5-0.6-1.9-0.1-2.4-0.1c-1.4,0.2-2.6,1.1-3.9,1.5c-1.4,0.4-3.2-0.1-4.4-0.9
		c-1.6-1.1-2.5-4-4.1-5c-1.2-0.8-3.7-0.2-4.8,0.4c-1.4,0.7-2.6,1.9-4,2.5c-1.4,0.7-2.6,0.8-4,0.7c-1.7,0-3.3,0.6-4.9,1.7
		c-1.3,0.9-2.4,2.3-3.7,3.1c-1.3,0.9-1.6,1.6-2.7,2.9c-1.2,1.4-2.8-0.5-4.4,0.1c-1.6,0.6-3.4,2.1-4.6,3.5c-1,1.1-1.7,3-2.7,4.2
		c-1,1.2-1.9,1.5-3.1,2.1c-1.7,0.8-2.9,1.6-4.5,3l44.9,48.6l75.7-59.1L278.6,281.7z"/>
	<linearGradient id="SVGID_4_" gradientUnits="userSpaceOnUse" x1="485.8273" y1="296.3695" x2="470.6596" y2="229.8001">
		<stop  offset="0" style="stop-color:#D2E2CA"/>
		<stop  offset="1" style="stop-color:#9FC9B5"/>
	</linearGradient>
	<path class="st4" d="M749.6,172.7c-0.5-0.2-1.3-0.8-1.7-1.2c-0.6-0.5-1.2-1.2-1.7-1.7c-0.8-0.7-1-0.6-1.8-1.1
		c-0.6-0.3-1.1-1.7-1.7-2c-0.7-0.4-1.6-0.2-2.3-0.1c-2,0-3.8-0.1-5.7,0.8c-2.8,1.3-5.7,2.8-8.1,5.2c-1.5,1.6-3,3.4-4.6,4.9
		c-1.6,1.5-3.2,2.4-4.8,4.2c-1.9,2-3.9,4-5.8,5.8c-2.3,2.2-4.9,3.5-7.2,5.8c-2,2.1-4.4,3.8-6.7,5.3c-1.7,1.1-2.9,2.9-4.5,4.2
		c-3.4,2.8-6.5,6.4-10,9c-0.2,0.2-0.5,0.4-0.7,0.5c-1.7,1.2-3.4,2.6-5.1,3.8c-1.5,1.1-3,1.5-4.5,2.4c-1.6,0.9-3.2,1.6-4.8,2.6
		c-1.5,0.9-2.9,2.4-4.5,3.4c-2,1.3-4,2.5-6,3.7c-1.5,0.9-3,1.9-4.5,3c-5.6,4.2-11.9,3.9-17.9,4.9c-2.9,0.5-5.9,0.4-8.7,1.6
		c-2.4,1.1-4.8,2.8-7.1,4.3c-3,1.9-5.7,5-8.4,7.6c-3.5,3.3-7,5.2-10.9,6.9c-1,0.4-2.4-1.7-3.3-2.3c-1.8-1.3-3.3-3.4-5-5.2
		c-1.2-1.2-2.1-2.6-3.1-4.1c-0.1-0.2-0.2-0.4-0.3-0.5c-0.6-0.9-1.4-2.6-2.2-3c-0.7-0.4-1.4,0-2.1-0.2c-0.5-0.1-1.3-0.9-1.8-1.2
		c-1.4-1.1-3-2.2-4.4-3.5c-1.6-1.4-3-2.9-4.8-3.8c-1.4-0.7-2.6-0.4-4-0.5c-1.5-0.1-2.7-1.6-4-2.9c-0.7-0.8-1-1.4-1.6-2.3
		c-0.5-0.7-1.3-0.9-1.9-1.5c-1.3-1.2-2.4-3.5-3.9-4.1c-1.4-0.5-3,0.4-4.2,1.2c-3.1,2.1-5.6,5.4-8.5,8c-2.3,2.1-5.6,2.6-7.4,6.1
		c-0.8,1.5-0.6,2.2-2,2.3c-1.2,0.1-2.1-0.2-3.2-0.8c-1.1-0.6-1.9-1.2-2.8-2.3c-0.5-0.5-1-1.4-1.5-1.6c-0.9-0.2-3.5,1.6-4.2,2.5
		c-0.9,1.1-0.7,1.6-2.1,1.3c-1-0.2-1.8-0.9-2.7-1.5c-1.8-1.2-2.7-0.2-4.4,0c-1.4,0.1-2.5,1-3.7,2.5c-0.8,1-1.6,1.8-2.4,2.6
		c-1.8,1.7-3.6,3.2-5,5.6l26.4,43.5H750V172.7C749.9,172.7,749.7,172.7,749.6,172.7z M362.8,261.8c-1.1-1.1-2.4-1.9-3.6-2.7
		c-0.4-0.3-0.8-0.6-1.2-0.9c-1.6-1.3-2.7-2.2-4-4.2c-0.5-0.8-1-1.5-1.5-2.2c-0.4-0.7-0.7-1.5-1.1-2.2c-0.7-1.1-2-2-2.8-2.8
		c-1.1-1.1-2.4-2.2-3.5-3.4c-0.8-0.9-1.4-2.1-2.3-2.9c-0.6-0.6-1.3-0.8-2-1.4c-0.4-0.5-0.8-1.1-1.2-1.6c-0.6-0.4-1.2-0.7-1.8-0.9
		c-0.6-0.5-1.2-1.3-1.7-2.1c-1.6-2.4-3.5-4.4-5.8-3.2c-1.2,0.6-2,1.1-3,2.5c-1,1.4-1.6,1.9-2.9,1.6c-2.3-0.5-3.8-3.9-5.9-4.7
		c-0.8-0.3-2.1-0.1-2.9,0.2c-0.7,0.3-1.3,1.6-2.1,2c-1.9,1-4.3-0.6-6.3,0.3c-1.5,0.7-3.4,3.5-4.5,5.1c-1.3,1.9-2.7,3.9-3.8,6.1
		c-0.6,1.2-1.2,2.2-2.1,3.1c-1.3,1.2-3.3,1.6-4.8,2.1c-2.5,0.7-4.6,2.3-6.9,3.9c-3.2,2.1-6.3,4.7-9.5,6.9c-0.4,0.3-1,0.3-1.4,0.7
		c-0.8,0.7-0.9,1.7-1.6,2.6c-1,1.3-2.2,2.4-3.2,3.8c-0.2,0.2-0.3,0.4-0.5,0.6c-3.7,4.8-7.7,8.9-12,12.1c-1.6,1.2-2.9,2.1-4.3,3.8
		c-0.8,1.1-1.6,2.5-2.5,3.3c-0.8,0.7-1.7,0.8-2.5,1.4c-1,0.7-2,2-2.9,2.9c-1.8,1.7-3.7,2.9-5.2,5c-1.1,1.5-2.1,2.4-3.2,3.6
		c-1.3,1.4-2.4,3-3.5,4.6c-0.6,0.9-1.4,1.5-2.1,2.2c-0.9,0.9-1.6,2.3-2.5,3.2c-1.3,1.3-2.9,1.6-4.1,2.9c-1.4,1.4-2.9,2.1-4.2,3.6
		c-1,1.2-2,2-3.2,2.4c-0.9,0.2-1.8,0-2.7,0.3c-0.7,0.2-1.3,0.9-1.9,1.2c-1.2,0.6-2.6,1.5-3.9,1.7c-0.8,0.2-1.5-0.2-2.3,0.1
		c-0.5,0.2-1.6,0.9-2.7,1.7c-1.4,1-2.8,2-2.8,2l9.8,13.2l15.3,20.6l11.5,15.6l23.7-11.8L384,302
		C382.6,301.8,363.9,262.9,362.8,261.8z"/>
	<g>
		<linearGradient id="SVGID_5_" gradientUnits="userSpaceOnUse" x1="350.9147" y1="240.0182" x2="365.8567" y2="322.1995">
			<stop  offset="0" style="stop-color:#129483"/>
			<stop  offset="1" style="stop-color:#3EAF98"/>
		</linearGradient>
		<path class="st5" d="M750,245v255H0v-46.9l108.1-44.8l28.7-11.9h0l13.2-5.5l16.9-7l7-2.9c0,0,0,0,0,0l24.6-10.2c0,0,0,0,0,0
			l18-7.5l8.7-3.6l8-3.3c2.3,0.1,4.1-0.2,6.2-1.9c0.9-0.7,1.5-1.7,2.3-2.4c0.1-0.1,0.2-0.1,0.2-0.2c0,0,0,0,0,0
			c0.1-0.1,0.2-0.2,0.3-0.2c0.1-0.1,0.3-0.2,0.4-0.3c0,0,0,0,0,0c0.2-0.1,0.4-0.2,0.6-0.2c1.4-0.4,2.9-0.6,4.3-0.8
			c1.7-0.2,3.5-2.3,5.2-3.3c1.6-1,3.3-1.6,5-2.3c2.2-0.8,4.6-2,6.8-0.8c1.8,1,3.2,3,5.1,3.7c1.8,0.7,4.1,0.7,5.9-0.4
			c2.3-1.4,4.5-3.7,6.7-5.5c1.8-1.5,3.7-2.9,5.6-4.5c2.1-1.8,3.6-3.5,5.9-4.6c3.5-1.6,6.6-5.1,9.5-8.6c3.8-4.6,7.7-9.4,11.8-13.4
			c1.4-1.4,3-2.4,4.5-3.9c1.8-1.8,3.3-4.5,5-6.8c1.8-2.4,3.6-4.6,5.6-6.7c2.8-2.9,5.8-4.9,8.2-8.7c1-1.7,2.1-3.1,3.3-4.4
			c1.2-1.2,2.2-2.9,3.5-4c1.2-1.2,2.4-2.4,3.6-3.6c0.7-0.6,1.1-1.3,1.7-2.1c0.7-0.9,1-0.8,1.8-1.3c3.4-1.7,4.6-6.5,7-10.1
			c0,0,0.1-0.1,0.1-0.1c0.3-0.5,0.6-1,0.9-1.5c0.3-0.6,0.7-1.2,1-1.8c0,0,0,0,0-0.1c0.1-0.2,0.3-0.4,0.4-0.7
			c0.4-0.6,0.8-1.1,1.4-1.5c0.6-0.5,1.3-0.6,2-0.9c0.6-0.3,1.1-1.1,1.6-1.4c2.2-1.2,4.1,0.9,6.1,1.8c0.9,0.4,1.6,0.9,2.4,1.2
			c1,0.3,2.4,0,3.5,0c1.2-0.1,2.1-0.9,3.2-1.4c0.5-0.2,0.9-0.2,1.5-0.2c0.8,0,1-0.3,1.6-0.6c1.3-0.6,1.5-0.6,2.4-2.5
			c1.6-3.4,3-6.8,3.9-10.8c0.5-2.4,1.2-4.4,2.4-5.9c1.4-1.8,2.9-3.5,4.5-5c1.7-1.6,3.4-3.2,5-4.9c1.4-1.6,2.7-4,4.2-5.3
			c1.5-1.3,3.1-2.1,4.6-3.2c1.8-1.3,3.2-3.5,4.9-4.9c1.8-1.5,3.2-4.5,4.4-7c0.8-1.5,1.6-3.2,2.5-4.6c0.7-1.1,1.5-1.8,2.2-2.8
			c0.9-1.4,1.2-1.4,2.4-1.9c0.5-0.2,0.7-0.5,1.2-0.8c0.2-0.1,0.5,0.2,0.7,0c0.3-0.3,0.5-0.9,0.8-1.3c0.4-0.6,0.9-1.2,1.5-0.9
			c0.1,0,0.1,0.1,0.2,0.1c0.1,0,0.1,0,0.1,0c1.4,0.3,2.1-1.6,3.7-1.6c2.4,0,3.3,0.7,5,3c1.2,1.6,2.5,2,4,2.4
			c1.7,0.6,3.2,1.9,4.8,2.8c0.9,0.5,1.9,0.6,2.7,1.1c0.5,0.3,1,0.9,1.5,1.2c1.9,0.9,3.8,2,5.7,2.9c1.7,0.8,3.4,1.7,5.2,2.6
			c0.7,0.4,1.4,1.1,2.1,1.4c0.9,0.4,1.9,0.3,2.9,0.7c1.5,0.7,2.8,2,4.3,2.7c1.7,0.8,3.3,1.3,4.9,2.5c1.9,1.4,4.2,1.2,4.1,5
			c0,3,0,4.7,1.7,6.5c1.6,1.6,2.8,3,4.7,3.6c2.3,0.7,4.7,4.2,6.5,6.3c1.1,1.4,1.6,2.7,2.9,3.8c1.3,1.2,2.6,2,4,2.9
			c1.4,0.9,3,1.3,4.5,1.8c0.6,0.2,1.1,0.4,1.7,0.6c2.1,0.8,4.6-0.6,6.6,0.5c1.4,0.7,2.5,2.6,3.7,3.9c0.9,1,1.9,1.6,2.9,2.3
			c1.3,0.9,2.9,0.8,4.1,2c0.4,0.4,0.7,1,1.2,1.4c0.2,0.2,0.7,0.1,0.9,0.3c0.8,0.8,1.3,2.1,2.2,2.9c0.4,0.3,0.9,0.5,1.3,0.9
			c0.4,0.5,0.4,1.1,0.8,1.7c0.5,0.9,1.5,2.1,2.3,2.6c1,0.7,2.2,0.8,3.3,1.5c1.8,1.1,3,2.9,4.5,4.5c1.8,1.8,3.2,3.3,5.4,3.4
			c1.9,0.1,3.3,0,5.2,1.1c1.8,1.1,3.3,1.6,5.1,2.1c1.1,0.3,2.1,0.9,3.2,0.6c0.2,0,0.5-0.1,0.7-0.3c0.8-0.4,1.6-1.1,2.4-1.6
			c1.3-0.8,2.3-1.8,3.7-2.4c1.4-0.6,2.5-1.7,3.7-2.9c1.2-1.1,2.5-1.5,3.8-2.5c1.1-1,1.9-2.2,2.7-3.8c0.7-1.3,1.5-2.5,2.2-3.8
			c0.3-0.6,0.4-1.3,0.7-1.9c0.5-0.9,1.2-1.4,1.7-2.3c0.8-1.4,1.1-3.2,2.1-4.5c0.2-0.3,0.4-0.5,0.6-0.8c0.2-0.2,0.3-0.5,0.5-0.7
			c0.4-0.5,0.8-1.1,1.1-1.7c0.1-0.1,0.1-0.3,0.2-0.4c0.1-0.3,0.2-0.6,0.4-0.9c0.1-0.2,0.1-0.3,0.2-0.5c1.1-3.7,3.5-7.6,5.6-10.2
			c0.9-1.1,1.4-2.6,2.2-3.7c0.7-1,1.8-1.6,2.6-2.4c1.5-1.6,2.8-2.9,4.4-4.2c1.4-1.1,2.4-2.4,3-4.7c0.6-2.3,0.7-5,1.7-7
			c0.7-1.6,1.5-3,2.2-4.7c0.6-1.3,1.4-3,2-4.1c0.3-0.5,0.7-0.6,1.1-1.1c0.3-0.5,0.6-1.9,0.8-2.6c0.6-1.8,1-3.4,1.7-5
			c1.3-3.1,1.9-6.6,3.3-9.6c0.8-1.6,1.6-2.8,2.5-4.2c0.9-1.4,1.5-3,2.6-4c0.1-0.1,0.3-0.2,0.4-0.3c0.1-0.1,0.3-0.2,0.5-0.3
			c0.1-0.1,0.2-0.1,0.3-0.2c0.2-0.1,0.3-0.2,0.5-0.2c2.6-1,5.3,1.1,7.8,2.8c3.4,2.3,6.5,4.9,9.8,7.6c3.7,3.2,7.7,5.5,10.5,10.6
			c1.4,2.4,2.5,5.8,4.2,7.7c2.2,2.5,5,2.7,7.6,3.2c5.1,1,10.6,1.1,15.3,4.4c0.5,0.3,0.9,0.7,1.4,1c2,1.6,3.9,3.5,5.9,5.3
			c2.2,2,4.2,4.5,6.4,6.5c2.6,2.3,5,4.5,7.8,6.1c1,0.6,2,1.2,3,1.7c1.2,0.7,3.2,0.9,4.2,2.2c1.3,1.8,2.9,3.2,4.5,4.2
			c2,1.4,3.8,0.7,5.9,1.2c1.8,0.4,3.1,2,4.8,2.9c1.2,0.6,2.8,0.1,4,0.1c4,0.1,7.3-4.5,11.5-2.5c1.9,1,3.6,2.2,5.5,3.4
			C747.6,243.8,748.8,244.4,750,245z"/>
		<linearGradient id="SVGID_6_" gradientUnits="userSpaceOnUse" x1="327.9637" y1="405.574" x2="298.5972" y2="285.7892">
			<stop  offset="0" style="stop-color:#BED5B3"/>
			<stop  offset="1" style="stop-color:#3EAF98;stop-opacity:0.3"/>
		</linearGradient>
		<path class="st6" d="M150.5,396.1c4.3,27,30.6,45.5,57.2,51.9c26.6,6.3,54.3,3.6,81.6,5.4c28.2,1.9,58.6,8.3,83.1-5.6
			c15.8-9,26.2-24.9,36-40.3c8.6-13.5-55.2-34.5-52.3-50.2c2.2-11.8,34.2-16.1,43-18.3c12.7-3.1,71.8-11,71.6-27
			c0-3-1.7-5.7-3.3-8.3c-8.9-14.2-17.8-28.4-26.7-42.6c-3.8-6.1-7.7-12.4-8.3-19.6c-0.6-7.1,3.2-15.2,10.2-16.8
			c5.8-1.4,15.1-0.7,14.7-6.6c-0.1-1.8-1.4-3.3-2.7-4.6c-7.2-7.8-14.5-15.6-21.7-23.3c-0.1,0-0.2-0.1-0.4-0.1
			c-0.6-0.2-1.1,0.3-1.5,0.9c-0.3,0.4-0.5,1.1-0.8,1.3c-0.2,0.2-0.5-0.1-0.7,0c-0.5,0.3-0.7,0.6-1.2,0.8c-1.3,0.5-1.5,0.5-2.4,1.9
			c-0.7,1.1-1.6,1.7-2.2,2.8c-0.8,1.4-1.7,3.1-2.5,4.6c-1.2,2.5-2.6,5.5-4.4,7c-1.7,1.4-3.1,3.6-4.9,4.9c-1.5,1.1-3.1,1.9-4.6,3.2
			c-1.5,1.3-2.8,3.7-4.2,5.3c-1.6,1.8-3.2,3.4-4.9,5c-1.6,1.5-3,3.3-4.5,5c-1.2,1.5-1.9,3.6-2.4,5.9c-0.9,4-2.4,7.3-3.9,10.8
			c-0.9,1.9-1.1,1.9-2.4,2.5c-0.6,0.3-0.8,0.6-1.6,0.6c-0.5,0-1,0-1.5,0.2c-1.1,0.4-2,1.3-3.2,1.4c-1,0.1-2.5,0.4-3.5,0
			c-0.8-0.3-1.6-0.8-2.5-1.2c-1.9-0.9-3.9-3-6-1.8c-0.5,0.3-0.9,1.1-1.6,1.4c-0.7,0.3-1.3,0.4-2,0.9c-1.7,1.3-2.4,3.7-3.7,5.6
			c-2.4,3.6-3.6,8.3-7,10.1c-0.8,0.4-1.1,0.3-1.8,1.3c-0.6,0.8-1,1.5-1.7,2.1c-1.2,1.1-2.4,2.4-3.6,3.6c-1.2,1.2-2.2,2.8-3.5,4
			c-1.3,1.3-2.3,2.7-3.4,4.4c-2.4,3.9-5.3,5.8-8.2,8.7c-2,2-3.8,4.3-5.6,6.7c-1.6,2.2-3.1,4.9-5,6.8c-1.4,1.4-3,2.5-4.5,3.9
			c-4.1,4-8,8.8-11.8,13.4c-2.8,3.4-6,7-9.5,8.6c-2.3,1.1-3.8,2.8-5.9,4.6c-1.8,1.6-3.7,2.9-5.6,4.5c-2.2,1.8-4.4,4.1-6.7,5.5
			c-1.8,1.1-4,1.1-5.9,0.4c-1.9-0.7-3.3-2.7-5.1-3.7c-2.2-1.2-4.6,0-6.8,0.8c-1.7,0.6-3.4,1.3-5,2.3c-1.7,1-3.5,3.1-5.2,3.3
			c-1.5,0.2-2.9,0.4-4.3,0.8c-1.6,0.5-2.5,2.2-3.9,3.4c-2,1.6-3.8,2-6.2,1.9L150,390.9C150.1,392.7,150.2,394.4,150.5,396.1z"/>
		<linearGradient id="SVGID_7_" gradientUnits="userSpaceOnUse" x1="615.8539" y1="382.9968" x2="577.5668" y2="226.8256">
			<stop  offset="0" style="stop-color:#BED5B3"/>
			<stop  offset="1" style="stop-color:#3EAF98;stop-opacity:0.3"/>
		</linearGradient>
		<path class="st7" d="M502.8,357.2c-0.9,1.5-1.3,3.1-0.7,4.5c2.7-0.7,3.5-3.4,5.7-4.8c1.8-1.2,4.7-2.3,6.7-3.1
			c2.6-1.1,3.5-0.9,5.6-3.4c5.1-6,5.1-15,14.4-16.9c1.7-0.4,3.6-0.3,5.2-1c8.9-3.8,11.3-13.1,17.2-19.7c7.8-8.9,18.4-14.7,27.8-21.6
			c18.7-13.8,34.6-44.7,59.3-47.1c15.3-1.5,31.4,1.9,45.6-3.8c-12.7-4.7-25.3-9.4-38-14.1c-14.6-5.4-18.1-7.2-20.7-22.6
			c-1.4-8.5-2.6-20.3-4.5-29.1c-0.5,0.2-1.1,0.5-1.6,1c-1.1,1-1.7,2.6-2.6,4c-0.9,1.4-1.7,2.5-2.5,4.2c-1.5,3-2,6.5-3.3,9.6
			c-0.7,1.7-1.1,3.3-1.7,5c-0.2,0.7-0.5,2.1-0.8,2.7c-0.3,0.6-0.7,0.6-1.1,1.1c-0.7,1.1-1.5,2.8-2,4.1c-0.7,1.6-1.5,3.1-2.2,4.7
			c-1,2.1-1.1,4.7-1.7,7c-0.6,2.2-1.7,3.6-3,4.7c-1.6,1.3-3,2.6-4.4,4.2c-0.8,0.9-1.8,1.5-2.6,2.4c-0.8,1.1-1.3,2.6-2.2,3.7
			c-2,2.6-4.5,6.5-5.6,10.2c-0.6,2.2-1.8,3.5-2.9,5.1c-0.9,1.3-1.3,3.1-2,4.5c-0.5,0.9-1.2,1.4-1.7,2.3c-0.3,0.6-0.4,1.3-0.7,1.9
			c-0.7,1.3-1.5,2.5-2.2,3.8c-0.8,1.5-1.5,2.8-2.7,3.8c-1.2,1-2.5,1.4-3.8,2.5c-1.3,1.2-2.3,2.3-3.7,2.9c-1.4,0.6-2.4,1.6-3.7,2.4
			c-0.8,0.5-1.6,1.2-2.4,1.6c-3.9,5.9-7.9,11.8-12.1,17.6c-1.2,1.7-2.4,3.5-3.6,5.3c-7.4,11.1-14.8,22.3-22.5,33.2
			c-4,5.7-8,11.3-12.2,16.8c-1.9,2.5-3.6,4.2-6,5.9C505.7,353.6,503.9,355.3,502.8,357.2z"/>
	</g>
	<g>
		<path class="st8" d="M417.8,500H0V140.5c0.2,0.2,0.5,0.4,0.8,0.5c1.8,0.6,4,0.1,5.8,0c0.7-0.1,1.5-0.3,2.3-0.6
			c0.9-0.3,1.8-0.6,2.7-0.5c0.1,0,0.1,0,0.2,0c0.2,0,0.3,0.1,0.5,0.1c0.2,0.1,0.4,0.2,0.6,0.3c0.3,0.2,0.6,0.4,0.8,0.7
			c1.1,1.3,2.5,2.2,3.5,3.8c1.2,2.1,2.4,5.4,3.4,7.9c1,2.3,1.6,4.1,2.9,5.5c1.6,1.7,3.2,4.5,4.6,6.9c2.4,4.2,4.6,11.6,7.8,13.5
			c1.4,0.8,2.6,0.4,4,0.7c1.9,0.3,3.9,0.7,5.8,1.2c2.9,0.7,5.8,1.9,8.6,2.9c2.2,0.8,4.8,1.5,6.8,3.6c3.8,3.9,8.8,4.9,12,10.8
			c1.6,3,3.5,4.9,5.3,7.5c1.7,2.4,3.1,5.1,4.5,7.9c2.3,4.5,3.4,9.8,5.2,15c3.9,11.5,22.6,16.8,34.2,20.4c7.3,2.3,10.9,3.2,15.2,9.9
			c8.7,13.6,16.1,27.4,28,39.3c0.3,0.3,0.6,0.5,0.8,0.8c0.3,0.3,0.6,0.5,0.9,0.8c0.3,0.3,0.6,0.5,0.9,0.8c0.3,0.3,0.6,0.5,0.9,0.8
			c1.7,1.4,3.4,2.7,5.1,4c0.6,0.4,1.1,0.8,1.7,1.3c0.2,0.2,0.5,0.3,0.7,0.5c0.4,0.3,0.8,0.6,1.1,0.9c0,0,0,0,0,0
			c0.4,0.4,0.9,0.7,1.3,1.1c0.4,0.4,0.9,0.8,1.3,1.2c0.5,0.5,1.1,1,1.6,1.5c1.6,1.5,3.1,3,4.6,4.6c0.5,0.5,1,1,1.5,1.5
			c0.2,0.2,0.4,0.4,0.6,0.6c0.5,0.5,1,1.1,1.5,1.6c0.7,0.8,1.4,1.5,2.1,2.3c1.3,1.5,2.7,3,4,4.5c1,1.1,2,2.2,3,3.3
			c0.7,0.8,1.5,1.6,2.3,2.4c0.6,0.6,1.2,1.3,1.8,1.9c0,0,0.1,0.1,0.1,0.1c0.5,0.5,0.9,0.9,1.4,1.4c0.4,0.4,0.8,0.8,1.2,1.1
			c1,0.9,2,1.9,3,2.7c0.3,0.2,0.6,0.5,0.8,0.7c0.2,0.2,0.5,0.4,0.7,0.6c0.4,0.3,0.7,0.6,1.1,0.9c0.9,0.7,1.8,1.4,2.7,2.1
			c0.4,0.3,0.8,0.6,1.2,0.9c0,0,0.1,0,0.1,0.1c0.1,0.1,0.3,0.2,0.5,0.3c0.2,0.1,0.4,0.3,0.6,0.4c1.5,1,3,1.9,4.6,2.8
			c0.3,0.2,0.6,0.3,0.9,0.5c0.1,0.1,0.2,0.1,0.4,0.2c0.4,0.2,0.8,0.4,1.2,0.6c0.4,0.2,0.8,0.4,1.2,0.6c1.4,0.7,2.8,1.4,4.2,2.1
			c2.1,1.1,4.2,2.2,6.4,3.4c0.7,0.4,1.4,0.8,2.1,1.2c0.4,0.2,0.9,0.5,1.3,0.7c0.7,0.4,1.3,0.8,2,1.1c0.8,0.4,1.5,0.9,2.3,1.4
			c0.7,0.4,1.5,0.9,2.2,1.3c0.7,0.5,1.5,0.9,2.2,1.4c0.7,0.5,1.5,0.9,2.2,1.4c3.7,2.3,7.4,4.8,11,7.3c0.2,0.1,0.3,0.2,0.5,0.3
			c1.2,0.9,2.5,1.7,3.7,2.6c8.9,6.4,17.2,13.2,24.6,19.8c0.9,0.8,1.7,1.6,2.6,2.3c1.2,1.1,2.5,2.2,3.7,3.3c1,0.9,2.1,1.8,3.1,2.7
			c1.1,0.9,2.1,1.8,3.2,2.8c1.3,1.1,2.6,2.2,3.9,3.3c0.8,0.7,1.6,1.3,2.3,2h0c2.1,1.8,4.2,3.6,6.3,5.5c0.5,0.5,1,0.9,1.6,1.4
			c3.5,3.1,6.9,6.1,10.3,9.3c0.5,0.5,1.1,1,1.6,1.5c0.5,0.5,1.1,1,1.6,1.5c0.8,0.8,1.6,1.5,2.4,2.3c0.8,0.8,1.6,1.5,2.3,2.3
			c1.6,1.6,3.1,3.2,4.7,4.8c1.4,1.5,2.8,2.9,4.2,4.3c0.4,0.4,0.9,0.9,1.3,1.3c0.3,0.3,0.6,0.6,0.9,0.9c0.5,0.5,1,0.9,1.5,1.4
			c0.3,0.3,0.7,0.6,1,0.9l0.1,0h0c2.4,2.2,4.8,4.2,7.2,6.2c0.9,0.7,1.8,1.4,2.6,2.1C377.1,471.9,398.5,483.6,417.8,500z"/>
		<linearGradient id="SVGID_8_" gradientUnits="userSpaceOnUse" x1="212.5045" y1="246.1988" x2="170.8862" y2="315.8294">
			<stop  offset="0" style="stop-color:#BED5B3"/>
			<stop  offset="1" style="stop-color:#3EAF98;stop-opacity:0"/>
		</linearGradient>
		<path class="st9" d="M338.6,439.3c-15.8-16.8-32.8-29.9-49.5-45c-18-16.3-42.4-33.3-64.7-44c-19.5-9.3-28.8-26-44.4-40.3
			c-4.6-4.2-10.1-7.5-14.8-12.2c-11.9-11.9-19.3-25.6-28-39.3c-4.3-6.7-7.8-7.6-15.2-9.9c-11.5-3.7-30.2-8.9-34.1-20.4
			c-1.8-5.2-2.9-10.5-5.2-15c-1.5-2.8-2.9-5.5-4.5-7.9c-1.8-2.6-3.7-4.5-5.3-7.5c-3.2-5.9-8.2-6.9-12-10.8c-2-2.1-4.5-2.8-6.7-3.6
			c-2.8-1-5.7-2.2-8.6-2.9c-1.9-0.5-3.9-0.9-5.8-1.2c-1.5-0.2-2.7,0.2-4-0.7c-3.2-1.9-5.3-9.3-7.8-13.5c-1.4-2.4-3-5.2-4.6-6.9
			c-1.4-1.5-2-3.2-2.9-5.5c-1-2.5-2.2-5.8-3.4-7.9c-1-1.6-2.4-2.5-3.5-3.8c-1.4-1.6-3.1-1.1-4.7-0.5c8.1,11.2,16.8,21.6,9.9,35.4
			c-8.6,17,2.7,23.4,17,34.7c15.1,11.9,31.9,21.1,47.9,31.8c2.2,1.5,3.8,3.1,5.4,5.2c3.9,5.4,8.7,10.5,14.6,14.1
			c3,1.8,6.6,2.9,9.6,4.7c4.7,3,6.2,8.5,8.5,12.9c1,1.9,2.3,3.4,2.8,5.5c0.4,1.5,0.1,2.5,1,4c2.1,3.6,6.4,6.2,10.2,7.9
			c4,1.8,7.2,3,10.1,6.2c2.5,2.7,2.2,4.8,2.4,8.2c0.6,8.5,9.3,15.9,13.9,22.7c6,8.9,9.2,18.8,16.7,27c17.2,18.8,39.1,30.2,60.5,44
			c25.7,16.7,52.2,30.5,82,39.7c6.8,2.1,22.7,9.1,33.6,9.9C349.3,449.8,343.8,444.8,338.6,439.3z"/>
	</g>
	<path class="st8" d="M750,266.5V500H243.8c2.6-3.1,5.3-6.2,8.1-9.1c1.6-1.6,3.1-3.2,4.8-4.6c13-11.9,28-20.4,41-32.2
		c2.1-1.8,4.1-3.8,6-5.8c3-3.1,5.8-6.7,8.7-10.3c2.7-3.4,5.4-6.8,8.3-10c1.8-2,3.6-3.8,5.5-5.5c0.6-0.6,1.3-1.1,1.9-1.6
		c4.6-3.7,9.4-6.5,14.3-8.8c15.9-7.4,32.9-9.2,48.7-17.6c2-1,3.9-2.1,5.9-3.1c15.6-8.2,31.3-16.2,46.8-24.6
		c13.3-7.2,28.4-21.4,43.6-17.1c18,5,36.1-2.7,53.7-7c8.7-2.1,17.7-4.4,25.2-9.5c4.3-2.9,8-6.7,12.4-9.3c5-3.1,10.8-4.6,16.3-6.6
		c17.7-6.4,30.7-21.9,48.1-26.3c4.8-1.2,10-1.6,15.8-0.6c1.5,0.2,2.9,0.6,4.4,0.6c0.4,0,0.8,0,1.1-0.1c4.2-0.6,7.2-4.3,11.1-6
		c5.4-2.4,11.7-0.3,17.5-1.4c7.4-1.3,13-7.3,18.9-12.3c1.4-1.2,3-2.4,4.7-3c9.2-2.8,17.3,4.8,27.6,0.3
		C746,267.6,748,267.1,750,266.5z"/>
	<linearGradient id="SVGID_9_" gradientUnits="userSpaceOnUse" x1="384.7496" y1="311.2029" x2="346.835" y2="490.7602">
		<stop  offset="0" style="stop-color:#093F35"/>
		<stop  offset="1" style="stop-color:#1A6357"/>
	</linearGradient>
	<path class="st10" d="M274.2,409.3c-0.7-1.6-6.6-3.5-7.4-5c-0.2-0.4-0.5-0.7-0.7-1c-0.3-0.3-0.6-0.7-0.8-1.1
		c-0.4-0.8-0.5-1.5-1-2.2c-0.5-0.6-1.4-0.9-2-1.4c-0.7-0.6-1.3-1.1-2.1-1.5c-3.8-2.1-7.6-3.6-11.5-5.2c-1.4-0.6-2.7-1.2-4-1.8
		c-1.2-0.5-1.7-1.4-2.7-2.4c-1.8-1.7-3.3-3.7-5.2-5.1c-1-0.8-2-1.4-3-2c-0.8-0.5-1.7-1.3-2.5-1.8c-0.7-0.4-1.3-0.6-1.9-1
		c-1.2-0.8-2.2-0.5-3.4-0.9c-0.7-0.2-1.8-0.9-2.6-1.3c-0.7-0.4-1.5-0.4-2.2-0.7c-1-0.4-2.7-1.4-3.6-2.3c-0.4-0.4-0.7-0.8-1-1.2
		c-0.5-0.7-1.1-1.4-1.7-2.1c-1.1-1.1-2.6-1.9-3.8-2.9c-1.5-1.2-3.1-2.1-4.7-3c-4-2-8-4-11.6-7.3c-1.4-1.3-2.8-2.5-4.1-4.1
		c-0.8-1.1-1.5-2.4-2.3-3.4c-3.1-3.8-6.1-7.3-9.8-9.7c-2.7-1.8-5.6-3.3-8.3-4.8c-3.4-1.8-6.7-3.6-10.1-5.2c-0.3-0.2-0.6-0.3-1-0.5h0
		c-2.8-1.4-5.6-2.9-8.2-4.6c-3-1.9-5.8-4.7-8.6-7.2c-2.3-2-4.5-4.1-6.9-5.8c-2.6-1.7-5.3-2.9-7.9-4.5c-2.2-1.3-4.2-3-6.4-4.2
		c-1.5-0.8-3.1-1-4.6-1.8c-1.5-0.8-3-2.3-4.1-3.9c-0.6-0.9-0.9-2-1.6-2.9c-0.4-0.6-1-0.8-1.4-1.4c-0.6-0.8-0.8-1.4-1.5-2.2
		c-0.5-0.5-1-0.8-1.5-1.4c-1-1.2-1.5-3-2.4-4.3c-1.3-2-3.5-3.4-5.1-5c-1.2-1.2-2.6-2.8-3.7-4.3c-1-1.3-1.6-3.1-2.5-4.5
		c-1.3-2.1-2.7-2.6-4.4-3.8c-1.8-1.2-3.6-1.7-5.5-2.6c-1-0.5-1.6-1.5-2.6-2.1c-0.4-0.2-1.4-0.4-1.9-0.8c-0.7-0.6-1.1-1.3-1.9-1.9
		c-0.5-0.3-1-0.4-1.5-0.7c-1-0.6-2.2-1.4-3-2.5c-2.6-3.3-5.6-5.5-8.4-8.5c-1.4-1.4-2.7-2.1-4.2-3c-1.3-0.8-2.7-1.8-3.5-3.4
		c-0.8-1.6-1.2-2.1-2.4-3c-2.1-1.6-4.2-2.5-6.5-3.3c-1.4-0.5-3.4-1.1-4.6-2.5c-0.7-0.8-0.7-2.1-1.4-2.9c-2-2.2-5.1-1.2-7.4-1.2
		c-1.1,0-2.3,0.2-3.5,0c-1.2-0.2-1.9-1.3-3-2c-3.3-2.2-6.8-3.8-10.2-5.4c-1.5-0.7-2.9-1.6-4.4-2.2c-1.6-0.6-2.7-0.5-4-1.8
		c-1-0.9-2-2.2-3-3.1c-1-0.9-1.3-0.1-2.4,0.1c-1,0.1-2,0.4-2.9,0.7v198.9h276.6C275.9,412.1,274.8,411,274.2,409.3z M748.7,279.2
		c-3.1,1-6.4,2.8-9.4,4.5c-2.6,1.6-4.7,4.5-7.2,6.4c-2.2,1.7-4.7,2.7-6.9,4.1c-2.3,1.5-4.8,4-7.4,4c-1.1,0-2.3,0-3.4,0
		c-1.7,0-3.7,1.5-5,2.9c-1.5,1.7-2.6,3.3-4.5,4.1c-2.2,1-3.9,3.2-5.9,4.8c-1.2,0.9-1.9,2.4-2.8,3.7c-0.8,1.1-1.3,1.6-2.2,2.4
		c-1.1,1-2.2,2-3.5,2.8c-0.8,0.5-1.5,0.4-2.3,0.7c-0.9,0.3-1.6,1.2-2.5,1.4c-1.8,0.6-3,1.3-4.7,2.3c-1.5,0.9-3.2,1.1-4.7,1.8
		c-3.1,1.4-6.2,3.4-9.2,5.2c-1.8,1.1-3.7,2.2-5.7,3c-1.5,0.6-3,0.4-4.5,0.4c-3.8,0-7.5-1.3-11.4-0.4c-4.2,1-8,3.5-11.9,5.6
		c-3.6,1.9-6.8,5.6-10.3,8.1c-3.9,2.8-8.7,1.3-12.9,2.2c-1.3,0.3-2.5,0.1-3.8,0.1c-2.1,0-3.3,0.7-5,2.3c-2.8,2.7-5.3,5-8.4,7.1
		c-1.2,0.8-2.3,1.6-3.5,2.4c-2.2,1.6-4.2,2.9-6.6,3.7c-3.9,1.3-7.6,3.1-11.5,4.6c-1.9,0.7-3.8,1.3-5.7,1.7c-4.9,1-9.8,0.2-14.7,1.3
		c-6.2,1.4-11.3,5.6-17.1,8.7c-4.3,2.3-8.9,1.5-13.3,1.5c-3.4,0-6.8-0.3-10.1,0.4c-6.5,1.4-11.9,6.8-18.3,8.9
		c-5,1.6-8.9,6.6-13.6,9.2c-2.4,1.4-4.4,3.5-6.8,5c-2,1.3-4.1,2.3-6.1,3.5c-1.5,0.9-3,2.2-4.6,2.9c-1.4,0.6-2.8,0.4-4.2,0.9
		c-4.6,1.4-9.3,3.7-13.9,5.8c-3.9,1.8-7.8,3-11.6,4.5c-1.3,0.5-2.5,1-3.8,1.4c-2.5,0.8-5.1,1.3-7.7,1.3c-2.6,0-5.3,0-7.9,0
		c-4.9,0-9.8,1.1-14.6,2.6c-3.2,1-6.4,2.1-9.7,2.1c-0.9,0-1.8-0.1-2.7-0.4c-6.3-1.7-13.2,0.4-19.1,3.9c-2,1.2-3.9,3.2-6,3.6
		c-2.5,0.5-5-0.6-7.5,0.8c-1.7,0.9-3.2,1.7-5,2.2h0c-0.1,0-0.2,0.1-0.3,0.1c-0.8,0.2-1.9,0.3-2.7,0.7c-1.4,0.6-2.5,2-3.9,2.7
		c-0.1,0.1-0.2,0.1-0.3,0.2l-16.4,8.4h0l-72.1,36.9L233,500h517V278.7C749.6,278.9,749.1,279.1,748.7,279.2z"/>
	<linearGradient id="SVGID_10_" gradientUnits="userSpaceOnUse" x1="91.7564" y1="329.029" x2="76.8166" y2="413.1633">
		<stop  offset="0" style="stop-color:#002A2E"/>
		<stop  offset="0.9925" style="stop-color:#075649"/>
	</linearGradient>
	<path class="st11" d="M180.4,403c-1,0.2-2.1,0.1-3.1,0.1c-5.9-0.1-11.9,0-17.9,0.1c-2.9,0-5.8,0-8.7,0c-4.7-0.1-9.3-0.3-13.9-0.7h0
		c-16.1-1.3-31.8-4.3-47.2-9.6c-15.4-5.3-30.2-13.8-46.6-16c-11.1-1.5-22.3-2.7-33-6.1c-3.3-1-6.6-1.8-10-2.7v-95.3
		c2.8,2.1,5.6,4.3,8.6,6c2.1,1.2,4.5,2,6.7,3c2.5,1.2,4,2,5.9,3.8c1.3,1.3,2.8,2.1,3.9,3.7c2,3.2,3.8,5.1,7.4,6.5
		c2,0.8,3.5,2.1,5.2,3.1c1.5,0.9,3.3,1.4,4.7,2.3c3.2,2.1,6.5,5.6,8.8,8.6c5,6.5,8.8,15.5,17.1,18.7c3.5,1.3,6.9,3.5,10.3,5.1
		c2.7,1.3,5.7,3,8.6,3.2c4.3,0.3,8,2.5,12,3.8c3.5,1.2,6.1,4,8.9,6.3c2.5,2,3.5,5.7,6.1,7.2c1.5,0.8,2.9,0.8,4.3,2
		c1.4,1.2,2.4,3.1,4,4c1.2,0.6,2.8,0.7,4.1,1.1c1.7,0.5,3.2,1.3,5,1.5c1.6,0.2,2.9-0.1,4.5,0.7c2,0.9,3.5,2.6,5.3,3.8
		c4,2.5,7.3,5.8,11.5,8c2.1,1.2,3.3,3.1,5.1,4.8c2,1.8,3.4,4,5,6.2c1.1,1.6,2.4,3.1,3.9,4.4c0.3,0.3,0.6,0.5,1,0.8
		c2.5,1.8,5.2,3.2,7.4,5.4C176.7,398.3,180,400.9,180.4,403z"/>
	<linearGradient id="SVGID_11_" gradientUnits="userSpaceOnUse" x1="634.7839" y1="412.6561" x2="603.0451" y2="529.2964">
		<stop  offset="0" style="stop-color:#002A2E"/>
		<stop  offset="0.9925" style="stop-color:#075649"/>
	</linearGradient>
	<path class="st12" d="M750,362.6V500H498c-0.3-0.5-0.5-0.9-0.8-1.4c-3.1-5.8-4.9-12.4-6.7-18.7c-2.8-9.9-5.4-19.9-7-22
		c7.7-0.4,15.5-0.1,23.1,1.8c4.6,1.1,9.2,1.2,13.9,1.7c9,0.9,17.6,0.9,26.7-0.2c3.8-0.5,7.5-0.5,11.2-1.1c0.2,0,0.5-0.1,0.8-0.1
		c2.7-0.5,5.4-0.4,8.1-0.8c2.8-0.4,4.9-1.6,7.4-2.6c7-2.9,13.9-6.5,21.3-8.6c2.1-0.6,4.1-1.1,6.2-1.9c3.1-1.2,6-2.8,9.2-3.7
		c4.9-1.3,10.4-0.5,15.5-0.6c2.1,0,4.7-0.6,6.8-1c2.2-0.5,4.4-1.8,6.5-2.5c1.8-0.6,3.8-0.8,5.5-1.6c1.8-0.9,3.1-2.3,5.1-2.9
		c1.8-0.5,3.8-0.6,5.6-1.2c3.3-1.1,5.2-4.2,7.9-6.1c3.4-2.3,5.4-5.4,7.8-8.8c2.5-3.6,5-7.2,7-11.1c2.2-4.3,7.1-10.5,12.1-11.9
		c1.7-0.5,3.2-0.1,4.9-0.8c1.9-0.7,3.3-1.9,5.3-2c1-0.1,2.3,0.3,3.3,0.1c1.4-0.3,1.6-0.9,2.8-1.6c1.3-0.9,2.9-1.3,4.3-2.1
		c1.8-1.1,2.9-2.2,5.2-2.4c2.3-0.2,2.7,0.6,3.6,2.5c0.8,1.6,1.3,2.9,1.6,4.6c0.2,1.6-0.2,2.4,0.8,3.9c1.2,1.8,3.5,2.7,5,4.2
		c1,1.1,2.7,2.8,4.5,2c1.6-0.7,0.5-2.8,0.8-4.3c0.5-3.8,2-6.9,2.8-10.3c0.4-1.6,1.2-3.5,1.7-5.1c1.2-3.4,1.8-7.6,4.1-10.5
		c1.5-1.8,3.2-3.1,4.5-5C747.1,366.3,748.3,363.9,750,362.6z"/>
	<path class="st13" d="M698.2,498.5c-5-1.4-10-2.7-15-4.1c-3.5-1-6.1-3.5-9.6-4.6c-2.1-0.7-4.2-0.8-6.4-1c-2.1-0.2-3.8-0.5-5.6-1.5
		c-2.4-1.3-4.3-3.3-6.5-4.8c-6.3-4.3-13.9-6.7-21.5-6.7c-7.7,0-15.3-0.1-23,0c-5.8,0-9.5-0.6-15-2.5c-4.3-1.5-9-2.8-13.5-3.3
		c-3.1-0.3-6.2,0.7-9.2-0.2c-1.8-0.5-4.4-1.8-6.1-2.6c-5-2.2-10.2-4.1-15.4-6.1c-7.4-2.8-15.3-2.8-22.6-5.9
		c-6.8-2.9-14-2.2-21.4-2.2c-4.6,0-10.2,0.9-14.6-0.1c-3.7-0.8-7.3-2-11.2-2.5c-2.9-0.4-4.9-0.4-7.7-1.5c-2.8-1.1-5.7-2-8.6-2.8
		c-4.6-1.4-8.4-1.4-13.1-1.4c-3.3,0-7.2,0.6-10.4,0.1c-4.1-0.7-8.6-2.5-12.5-3.9c-8.6-3-17.3-7.5-26.4-8.6c-4.3-0.6-8.7-1.5-13-1.5
		c-4.3,0-8.2-1.5-12.6-1.4c-4.9,0-10.1,0.5-15-0.1c-5.8-0.7-12.1-0.7-17.7-2.1c-5.9-1.4-11.3-2.6-17.4-2c-4.4,0.4-7.9,2.1-12.4,1.2
		c-5-1-10.6-2.3-15.5-3.8c-5.2-1.6-8.8-5.6-13.3-8.5c-10.2-6.6-23.5-5.9-35.1-8.5c-5.7-1.3-11.3-3.8-17-5.2
		c-6.2-1.5-12.3-2.7-18.4-4.8c-7.3-2.7-15.2-5-22-8.8c-5.6-3.2-12.3-2-18.6-2c-7.2,0-15.2,1-22.3,0.1c-5.1-0.7-10.1-1.8-15.2-2.6
		c-4-0.6-7.9,0-11.8-1.1c-2.9-0.8-5.4-1.5-8.3-2.1c-7.8-1.5-14.8-6-22.3-8.3c-8.9-2.6-17.1-7-26.2-8.8c-6.7-1.3-13-3.7-19.6-5.6
		c-4.9-1.4-9.6-4-14.4-5.1c-4.6-1-8.6-3.2-13.2-4.2c-7.3-1.7-14.6-3.8-21.6-6.6V500h702.7C701.1,499.4,699.5,498.9,698.2,498.5z"/>
	<radialGradient id="SVGID_12_" cx="375" cy="170.2236" r="167.8589" gradientUnits="userSpaceOnUse">
		<stop  offset="0.1531" style="stop-color:#FFFAF2"/>
		<stop  offset="1" style="stop-color:#FFFAF2;stop-opacity:0"/>
	</radialGradient>
	<circle class="st14" cx="375" cy="170.2" r="167.9"/>
</g>
</svg>
